# Generated from CN441122_enc_5km.yaml
mtllib chart_obstacle_006.mtl
o chart_obstacle_006
usemtl chart_land
v -4.209980 4.622351 -5.000000
v -4.209980 -5.377649 -5.000000
v -4.209980 -5.377649 3.000000
v -4.209980 4.622351 3.000000
v 5.790020 -2.791863 -5.000000
v 5.790020 -2.791863 3.000000
v 3.204233 4.622351 -5.000000
v 3.204233 4.622351 3.000000
vn -1.000000000 0.000000000 0.000000000
vn 0.250344627 -0.968156789 0.000000000
vn 0.944222625 0.329307812 0.000000000
vn 0.000000000 1.000000000 0.000000000
vn 0.000000000 0.000000000 1.000000000
vn 0.000000000 0.000000000 -1.000000000
vn 0.000000000 0.000000000 1.000000000
vn 0.000000000 0.000000000 -1.000000000
f 1//1 2//1 3//1 4//1
f 2//2 5//2 6//2 3//2
f 5//3 7//3 8//3 6//3
f 7//4 1//4 4//4 8//4
f 8//5 4//5 3//5
f 2//6 1//6 7//6
f 6//7 8//7 3//7
f 2//8 7//8 5//8
