# Generated from CN441122_enc_5km.yaml
mtllib chart_obstacle_002.mtl
o chart_obstacle_002
usemtl chart_land
v -137.621394 205.534128 -5.000000
v -137.621394 -139.465872 -5.000000
v -137.621394 -139.465872 3.000000
v -137.621394 205.534128 3.000000
v 25.792819 -139.465872 -5.000000
v 25.792819 -139.465872 3.000000
v 108.792819 -88.465872 -5.000000
v 108.792819 -88.465872 3.000000
v 103.378606 -81.051658 -5.000000
v 103.378606 -81.051658 3.000000
v 55.378606 -107.051658 -5.000000
v 55.378606 -107.051658 3.000000
v 38.378606 -90.051658 -5.000000
v 38.378606 -90.051658 3.000000
v 40.378606 -78.880086 -5.000000
v 40.378606 -78.880086 3.000000
v 60.378606 -64.880086 -5.000000
v 60.378606 -64.880086 3.000000
v 64.378606 -56.880086 -5.000000
v 64.378606 -56.880086 3.000000
v 62.378606 -46.880086 -5.000000
v 62.378606 -46.880086 3.000000
v 97.792819 -23.465872 -5.000000
v 97.792819 -23.465872 3.000000
v 115.792819 -15.465872 -5.000000
v 115.792819 -15.465872 3.000000
v 137.378606 0.119914 -5.000000
v 137.378606 0.119914 3.000000
v 163.378606 -39.880086 -5.000000
v 163.378606 -39.880086 3.000000
v 276.378606 19.119914 -5.000000
v 276.378606 19.119914 3.000000
v 276.378606 47.948342 -5.000000
v 276.378606 47.948342 3.000000
v 266.378606 65.948342 -5.000000
v 266.378606 65.948342 3.000000
v 257.792819 70.534128 -5.000000
v 257.792819 70.534128 3.000000
v 208.964392 60.534128 -5.000000
v 208.964392 60.534128 3.000000
v 188.964392 50.534128 -5.000000
v 188.964392 50.534128 3.000000
v 162.964392 44.534128 -5.000000
v 162.964392 44.534128 3.000000
v 139.792819 32.534128 -5.000000
v 139.792819 32.534128 3.000000
v 129.792819 44.534128 -5.000000
v 129.792819 44.534128 3.000000
v 107.792819 60.534128 -5.000000
v 107.792819 60.534128 3.000000
v 76.964392 66.534128 -5.000000
v 76.964392 66.534128 3.000000
v 66.964392 52.534128 -5.000000
v 66.964392 52.534128 3.000000
v 59.792819 50.534128 -5.000000
v 59.792819 50.534128 3.000000
v 54.378606 61.948342 -5.000000
v 54.378606 61.948342 3.000000
v 36.964392 74.534128 -5.000000
v 36.964392 74.534128 3.000000
v 28.378606 67.948342 -5.000000
v 28.378606 67.948342 3.000000
v 28.378606 47.948342 -5.000000
v 28.378606 47.948342 3.000000
v 24.378606 37.948342 -5.000000
v 24.378606 37.948342 3.000000
v 12.964392 28.534128 -5.000000
v 12.964392 28.534128 3.000000
v -2.207181 24.534128 -5.000000
v -2.207181 24.534128 3.000000
v -27.621394 49.948342 -5.000000
v -27.621394 49.948342 3.000000
v -41.621394 71.948342 -5.000000
v -41.621394 71.948342 3.000000
v -43.621394 83.948342 -5.000000
v -43.621394 83.948342 3.000000
v -43.621394 93.119914 -5.000000
v -43.621394 93.119914 3.000000
v -34.207181 100.534128 -5.000000
v -34.207181 100.534128 3.000000
v -12.621394 112.119914 -5.000000
v -12.621394 112.119914 3.000000
v -7.621394 106.534128 -5.000000
v -7.621394 106.534128 3.000000
v -3.621394 106.534128 -5.000000
v -3.621394 106.534128 3.000000
v 2.378606 115.119914 -5.000000
v 2.378606 115.119914 3.000000
v 2.378606 118.534128 -5.000000
v 2.378606 118.534128 3.000000
v -5.207181 125.534128 -5.000000
v -5.207181 125.534128 3.000000
v -3.621394 129.948342 -5.000000
v -3.621394 129.948342 3.000000
v -24.207181 140.534128 -5.000000
v -24.207181 140.534128 3.000000
v -46.207181 132.534128 -5.000000
v -46.207181 132.534128 3.000000
v -64.207181 152.534128 -5.000000
v -64.207181 152.534128 3.000000
v -78.207181 150.534128 -5.000000
v -78.207181 150.534128 3.000000
v -94.207181 158.534128 -5.000000
v -94.207181 158.534128 3.000000
v -111.621394 181.948342 -5.000000
v -111.621394 181.948342 3.000000
vn -1.000000000 0.000000000 0.000000000
vn 0.000000000 -1.000000000 0.000000000
vn 0.523524571 -0.852010577 0.000000000
vn 0.807591702 0.589742014 0.000000000
vn -0.476283149 0.879291967 0.000000000
vn 0.707106781 0.707106781 0.000000000
vn 0.984350074 -0.176224094 0.000000000
vn 0.573462344 -0.819231921 0.000000000
vn 0.894427191 -0.447213595 0.000000000
vn 0.980580676 0.196116135 0.000000000
vn 0.551512004 -0.834166955 0.000000000
vn 0.406138466 -0.913811549 0.000000000
vn 0.585393071 -0.810749624 0.000000000
vn -0.838443616 -0.544988351 0.000000000
vn 0.462834079 -0.886444931 0.000000000
vn 1.000000000 0.000000000 0.000000000
vn 0.874157276 0.485642931 0.000000000
vn 0.471124013 0.882066984 0.000000000
vn -0.200634394 0.979666188 0.000000000
vn -0.447213595 0.894427191 0.000000000
vn -0.224859507 0.974391196 0.000000000
vn -0.459867405 0.887987596 0.000000000
vn 0.768221280 0.640184400 0.000000000
vn 0.588171698 0.808736084 0.000000000
vn 0.191040963 0.981582065 0.000000000
vn -0.813733471 0.581238194 0.000000000
vn -0.268628347 0.963243900 0.000000000
vn 0.903508641 0.428569872 0.000000000
vn 0.585761329 0.810483600 0.000000000
vn -0.608626513 0.793456847 0.000000000
vn -1.000000000 0.000000000 0.000000000
vn -0.928476691 0.371390676 0.000000000
vn -0.636281906 0.771456633 0.000000000
vn -0.254939179 0.966957091 0.000000000
vn 0.707106795 0.707106767 0.000000000
vn 0.843661488 0.536875492 0.000000000
vn 0.986393924 0.164398987 0.000000000
vn 1.000000000 0.000000000 0.000000000
vn 0.618715446 -0.785615171 0.000000000
vn 0.472918125 -0.881106377 0.000000000
vn -0.745096033 -0.666957196 0.000000000
vn 0.000000000 -1.000000000 0.000000000
vn 0.819682434 -0.572818214 0.000000000
vn 1.000000000 0.000000000 0.000000000
vn 0.678161618 0.734912798 0.000000000
vn 0.941113466 -0.338090881 0.000000000
vn 0.457307351 0.889308713 0.000000000
vn -0.341743063 0.939793423 0.000000000
vn 0.743294146 0.668964732 0.000000000
vn -0.141421356 0.989949494 0.000000000
vn 0.447213595 0.894427191 0.000000000
vn 0.802402547 0.596783170 0.000000000
vn 0.671883560 0.740656791 0.000000000
vn 0.000000000 0.000000000 1.000000000
vn 0.000000000 0.000000000 -1.000000000
vn 0.000000000 0.000000000 1.000000000
vn 0.000000000 0.000000000 -1.000000000
vn 0.000000000 0.000000000 1.000000000
vn 0.000000000 0.000000000 -1.000000000
vn 0.000000000 0.000000000 1.000000000
vn 0.000000000 0.000000000 -1.000000000
vn 0.000000000 0.000000000 1.000000000
vn 0.000000000 0.000000000 -1.000000000
vn 0.000000000 -0.000000000 1.000000000
vn 0.000000000 0.000000000 -1.000000000
vn 0.000000000 -0.000000000 1.000000000
vn 0.000000000 0.000000000 -1.000000000
vn 0.000000000 0.000000000 1.000000000
vn 0.000000000 0.000000000 -1.000000000
vn 0.000000000 0.000000000 1.000000000
vn 0.000000000 0.000000000 -1.000000000
vn 0.000000000 0.000000000 1.000000000
vn -0.000000000 0.000000000 -1.000000000
vn 0.000000000 0.000000000 1.000000000
vn -0.000000000 0.000000000 -1.000000000
vn 0.000000000 0.000000000 1.000000000
vn 0.000000000 0.000000000 -1.000000000
vn 0.000000000 0.000000000 1.000000000
vn 0.000000000 0.000000000 -1.000000000
vn 0.000000000 0.000000000 1.000000000
vn -0.000000000 -0.000000000 -1.000000000
vn -0.000000000 0.000000000 1.000000000
vn 0.000000000 -0.000000000 -1.000000000
vn 0.000000000 0.000000000 1.000000000
vn 0.000000000 0.000000000 -1.000000000
vn 0.000000000 0.000000000 1.000000000
vn 0.000000000 0.000000000 -1.000000000
vn 0.000000000 0.000000000 1.000000000
vn 0.000000000 0.000000000 -1.000000000
vn 0.000000000 0.000000000 1.000000000
vn 0.000000000 0.000000000 -1.000000000
vn 0.000000000 -0.000000000 1.000000000
vn 0.000000000 0.000000000 -1.000000000
vn 0.000000000 -0.000000000 1.000000000
vn 0.000000000 0.000000000 -1.000000000
vn 0.000000000 0.000000000 1.000000000
vn 0.000000000 0.000000000 -1.000000000
vn 0.000000000 0.000000000 1.000000000
vn 0.000000000 0.000000000 -1.000000000
vn 0.000000000 0.000000000 1.000000000
vn -0.000000000 0.000000000 -1.000000000
vn 0.000000000 -0.000000000 1.000000000
vn 0.000000000 0.000000000 -1.000000000
vn -0.000000000 0.000000000 1.000000000
vn 0.000000000 -0.000000000 -1.000000000
vn -0.000000000 0.000000000 1.000000000
vn 0.000000000 -0.000000000 -1.000000000
vn 0.000000000 0.000000000 1.000000000
vn 0.000000000 0.000000000 -1.000000000
vn 0.000000000 -0.000000000 1.000000000
vn 0.000000000 0.000000000 -1.000000000
vn 0.000000000 0.000000000 1.000000000
vn -0.000000000 0.000000000 -1.000000000
vn 0.000000000 0.000000000 1.000000000
vn 0.000000000 0.000000000 -1.000000000
vn 0.000000000 0.000000000 1.000000000
vn 0.000000000 0.000000000 -1.000000000
vn 0.000000000 0.000000000 1.000000000
vn 0.000000000 0.000000000 -1.000000000
vn 0.000000000 0.000000000 1.000000000
vn 0.000000000 0.000000000 -1.000000000
vn 0.000000000 0.000000000 1.000000000
vn 0.000000000 0.000000000 -1.000000000
vn 0.000000000 0.000000000 1.000000000
vn 0.000000000 0.000000000 -1.000000000
vn 0.000000000 0.000000000 1.000000000
vn 0.000000000 -0.000000000 -1.000000000
vn 0.000000000 0.000000000 1.000000000
vn 0.000000000 0.000000000 -1.000000000
vn 0.000000000 0.000000000 1.000000000
vn 0.000000000 0.000000000 -1.000000000
vn 0.000000000 0.000000000 1.000000000
vn 0.000000000 -0.000000000 -1.000000000
vn 0.000000000 0.000000000 1.000000000
vn 0.000000000 0.000000000 -1.000000000
vn 0.000000000 0.000000000 1.000000000
vn 0.000000000 0.000000000 -1.000000000
vn 0.000000000 0.000000000 1.000000000
vn 0.000000000 0.000000000 -1.000000000
vn 0.000000000 0.000000000 1.000000000
vn 0.000000000 0.000000000 -1.000000000
vn 0.000000000 0.000000000 1.000000000
vn 0.000000000 0.000000000 -1.000000000
vn 0.000000000 0.000000000 1.000000000
vn 0.000000000 0.000000000 -1.000000000
vn 0.000000000 0.000000000 1.000000000
vn 0.000000000 0.000000000 -1.000000000
vn 0.000000000 0.000000000 1.000000000
vn 0.000000000 0.000000000 -1.000000000
vn 0.000000000 0.000000000 1.000000000
vn -0.000000000 0.000000000 -1.000000000
vn 0.000000000 0.000000000 1.000000000
vn 0.000000000 -0.000000000 -1.000000000
vn 0.000000000 0.000000000 1.000000000
vn -0.000000000 0.000000000 -1.000000000
f 1//1 2//1 3//1 4//1
f 2//2 5//2 6//2 3//2
f 5//3 7//3 8//3 6//3
f 7//4 9//4 10//4 8//4
f 9//5 11//5 12//5 10//5
f 11//6 13//6 14//6 12//6
f 13//7 15//7 16//7 14//7
f 15//8 17//8 18//8 16//8
f 17//9 19//9 20//9 18//9
f 19//10 21//10 22//10 20//10
f 21//11 23//11 24//11 22//11
f 23//12 25//12 26//12 24//12
f 25//13 27//13 28//13 26//13
f 27//14 29//14 30//14 28//14
f 29//15 31//15 32//15 30//15
f 31//16 33//16 34//16 32//16
f 33//17 35//17 36//17 34//17
f 35//18 37//18 38//18 36//18
f 37//19 39//19 40//19 38//19
f 39//20 41//20 42//20 40//20
f 41//21 43//21 44//21 42//21
f 43//22 45//22 46//22 44//22
f 45//23 47//23 48//23 46//23
f 47//24 49//24 50//24 48//24
f 49//25 51//25 52//25 50//25
f 51//26 53//26 54//26 52//26
f 53//27 55//27 56//27 54//27
f 55//28 57//28 58//28 56//28
f 57//29 59//29 60//29 58//29
f 59//30 61//30 62//30 60//30
f 61//31 63//31 64//31 62//31
f 63//32 65//32 66//32 64//32
f 65//33 67//33 68//33 66//33
f 67//34 69//34 70//34 68//34
f 69//35 71//35 72//35 70//35
f 71//36 73//36 74//36 72//36
f 73//37 75//37 76//37 74//37
f 75//38 77//38 78//38 76//38
f 77//39 79//39 80//39 78//39
f 79//40 81//40 82//40 80//40
f 81//41 83//41 84//41 82//41
f 83//42 85//42 86//42 84//42
f 85//43 87//43 88//43 86//43
f 87//44 89//44 90//44 88//44
f 89//45 91//45 92//45 90//45
f 91//46 93//46 94//46 92//46
f 93//47 95//47 96//47 94//47
f 95//48 97//48 98//48 96//48
f 97//49 99//49 100//49 98//49
f 99//50 101//50 102//50 100//50
f 101//51 103//51 104//51 102//51
f 103//52 105//52 106//52 104//52
f 105//53 1//53 4//53 106//53
f 104//54 4//54 3//54
f 2//55 1//55 103//55
f 74//56 104//56 3//56
f 2//57 103//57 73//57
f 72//58 74//58 3//58
f 2//59 73//59 71//59
f 70//60 72//60 3//60
f 2//61 71//61 69//61
f 16//62 70//62 3//62
f 2//63 69//63 15//63
f 14//64 16//64 3//64
f 2//65 15//65 13//65
f 6//66 14//66 3//66
f 2//67 13//67 5//67
f 12//68 14//68 6//68
f 5//69 13//69 11//69
f 8//70 12//70 6//70
f 5//71 11//71 7//71
f 10//72 12//72 8//72
f 7//73 11//73 9//73
f 42//74 30//74 32//74
f 31//75 29//75 41//75
f 40//76 42//76 32//76
f 31//77 41//77 39//77
f 34//78 40//78 32//78
f 31//79 39//79 33//79
f 38//80 34//80 36//80
f 35//81 33//81 37//81
f 40//82 34//82 38//82
f 37//83 33//83 39//83
f 104//84 106//84 4//84
f 1//85 105//85 103//85
f 76//86 102//86 104//86
f 103//87 101//87 75//87
f 74//88 76//88 104//88
f 103//89 75//89 73//89
f 22//90 68//90 70//90
f 69//91 67//91 21//91
f 16//92 22//92 70//92
f 69//93 21//93 15//93
f 18//94 22//94 16//94
f 15//95 21//95 17//95
f 44//96 28//96 30//96
f 29//97 27//97 43//97
f 42//98 44//98 30//98
f 29//99 43//99 41//99
f 96//100 92//100 94//100
f 93//101 91//101 95//101
f 82//102 92//102 96//102
f 95//103 91//103 81//103
f 98//104 82//104 96//104
f 95//105 81//105 97//105
f 102//106 98//106 100//106
f 99//107 97//107 101//107
f 78//108 98//108 102//108
f 101//109 97//109 77//109
f 76//110 78//110 102//110
f 101//111 77//111 75//111
f 98//112 78//112 80//112
f 79//113 77//113 97//113
f 82//114 98//114 80//114
f 79//115 97//115 81//115
f 86//116 82//116 84//116
f 83//117 81//117 85//117
f 88//118 82//118 86//118
f 85//119 81//119 87//119
f 58//120 60//120 62//120
f 61//121 59//121 57//121
f 64//122 58//122 62//122
f 61//123 57//123 63//123
f 56//124 58//124 64//124
f 63//125 57//125 55//125
f 66//126 56//126 64//126
f 63//127 55//127 65//127
f 22//128 66//128 68//128
f 67//129 65//129 21//129
f 24//130 66//130 22//130
f 21//131 65//131 23//131
f 18//132 20//132 22//132
f 21//133 19//133 17//133
f 56//134 66//134 24//134
f 23//135 65//135 55//135
f 54//136 56//136 24//136
f 23//137 55//137 53//137
f 26//138 54//138 24//138
f 23//139 53//139 25//139
f 50//140 54//140 26//140
f 25//141 53//141 49//141
f 48//142 50//142 26//142
f 25//143 49//143 47//143
f 28//144 48//144 26//144
f 25//145 47//145 27//145
f 46//146 48//146 28//146
f 27//147 47//147 45//147
f 44//148 46//148 28//148
f 27//149 45//149 43//149
f 52//150 54//150 50//150
f 49//151 53//151 51//151
f 82//152 88//152 90//152
f 89//153 87//153 81//153
f 92//154 82//154 90//154
f 89//155 81//155 91//155
