# Generated from CN441122_enc_5km.yaml
mtllib chart_obstacle_013.mtl
o chart_obstacle_013
usemtl chart_land
v -4.455426 4.846768 -5.000000
v -4.455426 -2.567446 -5.000000
v -4.455426 -2.567446 3.000000
v -4.455426 4.846768 3.000000
v 2.958788 -5.153232 -5.000000
v 2.958788 -5.153232 3.000000
v 5.544574 2.260981 -5.000000
v 5.544574 2.260981 3.000000
vn -1.000000000 0.000000000 0.000000000
vn -0.329307698 -0.944222664 0.000000000
vn 0.944222651 -0.329307738 0.000000000
vn 0.250344718 0.968156765 0.000000000
vn 0.000000000 0.000000000 1.000000000
vn 0.000000000 0.000000000 -1.000000000
vn 0.000000000 -0.000000000 1.000000000
vn 0.000000000 0.000000000 -1.000000000
f 1//1 2//1 3//1 4//1
f 2//2 5//2 6//2 3//2
f 5//3 7//3 8//3 6//3
f 7//4 1//4 4//4 8//4
f 8//5 4//5 3//5
f 2//6 1//6 7//6
f 6//7 8//7 3//7
f 2//8 7//8 5//8
