# Generated from CN441122_enc_5km.yaml
mtllib chart_obstacle_003.mtl
o chart_obstacle_003
usemtl chart_land
v -863.363891 26.599667 -5.000000
v -301.778105 -5.400333 -5.000000
v -301.778105 -5.400333 3.000000
v -863.363891 26.599667 3.000000
v 366.221895 -51.400333 -5.000000
v 366.221895 -51.400333 3.000000
v 382.221895 -53.400333 -5.000000
v 382.221895 -53.400333 3.000000
v 393.636109 -58.814546 -5.000000
v 393.636109 -58.814546 3.000000
v 399.636109 -70.814546 -5.000000
v 399.636109 -70.814546 3.000000
v 399.636109 -96.814546 -5.000000
v 399.636109 -96.814546 3.000000
v 409.636109 -104.814546 -5.000000
v 409.636109 -104.814546 3.000000
v 407.636109 28.599667 -5.000000
v 407.636109 28.599667 3.000000
vn -0.056889217 -0.998380497 0.000000000
vn -0.068699581 -0.997637393 0.000000000
vn -0.124034735 -0.992277877 0.000000000
vn -0.428569872 -0.903508641 0.000000000
vn -0.894427191 -0.447213595 0.000000000
vn -1.000000000 0.000000000 0.000000000
vn -0.624695048 -0.780868809 0.000000000
vn 0.999887655 0.014989222 0.000000000
vn -0.001573562 0.999998762 0.000000000
vn 0.000000000 -0.000000000 1.000000000
vn 0.000000000 0.000000000 -1.000000000
vn 0.000000000 0.000000000 1.000000000
vn 0.000000000 0.000000000 -1.000000000
vn 0.000000000 0.000000000 1.000000000
vn 0.000000000 0.000000000 -1.000000000
vn -0.000000000 0.000000000 1.000000000
vn 0.000000000 0.000000000 -1.000000000
vn -0.000000000 0.000000000 1.000000000
vn 0.000000000 0.000000000 -1.000000000
vn -0.000000000 0.000000000 1.000000000
vn 0.000000000 0.000000000 -1.000000000
vn -0.000000000 0.000000000 1.000000000
vn 0.000000000 0.000000000 -1.000000000
f 1//1 2//1 3//1 4//1
f 2//2 5//2 6//2 3//2
f 5//3 7//3 8//3 6//3
f 7//4 9//4 10//4 8//4
f 9//5 11//5 12//5 10//5
f 11//6 13//6 14//6 12//6
f 13//7 15//7 16//7 14//7
f 15//8 17//8 18//8 16//8
f 17//9 1//9 4//9 18//9
f 3//10 18//10 4//10
f 1//11 17//11 2//11
f 12//12 14//12 16//12
f 15//13 13//13 11//13
f 18//14 12//14 16//14
f 15//15 11//15 17//15
f 10//16 12//16 18//16
f 17//17 11//17 9//17
f 8//18 10//18 18//18
f 17//19 9//19 7//19
f 6//20 8//20 18//20
f 17//21 7//21 5//21
f 3//22 6//22 18//22
f 17//23 5//23 2//23
