# Generated from CN441122_enc_5km.yaml
mtllib chart_obstacle_014.mtl
o chart_obstacle_014
usemtl chart_land
v -2.121658 5.922693 -5.000000
v -4.707445 -4.077307 -5.000000
v -4.707445 -4.077307 3.000000
v -2.121658 5.922693 3.000000
v 2.706769 -4.077307 -5.000000
v 2.706769 -4.077307 3.000000
v 5.292555 1.336907 -5.000000
v 5.292555 1.336907 3.000000
vn -0.968156765 0.250344718 0.000000000
vn 0.000000000 -1.000000000 0.000000000
vn 0.902368969 -0.430964319 0.000000000
vn 0.526025773 0.850468627 0.000000000
vn 0.000000000 0.000000000 1.000000000
vn 0.000000000 0.000000000 -1.000000000
vn 0.000000000 0.000000000 1.000000000
vn 0.000000000 0.000000000 -1.000000000
f 1//1 2//1 3//1 4//1
f 2//2 5//2 6//2 3//2
f 5//3 7//3 8//3 6//3
f 7//4 1//4 4//4 8//4
f 6//5 4//5 3//5
f 2//6 1//6 5//6
f 8//7 4//7 6//7
f 5//8 1//8 7//8
