# Generated from CN441122_enc_5km.yaml
mtllib chart_obstacle_004.mtl
o chart_obstacle_004
usemtl chart_land
v 6.277457 21.928484 -5.000000
v -15.722543 7.928484 -5.000000
v -15.722543 7.928484 3.000000
v 6.277457 21.928484 3.000000
v -45.722543 -14.071516 -5.000000
v -45.722543 -14.071516 3.000000
v 25.691670 -14.071516 -5.000000
v 25.691670 -14.071516 3.000000
v 27.691670 17.928484 -5.000000
v 27.691670 17.928484 3.000000
v 15.105884 17.928484 -5.000000
v 15.105884 17.928484 3.000000
vn -0.536875492 0.843661488 0.000000000
vn -0.591363664 0.806404996 0.000000000
vn 0.000000000 -1.000000000 0.000000000
vn 0.998052578 -0.062378286 0.000000000
vn 0.000000000 1.000000000 0.000000000
vn 0.412697765 0.910868023 0.000000000
vn 0.000000000 0.000000000 1.000000000
vn 0.000000000 0.000000000 -1.000000000
vn 0.000000000 0.000000000 1.000000000
vn 0.000000000 0.000000000 -1.000000000
vn 0.000000000 0.000000000 1.000000000
vn 0.000000000 0.000000000 -1.000000000
vn 0.000000000 0.000000000 1.000000000
vn 0.000000000 -0.000000000 -1.000000000
f 1//1 2//1 3//1 4//1
f 2//2 5//2 6//2 3//2
f 5//3 7//3 8//3 6//3
f 7//4 9//4 10//4 8//4
f 9//5 11//5 12//5 10//5
f 11//6 1//6 4//6 12//6
f 8//7 3//7 6//7
f 5//8 2//8 7//8
f 12//9 3//9 8//9
f 7//10 2//10 11//10
f 10//11 12//11 8//11
f 7//12 11//12 9//12
f 3//13 12//13 4//13
f 1//14 11//14 2//14
