# Generated from CN441122_enc_5km.yaml
mtllib chart_obstacle_008.mtl
o chart_obstacle_008
usemtl chart_land
v -4.573786 4.883899 -5.000000
v -4.573786 -2.530314 -5.000000
v -4.573786 -2.530314 3.000000
v -4.573786 4.883899 3.000000
v 3.426214 -5.116101 -5.000000
v 3.426214 -5.116101 3.000000
v 5.426214 2.298113 -5.000000
v 5.426214 2.298113 3.000000
vn -1.000000000 0.000000000 0.000000000
vn -0.307556663 -0.951529768 0.000000000
vn 0.965489282 -0.260442788 0.000000000
vn 0.250344627 0.968156789 0.000000000
vn 0.000000000 0.000000000 1.000000000
vn 0.000000000 0.000000000 -1.000000000
vn 0.000000000 -0.000000000 1.000000000
vn 0.000000000 0.000000000 -1.000000000
f 1//1 2//1 3//1 4//1
f 2//2 5//2 6//2 3//2
f 5//3 7//3 8//3 6//3
f 7//4 1//4 4//4 8//4
f 8//5 4//5 3//5
f 2//6 1//6 7//6
f 6//7 8//7 3//7
f 2//8 7//8 5//8
