# Generated from CN441122_aids_crop.yaml
mtllib chart_obstacle_011.mtl
o chart_obstacle_011
usemtl chart_land
v -4.016060 5.547293 -5.000000
v -6.601846 -1.866920 -5.000000
v -6.601846 -1.866920 3.000000
v -4.016060 5.547293 3.000000
v -2.016060 -6.452707 -5.000000
v -2.016060 -6.452707 3.000000
v 5.398154 -4.452707 -5.000000
v 5.398154 -4.452707 3.000000
v 5.398154 5.547293 -5.000000
v 5.398154 5.547293 3.000000
vn -0.944222651 0.329307738 0.000000000
vn -0.707106858 -0.707106704 0.000000000
vn 0.260442788 -0.965489282 0.000000000
vn 1.000000000 0.000000000 0.000000000
vn 0.000000000 1.000000000 0.000000000
vn 0.000000000 0.000000000 1.000000000
vn 0.000000000 0.000000000 -1.000000000
vn 0.000000000 0.000000000 1.000000000
vn 0.000000000 0.000000000 -1.000000000
vn 0.000000000 0.000000000 1.000000000
vn 0.000000000 0.000000000 -1.000000000
f 1//1 2//1 3//1 4//1
f 2//2 5//2 6//2 3//2
f 5//3 7//3 8//3 6//3
f 7//4 9//4 10//4 8//4
f 9//5 1//5 4//5 10//5
f 6//6 4//6 3//6
f 2//7 1//7 5//7
f 8//8 4//8 6//8
f 5//9 1//9 7//9
f 10//10 4//10 8//10
f 7//11 1//11 9//11
