# Generated from CN441122_aids_crop.yaml
mtllib chart_obstacle_002.mtl
o chart_obstacle_002
usemtl chart_land
v -225.181117 439.496843 -5.000000
v -225.181117 369.496843 -5.000000
v -225.181117 369.496843 3.000000
v -225.181117 439.496843 3.000000
v -144.595330 317.496843 -5.000000
v -144.595330 317.496843 3.000000
v -75.181117 250.082630 -5.000000
v -75.181117 250.082630 3.000000
v -27.181117 184.082630 -5.000000
v -27.181117 184.082630 3.000000
v 16.818883 80.082630 -5.000000
v 16.818883 80.082630 3.000000
v 30.818883 -3.917370 -5.000000
v 30.818883 -3.917370 3.000000
v 22.818883 -482.503157 -5.000000
v 22.818883 -482.503157 3.000000
v 78.818883 -482.503157 -5.000000
v 78.818883 -482.503157 3.000000
v 86.818883 -169.917370 -5.000000
v 86.818883 -169.917370 3.000000
v 86.818883 -13.088943 -5.000000
v 86.818883 -13.088943 3.000000
v 78.818883 40.911057 -5.000000
v 78.818883 40.911057 3.000000
v 62.818883 110.911057 -5.000000
v 62.818883 110.911057 3.000000
v 30.818883 188.911057 -5.000000
v 30.818883 188.911057 3.000000
v -11.181117 256.911057 -5.000000
v -11.181117 256.911057 3.000000
v -27.181117 276.911057 -5.000000
v -27.181117 276.911057 3.000000
v -91.766903 347.496843 -5.000000
v -91.766903 347.496843 3.000000
v -175.766903 413.496843 -5.000000
v -175.766903 413.496843 3.000000
vn -1.000000000 0.000000000 0.000000000
vn -0.542194379 -0.840253090 0.000000000
vn -0.696696689 -0.717365823 0.000000000
vn -0.808736084 -0.588171698 0.000000000
vn -0.920967251 -0.389639991 0.000000000
vn -0.986393924 -0.164398987 0.000000000
vn -0.999860318 0.016713581 0.000000000
vn 0.000000000 -1.000000000 0.000000000
vn 0.999672661 -0.025584597 0.000000000
vn 1.000000000 0.000000000 0.000000000
vn 0.989203462 0.146548661 0.000000000
vn 0.974858507 0.222824802 0.000000000
vn 0.925168618 0.379556356 0.000000000
vn 0.850797997 0.525492881 0.000000000
vn 0.780868809 0.624695048 0.000000000
vn 0.737767406 0.675055001 0.000000000
vn 0.617821552 0.786318339 0.000000000
vn 0.465641512 0.884973436 0.000000000
vn 0.000000000 0.000000000 1.000000000
vn 0.000000000 0.000000000 -1.000000000
vn 0.000000000 -0.000000000 1.000000000
vn 0.000000000 0.000000000 -1.000000000
vn 0.000000000 0.000000000 1.000000000
vn 0.000000000 0.000000000 -1.000000000
vn 0.000000000 -0.000000000 1.000000000
vn 0.000000000 0.000000000 -1.000000000
vn -0.000000000 0.000000000 1.000000000
vn 0.000000000 -0.000000000 -1.000000000
vn 0.000000000 0.000000000 1.000000000
vn -0.000000000 0.000000000 -1.000000000
vn -0.000000000 0.000000000 1.000000000
vn 0.000000000 -0.000000000 -1.000000000
vn 0.000000000 0.000000000 1.000000000
vn -0.000000000 0.000000000 -1.000000000
vn 0.000000000 0.000000000 1.000000000
vn 0.000000000 0.000000000 -1.000000000
vn 0.000000000 0.000000000 1.000000000
vn 0.000000000 0.000000000 -1.000000000
vn 0.000000000 0.000000000 1.000000000
vn 0.000000000 0.000000000 -1.000000000
vn 0.000000000 0.000000000 1.000000000
vn -0.000000000 0.000000000 -1.000000000
vn -0.000000000 0.000000000 1.000000000
vn 0.000000000 0.000000000 -1.000000000
vn 0.000000000 0.000000000 1.000000000
vn -0.000000000 0.000000000 -1.000000000
vn -0.000000000 0.000000000 1.000000000
vn 0.000000000 0.000000000 -1.000000000
vn 0.000000000 0.000000000 1.000000000
vn -0.000000000 0.000000000 -1.000000000
f 1//1 2//1 3//1 4//1
f 2//2 5//2 6//2 3//2
f 5//3 7//3 8//3 6//3
f 7//4 9//4 10//4 8//4
f 9//5 11//5 12//5 10//5
f 11//6 13//6 14//6 12//6
f 13//7 15//7 16//7 14//7
f 15//8 17//8 18//8 16//8
f 17//9 19//9 20//9 18//9
f 19//10 21//10 22//10 20//10
f 21//11 23//11 24//11 22//11
f 23//12 25//12 26//12 24//12
f 25//13 27//13 28//13 26//13
f 27//14 29//14 30//14 28//14
f 29//15 31//15 32//15 30//15
f 31//16 33//16 34//16 32//16
f 33//17 35//17 36//17 34//17
f 35//18 1//18 4//18 36//18
f 20//19 14//19 16//19
f 15//20 13//20 19//20
f 18//21 20//21 16//21
f 15//22 19//22 17//22
f 22//23 14//23 20//23
f 19//24 13//24 21//24
f 8//25 32//25 34//25
f 33//26 31//26 7//26
f 6//27 8//27 34//27
f 33//28 7//28 5//28
f 36//29 6//29 34//29
f 33//30 5//30 35//30
f 3//31 6//31 36//31
f 35//32 5//32 2//32
f 4//33 3//33 36//33
f 35//34 2//34 1//34
f 24//35 12//35 14//35
f 13//36 11//36 23//36
f 22//37 24//37 14//37
f 13//38 23//38 21//38
f 26//39 12//39 24//39
f 23//40 11//40 25//40
f 28//41 12//41 26//41
f 25//42 11//42 27//42
f 10//43 12//43 28//43
f 27//44 11//44 9//44
f 30//45 10//45 28//45
f 27//46 9//46 29//46
f 8//47 10//47 30//47
f 29//48 9//48 7//48
f 32//49 8//49 30//49
f 29//50 7//50 31//50
