# Generated from CN441122_aids_crop.yaml
mtllib chart_obstacle_005.mtl
o chart_obstacle_005
usemtl chart_land
v 446.340959 306.860407 -5.000000
v 224.926746 156.860407 -5.000000
v 224.926746 156.860407 3.000000
v 446.340959 306.860407 3.000000
v 190.926746 140.860407 -5.000000
v 190.926746 140.860407 3.000000
v 144.926746 100.860407 -5.000000
v 144.926746 100.860407 3.000000
v -149.073254 -101.139593 -5.000000
v -149.073254 -101.139593 3.000000
v -409.659041 -271.139593 -5.000000
v -409.659041 -271.139593 3.000000
v -409.659041 -275.139593 -5.000000
v -409.659041 -275.139593 3.000000
v -404.244827 -275.139593 -5.000000
v -404.244827 -275.139593 3.000000
v -160.244827 -115.139593 -5.000000
v -160.244827 -115.139593 3.000000
v 159.755173 104.860407 -5.000000
v 159.755173 104.860407 3.000000
v 199.755173 140.860407 -5.000000
v 199.755173 140.860407 3.000000
v 225.755173 150.860407 -5.000000
v 225.755173 150.860407 3.000000
v 421.755173 284.860407 -5.000000
v 421.755173 284.860407 3.000000
v 446.340959 303.446193 -5.000000
v 446.340959 303.446193 3.000000
vn -0.560873074 0.827901802 0.000000000
vn -0.425797036 0.904818702 0.000000000
vn -0.656178715 0.754605522 0.000000000
vn -0.566290843 0.824205485 0.000000000
vn -0.546386718 0.837533017 0.000000000
vn -1.000000000 0.000000000 0.000000000
vn 0.000000000 -1.000000000 0.000000000
vn 0.548356962 -0.836244367 0.000000000
vn 0.566528823 -0.824041924 0.000000000
vn 0.668964732 -0.743294146 0.000000000
vn 0.358979079 -0.933345606 0.000000000
vn 0.564381899 -0.825513823 0.000000000
vn 0.603036703 -0.797713442 0.000000000
vn 1.000000000 0.000000000 0.000000000
vn 0.000000000 0.000000000 1.000000000
vn 0.000000000 0.000000000 -1.000000000
vn 0.000000000 0.000000000 1.000000000
vn 0.000000000 0.000000000 -1.000000000
vn 0.000000000 0.000000000 1.000000000
vn -0.000000000 0.000000000 -1.000000000
vn 0.000000000 0.000000000 1.000000000
vn 0.000000000 0.000000000 -1.000000000
vn -0.000000000 0.000000000 1.000000000
vn 0.000000000 0.000000000 -1.000000000
vn 0.000000000 0.000000000 1.000000000
vn -0.000000000 0.000000000 -1.000000000
vn 0.000000000 -0.000000000 1.000000000
vn 0.000000000 0.000000000 -1.000000000
vn 0.000000000 -0.000000000 1.000000000
vn 0.000000000 0.000000000 -1.000000000
vn 0.000000000 0.000000000 1.000000000
vn 0.000000000 -0.000000000 -1.000000000
vn 0.000000000 0.000000000 1.000000000
vn 0.000000000 0.000000000 -1.000000000
vn 0.000000000 0.000000000 1.000000000
vn 0.000000000 0.000000000 -1.000000000
vn 0.000000000 0.000000000 1.000000000
vn -0.000000000 0.000000000 -1.000000000
f 1//1 2//1 3//1 4//1
f 2//2 5//2 6//2 3//2
f 5//3 7//3 8//3 6//3
f 7//4 9//4 10//4 8//4
f 9//5 11//5 12//5 10//5
f 11//6 13//6 14//6 12//6
f 13//7 15//7 16//7 14//7
f 15//8 17//8 18//8 16//8
f 17//9 19//9 20//9 18//9
f 19//10 21//10 22//10 20//10
f 21//11 23//11 24//11 22//11
f 23//12 25//12 26//12 24//12
f 25//13 27//13 28//13 26//13
f 27//14 1//14 4//14 28//14
f 16//15 12//15 14//15
f 13//16 11//16 15//16
f 18//17 12//17 16//17
f 15//18 11//18 17//18
f 10//19 12//19 18//19
f 17//20 11//20 9//20
f 20//21 10//21 18//21
f 17//22 9//22 19//22
f 3//23 24//23 26//23
f 25//24 23//24 2//24
f 4//25 3//25 26//25
f 25//26 2//26 1//26
f 28//27 4//27 26//27
f 25//28 1//28 27//28
f 22//29 3//29 6//29
f 5//30 2//30 21//30
f 20//31 22//31 6//31
f 5//32 21//32 19//32
f 8//33 20//33 6//33
f 5//34 19//34 7//34
f 20//35 8//35 10//35
f 9//36 7//36 19//36
f 3//37 22//37 24//37
f 23//38 21//38 2//38
