# Generated from CN441122_aids_crop.yaml
mtllib chart_obstacle_016.mtl
o chart_obstacle_016
usemtl chart_land
v -1.268436 5.988905 -5.000000
v -5.854223 1.403119 -5.000000
v -5.854223 1.403119 3.000000
v -1.268436 5.988905 3.000000
v -5.854223 -3.425308 -5.000000
v -5.854223 -3.425308 3.000000
v 3.559991 -6.011095 -5.000000
v 3.559991 -6.011095 3.000000
v 6.145777 3.403119 -5.000000
v 6.145777 3.403119 3.000000
vn -0.707106704 0.707106858 0.000000000
vn -1.000000000 0.000000000 0.000000000
vn -0.264859185 -0.964287100 0.000000000
vn 0.964287127 -0.264859090 0.000000000
vn 0.329307738 0.944222651 0.000000000
vn 0.000000000 0.000000000 1.000000000
vn 0.000000000 0.000000000 -1.000000000
vn 0.000000000 0.000000000 1.000000000
vn 0.000000000 0.000000000 -1.000000000
vn 0.000000000 0.000000000 1.000000000
vn 0.000000000 0.000000000 -1.000000000
f 1//1 2//1 3//1 4//1
f 2//2 5//2 6//2 3//2
f 5//3 7//3 8//3 6//3
f 7//4 9//4 10//4 8//4
f 9//5 1//5 4//5 10//5
f 8//6 3//6 6//6
f 5//7 2//7 7//7
f 4//8 3//8 8//8
f 7//9 2//9 1//9
f 10//10 4//10 8//10
f 7//11 1//11 9//11
