# Generated from CN441122_aids_crop.yaml
mtllib chart_obstacle_015.mtl
o chart_obstacle_015
usemtl chart_land
v -3.133706 6.167809 -5.000000
v -5.719492 3.582023 -5.000000
v -5.719492 3.582023 3.000000
v -3.133706 6.167809 3.000000
v -3.719492 -5.832191 -5.000000
v -3.719492 -5.832191 3.000000
v 3.694721 -5.832191 -5.000000
v 3.694721 -5.832191 3.000000
v 6.280508 3.582023 -5.000000
v 6.280508 3.582023 3.000000
vn -0.707106781 0.707106781 0.000000000
vn -0.978169845 -0.207807013 0.000000000
vn 0.000000000 -1.000000000 0.000000000
vn 0.964287100 -0.264859185 0.000000000
vn 0.264859090 0.964287127 0.000000000
vn 0.000000000 0.000000000 1.000000000
vn 0.000000000 0.000000000 -1.000000000
vn 0.000000000 0.000000000 1.000000000
vn 0.000000000 0.000000000 -1.000000000
vn 0.000000000 0.000000000 1.000000000
vn 0.000000000 0.000000000 -1.000000000
f 1//1 2//1 3//1 4//1
f 2//2 5//2 6//2 3//2
f 5//3 7//3 8//3 6//3
f 7//4 9//4 10//4 8//4
f 9//5 1//5 4//5 10//5
f 8//6 3//6 6//6
f 5//7 2//7 7//7
f 4//8 3//8 8//8
f 7//9 2//9 1//9
f 10//10 4//10 8//10
f 7//11 1//11 9//11
