# Generated from CN441122_aids_crop.yaml
mtllib chart_obstacle_014.mtl
o chart_obstacle_014
usemtl chart_land
v -1.822210 6.152718 -5.000000
v -6.407997 1.566931 -5.000000
v -6.407997 1.566931 3.000000
v -1.822210 6.152718 3.000000
v -6.407997 -3.261496 -5.000000
v -6.407997 -3.261496 3.000000
v 5.592003 -5.847282 -5.000000
v 5.592003 -5.847282 3.000000
v 5.592003 3.566931 -5.000000
v 5.592003 3.566931 3.000000
vn -0.707106781 0.707106781 0.000000000
vn -1.000000000 0.000000000 0.000000000
vn -0.210647210 -0.977562148 0.000000000
vn 1.000000000 0.000000000 0.000000000
vn 0.329307851 0.944222611 0.000000000
vn 0.000000000 0.000000000 1.000000000
vn 0.000000000 0.000000000 -1.000000000
vn 0.000000000 -0.000000000 1.000000000
vn 0.000000000 0.000000000 -1.000000000
vn 0.000000000 0.000000000 1.000000000
vn -0.000000000 0.000000000 -1.000000000
f 1//1 2//1 3//1 4//1
f 2//2 5//2 6//2 3//2
f 5//3 7//3 8//3 6//3
f 7//4 9//4 10//4 8//4
f 9//5 1//5 4//5 10//5
f 10//6 3//6 6//6
f 5//7 2//7 9//7
f 8//8 10//8 6//8
f 5//9 9//9 7//9
f 4//10 3//10 10//10
f 9//11 2//11 1//11
