# Generated from CN441122_aids_crop.yaml
mtllib chart_obstacle_006.mtl
o chart_obstacle_006
usemtl chart_land
v -32.162479 307.826123 -5.000000
v -46.748266 293.240337 -5.000000
v -46.748266 293.240337 3.000000
v -32.162479 307.826123 3.000000
v -46.748266 288.411910 -5.000000
v -46.748266 288.411910 3.000000
v 53.251734 -79.588090 -5.000000
v 53.251734 -79.588090 3.000000
v 55.251734 -96.759663 -5.000000
v 55.251734 -96.759663 3.000000
v -56.748266 -282.759663 -5.000000
v -56.748266 -282.759663 3.000000
v -56.748266 -291.173877 -5.000000
v -56.748266 -291.173877 3.000000
v -50.748266 -285.588090 -5.000000
v -50.748266 -285.588090 3.000000
v 61.251734 -95.588090 -5.000000
v 61.251734 -95.588090 3.000000
v -42.334052 290.826123 -5.000000
v -42.334052 290.826123 3.000000
v -27.334052 303.826123 -5.000000
v -27.334052 303.826123 3.000000
v -8.162479 301.826123 -5.000000
v -8.162479 301.826123 3.000000
v -4.748266 298.411910 -5.000000
v -4.748266 298.411910 3.000000
v -4.748266 305.826123 -5.000000
v -4.748266 305.826123 3.000000
vn -0.707106757 0.707106805 0.000000000
vn -1.000000000 0.000000000 0.000000000
vn -0.965005471 -0.262229748 0.000000000
vn -0.993285426 -0.115689509 0.000000000
vn -0.856679067 0.515849761 0.000000000
vn -1.000000000 0.000000000 0.000000000
vn 0.681391090 -0.731919520 0.000000000
vn 0.861467626 -0.507812495 0.000000000
vn 0.965896818 0.258927280 0.000000000
vn 0.654930538 -0.755689083 0.000000000
vn -0.103758055 -0.994602567 0.000000000
vn -0.707106781 -0.707106781 0.000000000
vn 1.000000000 0.000000000 0.000000000
vn 0.072761481 0.997349371 0.000000000
vn 0.000000000 0.000000000 1.000000000
vn 0.000000000 0.000000000 -1.000000000
vn 0.000000000 0.000000000 1.000000000
vn 0.000000000 0.000000000 -1.000000000
vn 0.000000000 0.000000000 1.000000000
vn 0.000000000 0.000000000 -1.000000000
vn 0.000000000 0.000000000 1.000000000
vn -0.000000000 0.000000000 -1.000000000
vn -0.000000000 0.000000000 1.000000000
vn 0.000000000 -0.000000000 -1.000000000
vn -0.000000000 0.000000000 1.000000000
vn 0.000000000 0.000000000 -1.000000000
vn 0.000000000 0.000000000 1.000000000
vn -0.000000000 0.000000000 -1.000000000
vn 0.000000000 0.000000000 1.000000000
vn 0.000000000 -0.000000000 -1.000000000
vn -0.000000000 0.000000000 1.000000000
vn 0.000000000 0.000000000 -1.000000000
vn 0.000000000 0.000000000 1.000000000
vn 0.000000000 0.000000000 -1.000000000
f 1//1 2//1 3//1 4//1
f 2//2 5//2 6//2 3//2
f 5//3 7//3 8//3 6//3
f 7//4 9//4 10//4 8//4
f 9//5 11//5 12//5 10//5
f 11//6 13//6 14//6 12//6
f 13//7 15//7 16//7 14//7
f 15//8 17//8 18//8 16//8
f 17//9 19//9 20//9 18//9
f 19//10 21//10 22//10 20//10
f 21//11 23//11 24//11 22//11
f 23//12 25//12 26//12 24//12
f 25//13 27//13 28//13 26//13
f 27//14 1//14 4//14 28//14
f 16//15 12//15 14//15
f 13//16 11//16 15//16
f 10//17 12//17 16//17
f 15//18 11//18 9//18
f 18//19 10//19 16//19
f 15//20 9//20 17//20
f 8//21 10//21 18//21
f 17//22 9//22 7//22
f 24//23 26//23 28//23
f 27//24 25//24 23//24
f 22//25 24//25 28//25
f 27//26 23//26 21//26
f 4//27 22//27 28//27
f 27//28 21//28 1//28
f 20//29 22//29 4//29
f 1//30 21//30 19//30
f 3//31 20//31 4//31
f 1//32 19//32 2//32
f 6//33 20//33 3//33
f 2//34 19//34 5//34
