# Generated from CN441122_filled_aids.yaml
mtllib chart_obstacle_108.mtl
o chart_obstacle_108
usemtl chart_land
v 6.332937 4.242198 -5.000000
v -5.667063 4.242198 -5.000000
v -5.667063 4.242198 3.000000
v 6.332937 4.242198 3.000000
v -5.667063 -3.172016 -5.000000
v -5.667063 -3.172016 3.000000
v 3.747151 -5.757802 -5.000000
v 3.747151 -5.757802 3.000000
vn 0.000000000 1.000000000 0.000000000
vn -1.000000000 0.000000000 0.000000000
vn -0.264859090 -0.964287127 0.000000000
vn 0.968156789 -0.250344627 0.000000000
vn 0.000000000 0.000000000 1.000000000
vn 0.000000000 0.000000000 -1.000000000
vn 0.000000000 -0.000000000 1.000000000
vn 0.000000000 0.000000000 -1.000000000
f 1//1 2//1 3//1 4//1
f 2//2 5//2 6//2 3//2
f 5//3 7//3 8//3 6//3
f 7//4 1//4 4//4 8//4
f 4//5 3//5 6//5
f 5//6 2//6 1//6
f 8//7 4//7 6//7
f 5//8 1//8 7//8
