# Generated from CN441122_filled_aids.yaml
mtllib chart_obstacle_032.mtl
o chart_obstacle_032
usemtl chart_land
v -51.060392 20.846066 -5.000000
v -51.060392 17.431852 -5.000000
v -51.060392 17.431852 3.000000
v -51.060392 20.846066 3.000000
v -44.474606 12.846066 -5.000000
v -44.474606 12.846066 3.000000
v 52.939608 -21.153934 -5.000000
v 52.939608 -21.153934 3.000000
v 52.939608 -17.153934 -5.000000
v 52.939608 -17.153934 3.000000
v 44.353822 -13.153934 -5.000000
v 44.353822 -13.153934 3.000000
vn -1.000000000 0.000000000 0.000000000
vn -0.571431361 -0.820649864 0.000000000
vn -0.329530253 -0.944145017 0.000000000
vn 1.000000000 0.000000000 0.000000000
vn 0.422304506 0.906454028 0.000000000
vn 0.335666454 0.941980908 0.000000000
vn 0.000000000 0.000000000 1.000000000
vn 0.000000000 0.000000000 -1.000000000
vn 0.000000000 0.000000000 1.000000000
vn 0.000000000 0.000000000 -1.000000000
vn 0.000000000 0.000000000 1.000000000
vn 0.000000000 0.000000000 -1.000000000
vn 0.000000000 0.000000000 1.000000000
vn 0.000000000 0.000000000 -1.000000000
f 1//1 2//1 3//1 4//1
f 2//2 5//2 6//2 3//2
f 5//3 7//3 8//3 6//3
f 7//4 9//4 10//4 8//4
f 9//5 11//5 12//5 10//5
f 11//6 1//6 4//6 12//6
f 6//7 4//7 3//7
f 2//8 1//8 5//8
f 12//9 4//9 6//9
f 5//10 1//10 11//10
f 8//11 12//11 6//11
f 5//12 11//12 7//12
f 10//13 12//13 8//13
f 7//14 11//14 9//14
