# Generated from CN441122_filled_aids.yaml
mtllib chart_obstacle_026.mtl
o chart_obstacle_026
usemtl chart_land
v -139.615580 54.745334 -5.000000
v -139.615580 50.745334 -5.000000
v -139.615580 50.745334 3.000000
v -139.615580 54.745334 3.000000
v -125.029794 44.745334 -5.000000
v -125.029794 44.745334 3.000000
v 128.970206 -53.254666 -5.000000
v 128.970206 -53.254666 3.000000
v 143.798633 -55.254666 -5.000000
v 143.798633 -55.254666 3.000000
v 135.798633 -49.254666 -5.000000
v 135.798633 -49.254666 3.000000
v 79.798633 -27.254666 -5.000000
v 79.798633 -27.254666 3.000000
v -122.201367 50.745334 -5.000000
v -122.201367 50.745334 3.000000
vn -1.000000000 0.000000000 0.000000000
vn -0.380429281 -0.924810014 0.000000000
vn -0.359963421 -0.932966417 0.000000000
vn -0.133665758 -0.991026470 0.000000000
vn 0.600000000 0.800000000 0.000000000
vn 0.365652372 0.930751493 0.000000000
vn 0.360216621 0.932868686 0.000000000
vn 0.223867610 0.974619563 0.000000000
vn 0.000000000 0.000000000 1.000000000
vn 0.000000000 0.000000000 -1.000000000
vn 0.000000000 -0.000000000 1.000000000
vn 0.000000000 0.000000000 -1.000000000
vn 0.000000000 0.000000000 1.000000000
vn 0.000000000 0.000000000 -1.000000000
vn 0.000000000 0.000000000 1.000000000
vn 0.000000000 0.000000000 -1.000000000
vn 0.000000000 0.000000000 1.000000000
vn 0.000000000 0.000000000 -1.000000000
vn 0.000000000 0.000000000 1.000000000
vn 0.000000000 0.000000000 -1.000000000
f 1//1 2//1 3//1 4//1
f 2//2 5//2 6//2 3//2
f 5//3 7//3 8//3 6//3
f 7//4 9//4 10//4 8//4
f 9//5 11//5 12//5 10//5
f 11//6 13//6 14//6 12//6
f 13//7 15//7 16//7 14//7
f 15//8 1//8 4//8 16//8
f 16//9 4//9 3//9
f 2//10 1//10 15//10
f 6//11 16//11 3//11
f 2//12 15//12 5//12
f 14//13 16//13 6//13
f 5//14 15//14 13//14
f 8//15 14//15 6//15
f 5//16 13//16 7//16
f 12//17 14//17 8//17
f 7//18 13//18 11//18
f 10//19 12//19 8//19
f 7//20 11//20 9//20
