# Generated from CN441122_filled_aids.yaml
mtllib chart_obstacle_031.mtl
o chart_obstacle_031
usemtl chart_land
v 33.469536 59.655227 -5.000000
v -35.116250 -50.930559 -5.000000
v -35.116250 -50.930559 3.000000
v 33.469536 59.655227 3.000000
v -35.116250 -56.344773 -5.000000
v -35.116250 -56.344773 3.000000
v -29.116250 -53.758986 -5.000000
v -29.116250 -53.758986 3.000000
v 32.883750 48.241014 -5.000000
v 32.883750 48.241014 3.000000
v 36.883750 56.241014 -5.000000
v 36.883750 56.241014 3.000000
v 36.883750 59.655227 -5.000000
v 36.883750 59.655227 3.000000
vn -0.849824907 0.527065108 0.000000000
vn -1.000000000 0.000000000 0.000000000
vn 0.395775148 -0.918347446 0.000000000
vn 0.854521941 -0.519415298 0.000000000
vn 0.894427191 -0.447213595 0.000000000
vn 1.000000000 0.000000000 0.000000000
vn 0.000000000 1.000000000 0.000000000
vn 0.000000000 0.000000000 1.000000000
vn 0.000000000 0.000000000 -1.000000000
vn 0.000000000 0.000000000 1.000000000
vn 0.000000000 0.000000000 -1.000000000
vn 0.000000000 0.000000000 1.000000000
vn -0.000000000 0.000000000 -1.000000000
vn 0.000000000 0.000000000 1.000000000
vn 0.000000000 0.000000000 -1.000000000
vn 0.000000000 0.000000000 1.000000000
vn 0.000000000 0.000000000 -1.000000000
f 1//1 2//1 3//1 4//1
f 2//2 5//2 6//2 3//2
f 5//3 7//3 8//3 6//3
f 7//4 9//4 10//4 8//4
f 9//5 11//5 12//5 10//5
f 11//6 13//6 14//6 12//6
f 13//7 1//7 4//7 14//7
f 8//8 3//8 6//8
f 5//9 2//9 7//9
f 10//10 3//10 8//10
f 7//11 2//11 9//11
f 4//12 3//12 10//12
f 9//13 2//13 1//13
f 12//14 4//14 10//14
f 9//15 1//15 11//15
f 14//16 4//16 12//16
f 11//17 1//17 13//17
