# Generated from CN441122_filled_aids.yaml
mtllib chart_obstacle_010.mtl
o chart_obstacle_010
usemtl chart_land
v 1263.851174 414.135777 -5.000000
v 1032.436960 254.135777 -5.000000
v 1032.436960 254.135777 3.000000
v 1263.851174 414.135777 3.000000
v 1004.436960 224.135777 -5.000000
v 1004.436960 224.135777 3.000000
v 970.436960 206.135777 -5.000000
v 970.436960 206.135777 3.000000
v 780.436960 84.135777 -5.000000
v 780.436960 84.135777 3.000000
v 566.436960 -7.864223 -5.000000
v 566.436960 -7.864223 3.000000
v 456.436960 -41.864223 -5.000000
v 456.436960 -41.864223 3.000000
v 378.436960 -57.864223 -5.000000
v 378.436960 -57.864223 3.000000
v 216.436960 -79.864223 -5.000000
v 216.436960 -79.864223 3.000000
v 90.436960 -85.864223 -5.000000
v 90.436960 -85.864223 3.000000
v -385.563040 -101.864223 -5.000000
v -385.563040 -101.864223 3.000000
v -549.563040 -111.864223 -5.000000
v -549.563040 -111.864223 3.000000
v -661.563040 -107.864223 -5.000000
v -661.563040 -107.864223 3.000000
v -911.563040 -117.864223 -5.000000
v -911.563040 -117.864223 3.000000
v -1057.563040 -117.864223 -5.000000
v -1057.563040 -117.864223 3.000000
v -1217.563040 -123.864223 -5.000000
v -1217.563040 -123.864223 3.000000
v -1284.734613 -123.864223 -5.000000
v -1284.734613 -123.864223 3.000000
v -1338.734613 -115.864223 -5.000000
v -1338.734613 -115.864223 3.000000
v -1512.734613 -59.864223 -5.000000
v -1512.734613 -59.864223 3.000000
v -1526.734613 -55.864223 -5.000000
v -1526.734613 -55.864223 3.000000
v -1530.148826 -55.864223 -5.000000
v -1530.148826 -55.864223 3.000000
v -1530.148826 -59.278436 -5.000000
v -1530.148826 -59.278436 3.000000
v -1341.563040 -119.864223 -5.000000
v -1341.563040 -119.864223 3.000000
v -1287.563040 -127.864223 -5.000000
v -1287.563040 -127.864223 3.000000
v -1054.734613 -121.864223 -5.000000
v -1054.734613 -121.864223 3.000000
v -908.734613 -121.864223 -5.000000
v -908.734613 -121.864223 3.000000
v -658.734613 -111.864223 -5.000000
v -658.734613 -111.864223 3.000000
v -546.734613 -115.864223 -5.000000
v -546.734613 -115.864223 3.000000
v -382.734613 -105.864223 -5.000000
v -382.734613 -105.864223 3.000000
v 187.265387 -85.864223 -5.000000
v 187.265387 -85.864223 3.000000
v 381.265387 -61.864223 -5.000000
v 381.265387 -61.864223 3.000000
v 459.265387 -45.864223 -5.000000
v 459.265387 -45.864223 3.000000
v 569.265387 -11.864223 -5.000000
v 569.265387 -11.864223 3.000000
v 677.265387 32.135777 -5.000000
v 677.265387 32.135777 3.000000
v 787.265387 82.135777 -5.000000
v 787.265387 82.135777 3.000000
v 961.265387 194.135777 -5.000000
v 961.265387 194.135777 3.000000
v 1011.265387 222.135777 -5.000000
v 1011.265387 222.135777 3.000000
v 1033.265387 248.135777 -5.000000
v 1033.265387 248.135777 3.000000
v 1263.851174 408.135777 -5.000000
v 1263.851174 408.135777 3.000000
vn -0.568705671 0.822541099 0.000000000
vn -0.731055268 0.682318250 0.000000000
vn -0.467887720 0.883787916 0.000000000
vn -0.540309841 0.841466146 0.000000000
vn -0.394955288 0.918700343 0.000000000
vn -0.295306271 0.955402641 0.000000000
vn -0.200944144 0.979602701 0.000000000
vn -0.134567272 0.990904460 0.000000000
vn -0.047565149 0.998868138 0.000000000
vn -0.033594472 0.999435546 0.000000000
vn -0.060862570 0.998146155 0.000000000
vn 0.035691531 0.999362854 0.000000000
vn -0.039968038 0.999200959 0.000000000
vn 0.000000000 1.000000000 0.000000000
vn -0.037473661 0.999297616 0.000000000
vn 0.000000000 1.000000000 0.000000000
vn 0.146548661 0.989203462 0.000000000
vn 0.306363337 0.951914653 0.000000000
vn 0.274721128 0.961523948 0.000000000
vn 0.000000000 1.000000000 0.000000000
vn -1.000000000 0.000000000 0.000000000
vn -0.305866996 -0.952074252 0.000000000
vn -0.146548661 -0.989203462 0.000000000
vn 0.025761496 -0.999668118 0.000000000
vn 0.000000000 -1.000000000 0.000000000
vn 0.039968038 -0.999200959 0.000000000
vn -0.035691531 -0.999362854 0.000000000
vn 0.060862570 -0.998146155 0.000000000
vn 0.035066140 -0.999384994 0.000000000
vn 0.122775400 -0.992434482 0.000000000
vn 0.200944144 -0.979602701 0.000000000
vn 0.295306271 -0.955402641 0.000000000
vn 0.377296887 -0.926092360 0.000000000
vn 0.413802944 -0.910366477 0.000000000
vn 0.541245989 -0.840864305 0.000000000
vn 0.488603369 -0.872506016 0.000000000
vn 0.763386285 -0.645942241 0.000000000
vn 0.570085634 -0.821585279 0.000000000
vn 1.000000000 0.000000000 0.000000000
vn 0.000000000 0.000000000 1.000000000
vn 0.000000000 0.000000000 -1.000000000
vn 0.000000000 0.000000000 1.000000000
vn 0.000000000 0.000000000 -1.000000000
vn 0.000000000 0.000000000 1.000000000
vn 0.000000000 0.000000000 -1.000000000
vn 0.000000000 0.000000000 1.000000000
vn 0.000000000 0.000000000 -1.000000000
vn 0.000000000 0.000000000 1.000000000
vn 0.000000000 0.000000000 -1.000000000
vn 0.000000000 0.000000000 1.000000000
vn 0.000000000 0.000000000 -1.000000000
vn 0.000000000 0.000000000 1.000000000
vn 0.000000000 0.000000000 -1.000000000
vn 0.000000000 0.000000000 1.000000000
vn 0.000000000 0.000000000 -1.000000000
vn 0.000000000 0.000000000 1.000000000
vn 0.000000000 0.000000000 -1.000000000
vn 0.000000000 0.000000000 1.000000000
vn 0.000000000 0.000000000 -1.000000000
vn 0.000000000 0.000000000 1.000000000
vn 0.000000000 0.000000000 -1.000000000
vn 0.000000000 0.000000000 1.000000000
vn 0.000000000 0.000000000 -1.000000000
vn 0.000000000 0.000000000 1.000000000
vn 0.000000000 0.000000000 -1.000000000
vn 0.000000000 0.000000000 1.000000000
vn 0.000000000 0.000000000 -1.000000000
vn -0.000000000 0.000000000 1.000000000
vn -0.000000000 0.000000000 -1.000000000
vn 0.000000000 0.000000000 1.000000000
vn 0.000000000 0.000000000 -1.000000000
vn 0.000000000 0.000000000 1.000000000
vn 0.000000000 0.000000000 -1.000000000
vn 0.000000000 0.000000000 1.000000000
vn -0.000000000 0.000000000 -1.000000000
vn 0.000000000 0.000000000 1.000000000
vn 0.000000000 0.000000000 -1.000000000
vn 0.000000000 0.000000000 1.000000000
vn 0.000000000 0.000000000 -1.000000000
vn 0.000000000 0.000000000 1.000000000
vn 0.000000000 0.000000000 -1.000000000
vn 0.000000000 0.000000000 1.000000000
vn 0.000000000 0.000000000 -1.000000000
vn 0.000000000 0.000000000 1.000000000
vn 0.000000000 0.000000000 -1.000000000
vn 0.000000000 0.000000000 1.000000000
vn -0.000000000 0.000000000 -1.000000000
vn 0.000000000 0.000000000 1.000000000
vn 0.000000000 0.000000000 -1.000000000
vn 0.000000000 0.000000000 1.000000000
vn 0.000000000 0.000000000 -1.000000000
vn -0.000000000 0.000000000 1.000000000
vn 0.000000000 0.000000000 -1.000000000
vn 0.000000000 0.000000000 1.000000000
vn -0.000000000 0.000000000 -1.000000000
vn 0.000000000 0.000000000 1.000000000
vn 0.000000000 0.000000000 -1.000000000
vn -0.000000000 0.000000000 1.000000000
vn 0.000000000 0.000000000 -1.000000000
vn 0.000000000 0.000000000 1.000000000
vn -0.000000000 0.000000000 -1.000000000
vn 0.000000000 0.000000000 1.000000000
vn 0.000000000 0.000000000 -1.000000000
vn 0.000000000 0.000000000 1.000000000
vn 0.000000000 0.000000000 -1.000000000
vn 0.000000000 -0.000000000 1.000000000
vn 0.000000000 0.000000000 -1.000000000
vn 0.000000000 -0.000000000 1.000000000
vn 0.000000000 0.000000000 -1.000000000
vn 0.000000000 -0.000000000 1.000000000
vn 0.000000000 0.000000000 -1.000000000
vn 0.000000000 0.000000000 1.000000000
vn 0.000000000 0.000000000 -1.000000000
f 1//1 2//1 3//1 4//1
f 2//2 5//2 6//2 3//2
f 5//3 7//3 8//3 6//3
f 7//4 9//4 10//4 8//4
f 9//5 11//5 12//5 10//5
f 11//6 13//6 14//6 12//6
f 13//7 15//7 16//7 14//7
f 15//8 17//8 18//8 16//8
f 17//9 19//9 20//9 18//9
f 19//10 21//10 22//10 20//10
f 21//11 23//11 24//11 22//11
f 23//12 25//12 26//12 24//12
f 25//13 27//13 28//13 26//13
f 27//14 29//14 30//14 28//14
f 29//15 31//15 32//15 30//15
f 31//16 33//16 34//16 32//16
f 33//17 35//17 36//17 34//17
f 35//18 37//18 38//18 36//18
f 37//19 39//19 40//19 38//19
f 39//20 41//20 42//20 40//20
f 41//21 43//21 44//21 42//21
f 43//22 45//22 46//22 44//22
f 45//23 47//23 48//23 46//23
f 47//24 49//24 50//24 48//24
f 49//25 51//25 52//25 50//25
f 51//26 53//26 54//26 52//26
f 53//27 55//27 56//27 54//27
f 55//28 57//28 58//28 56//28
f 57//29 59//29 60//29 58//29
f 59//30 61//30 62//30 60//30
f 61//31 63//31 64//31 62//31
f 63//32 65//32 66//32 64//32
f 65//33 67//33 68//33 66//33
f 67//34 69//34 70//34 68//34
f 69//35 71//35 72//35 70//35
f 71//36 73//36 74//36 72//36
f 73//37 75//37 76//37 74//37
f 75//38 77//38 78//38 76//38
f 77//39 1//39 4//39 78//39
f 40//40 42//40 44//40
f 43//41 41//41 39//41
f 38//42 40//42 44//42
f 43//43 39//43 37//43
f 46//44 38//44 44//44
f 43//45 37//45 45//45
f 36//46 38//46 46//46
f 45//47 37//47 35//47
f 48//48 36//48 46//48
f 45//49 35//49 47//49
f 34//50 36//50 48//50
f 47//51 35//51 33//51
f 32//52 34//52 48//52
f 47//53 33//53 31//53
f 50//54 32//54 48//54
f 47//55 31//55 49//55
f 28//56 50//56 52//56
f 51//57 49//57 27//57
f 26//58 28//58 52//58
f 51//59 27//59 25//59
f 54//60 26//60 52//60
f 51//61 25//61 53//61
f 24//62 54//62 56//62
f 55//63 53//63 23//63
f 22//64 24//64 56//64
f 55//65 23//65 21//65
f 58//66 22//66 56//66
f 55//67 21//67 57//67
f 20//68 58//68 60//68
f 59//69 57//69 19//69
f 18//70 20//70 60//70
f 59//71 19//71 17//71
f 62//72 18//72 60//72
f 59//73 17//73 61//73
f 16//74 18//74 62//74
f 61//75 17//75 15//75
f 14//76 16//76 62//76
f 61//77 15//77 13//77
f 64//78 14//78 62//78
f 61//79 13//79 63//79
f 12//80 14//80 64//80
f 63//81 13//81 11//81
f 66//82 12//82 64//82
f 63//83 11//83 65//83
f 68//84 12//84 66//84
f 65//85 11//85 67//85
f 10//86 12//86 68//86
f 67//87 11//87 9//87
f 70//88 10//88 68//88
f 67//89 9//89 69//89
f 72//90 10//90 70//90
f 69//91 9//91 71//91
f 8//92 72//92 74//92
f 73//93 71//93 7//93
f 6//94 8//94 74//94
f 73//95 7//95 5//95
f 76//96 6//96 74//96
f 73//97 5//97 75//97
f 3//98 76//98 78//98
f 77//99 75//99 2//99
f 4//100 3//100 78//100
f 77//101 2//101 1//101
f 50//102 30//102 32//102
f 31//103 29//103 49//103
f 28//104 30//104 50//104
f 49//105 29//105 27//105
f 54//106 24//106 26//106
f 25//107 23//107 53//107
f 58//108 20//108 22//108
f 21//109 19//109 57//109
f 72//110 8//110 10//110
f 9//111 7//111 71//111
f 76//112 3//112 6//112
f 5//113 2//113 75//113
