# Generated from CN441122_filled_aids.yaml
mtllib chart_obstacle_025.mtl
o chart_obstacle_025
usemtl chart_land
v -207.087660 70.177098 -5.000000
v -207.087660 66.177098 -5.000000
v -207.087660 66.177098 3.000000
v -207.087660 70.177098 3.000000
v -202.501873 64.177098 -5.000000
v -202.501873 64.177098 3.000000
v 198.912340 -67.822902 -5.000000
v 198.912340 -67.822902 3.000000
v 196.326554 -61.822902 -5.000000
v 196.326554 -61.822902 3.000000
vn -1.000000000 0.000000000 0.000000000
vn -0.399764669 -0.916617810 0.000000000
vn -0.312381309 -0.949956798 0.000000000
vn 0.918347502 0.395775019 0.000000000
vn 0.310982732 0.950415562 0.000000000
vn 0.000000000 0.000000000 1.000000000
vn 0.000000000 0.000000000 -1.000000000
vn 0.000000000 0.000000000 1.000000000
vn 0.000000000 0.000000000 -1.000000000
vn 0.000000000 0.000000000 1.000000000
vn 0.000000000 0.000000000 -1.000000000
f 1//1 2//1 3//1 4//1
f 2//2 5//2 6//2 3//2
f 5//3 7//3 8//3 6//3
f 7//4 9//4 10//4 8//4
f 9//5 1//5 4//5 10//5
f 6//6 4//6 3//6
f 2//7 1//7 5//7
f 10//8 4//8 6//8
f 5//9 1//9 9//9
f 8//10 10//10 6//10
f 5//11 9//11 7//11
