# Generated from CN441122_filled_aids.yaml
mtllib chart_obstacle_038.mtl
o chart_obstacle_038
usemtl chart_land
v 3.000000 33.000000 -5.000000
v -7.000000 -21.585786 -5.000000
v -7.000000 -21.585786 3.000000
v 3.000000 33.000000 3.000000
v -7.000000 -33.000000 -5.000000
v -7.000000 -33.000000 3.000000
v -3.000000 -33.000000 -5.000000
v -3.000000 -33.000000 3.000000
v 7.000000 21.585786 -5.000000
v 7.000000 21.585786 3.000000
v 7.000000 33.000000 -5.000000
v 7.000000 33.000000 3.000000
vn -0.983630182 0.180198959 0.000000000
vn -1.000000000 0.000000000 0.000000000
vn 0.000000000 -1.000000000 0.000000000
vn 0.983630182 -0.180198959 0.000000000
vn 1.000000000 0.000000000 0.000000000
vn 0.000000000 1.000000000 0.000000000
vn 0.000000000 0.000000000 1.000000000
vn 0.000000000 0.000000000 -1.000000000
vn 0.000000000 0.000000000 1.000000000
vn 0.000000000 0.000000000 -1.000000000
vn 0.000000000 0.000000000 1.000000000
vn -0.000000000 0.000000000 -1.000000000
vn 0.000000000 0.000000000 1.000000000
vn 0.000000000 0.000000000 -1.000000000
f 1//1 2//1 3//1 4//1
f 2//2 5//2 6//2 3//2
f 5//3 7//3 8//3 6//3
f 7//4 9//4 10//4 8//4
f 9//5 11//5 12//5 10//5
f 11//6 1//6 4//6 12//6
f 8//7 3//7 6//7
f 5//8 2//8 7//8
f 10//9 3//9 8//9
f 7//10 2//10 9//10
f 4//11 3//11 10//11
f 9//12 2//12 1//12
f 12//13 4//13 10//13
f 9//14 1//14 11//14
