# Generated from CN441122_filled_aids.yaml
mtllib chart_obstacle_018.mtl
o chart_obstacle_018
usemtl chart_land
v 296.645588 192.505621 -5.000000
v 202.231375 -57.908593 -5.000000
v 202.231375 -57.908593 3.000000
v 296.645588 192.505621 3.000000
v -390.940198 -1.908593 -5.000000
v -390.940198 -1.908593 3.000000
v -410.354412 -1.908593 -5.000000
v -410.354412 -1.908593 3.000000
v -410.354412 -5.908593 -5.000000
v -410.354412 -5.908593 3.000000
v 207.645588 -61.908593 -5.000000
v 207.645588 -61.908593 3.000000
v 300.059802 189.091407 -5.000000
v 300.059802 189.091407 3.000000
vn -0.935702542 0.352789954 0.000000000
vn 0.093989833 0.995573157 0.000000000
vn 0.000000000 1.000000000 0.000000000
vn -1.000000000 0.000000000 0.000000000
vn -0.090245140 -0.995919582 0.000000000
vn 0.938415222 -0.345509582 0.000000000
vn 0.707106781 0.707106781 0.000000000
vn 0.000000000 0.000000000 1.000000000
vn 0.000000000 0.000000000 -1.000000000
vn 0.000000000 0.000000000 1.000000000
vn 0.000000000 0.000000000 -1.000000000
vn 0.000000000 0.000000000 1.000000000
vn 0.000000000 0.000000000 -1.000000000
vn 0.000000000 0.000000000 1.000000000
vn 0.000000000 0.000000000 -1.000000000
vn 0.000000000 0.000000000 1.000000000
vn -0.000000000 0.000000000 -1.000000000
f 1//1 2//1 3//1 4//1
f 2//2 5//2 6//2 3//2
f 5//3 7//3 8//3 6//3
f 7//4 9//4 10//4 8//4
f 9//5 11//5 12//5 10//5
f 11//6 13//6 14//6 12//6
f 13//7 1//7 4//7 14//7
f 6//8 8//8 10//8
f 9//9 7//9 5//9
f 12//10 6//10 10//10
f 9//11 5//11 11//11
f 3//12 6//12 12//12
f 11//13 5//13 2//13
f 14//14 3//14 12//14
f 11//15 2//15 13//15
f 4//16 3//16 14//16
f 13//17 2//17 1//17
