# Generated from CN441122_filled_aids.yaml
mtllib chart_obstacle_016.mtl
o chart_obstacle_016
usemtl chart_land
v -448.256600 164.123712 -5.000000
v -445.670814 158.123712 -5.000000
v -445.670814 158.123712 3.000000
v -448.256600 164.123712 3.000000
v -339.670814 122.123712 -5.000000
v -339.670814 122.123712 3.000000
v 330.329186 -129.876288 -5.000000
v 330.329186 -129.876288 3.000000
v 467.743400 -125.876288 -5.000000
v 467.743400 -125.876288 3.000000
v 467.743400 -121.876288 -5.000000
v 467.743400 -121.876288 3.000000
v 333.157613 -125.876288 -5.000000
v 333.157613 -125.876288 3.000000
v -298.842387 112.123712 -5.000000
v -298.842387 112.123712 3.000000
vn -0.918347502 -0.395775019 0.000000000
vn -0.321582426 -0.946881589 0.000000000
vn -0.352041842 -0.935984263 0.000000000
vn 0.029096745 -0.999576600 0.000000000
vn 1.000000000 0.000000000 0.000000000
vn -0.029707702 0.999558629 0.000000000
vn 0.352421306 0.935841452 0.000000000
vn 0.328688874 0.944438258 0.000000000
vn 0.000000000 0.000000000 1.000000000
vn 0.000000000 0.000000000 -1.000000000
vn 0.000000000 0.000000000 1.000000000
vn 0.000000000 0.000000000 -1.000000000
vn 0.000000000 0.000000000 1.000000000
vn 0.000000000 0.000000000 -1.000000000
vn 0.000000000 0.000000000 1.000000000
vn 0.000000000 0.000000000 -1.000000000
vn 0.000000000 0.000000000 1.000000000
vn 0.000000000 0.000000000 -1.000000000
vn -0.000000000 -0.000000000 1.000000000
vn 0.000000000 0.000000000 -1.000000000
f 1//1 2//1 3//1 4//1
f 2//2 5//2 6//2 3//2
f 5//3 7//3 8//3 6//3
f 7//4 9//4 10//4 8//4
f 9//5 11//5 12//5 10//5
f 11//6 13//6 14//6 12//6
f 13//7 15//7 16//7 14//7
f 15//8 1//8 4//8 16//8
f 6//9 4//9 3//9
f 2//10 1//10 5//10
f 16//11 6//11 8//11
f 7//12 5//12 15//12
f 14//13 16//13 8//13
f 7//14 15//14 13//14
f 10//15 14//15 8//15
f 7//16 13//16 9//16
f 12//17 14//17 10//17
f 9//18 13//18 11//18
f 6//19 16//19 4//19
f 1//20 15//20 5//20
