# Generated from CN441122_filled_aids.yaml
mtllib chart_obstacle_012.mtl
o chart_obstacle_012
usemtl chart_land
v 287.262873 343.257913 -5.000000
v -277.322914 -321.327874 -5.000000
v -277.322914 -321.327874 3.000000
v 287.262873 343.257913 3.000000
v -287.322914 -333.327874 -5.000000
v -287.322914 -333.327874 3.000000
v -287.322914 -338.742087 -5.000000
v -287.322914 -338.742087 3.000000
v -279.322914 -334.156301 -5.000000
v -279.322914 -334.156301 3.000000
v 282.677086 327.843699 -5.000000
v 282.677086 327.843699 3.000000
v 290.677086 337.843699 -5.000000
v 290.677086 337.843699 3.000000
v 290.677086 343.257913 -5.000000
v 290.677086 343.257913 3.000000
vn -0.762115921 0.647440594 0.000000000
vn -0.768221280 0.640184400 0.000000000
vn -1.000000000 0.000000000 0.000000000
vn 0.497312233 -0.867571636 0.000000000
vn 0.762336958 -0.647180317 0.000000000
vn 0.780868809 -0.624695048 0.000000000
vn 1.000000000 0.000000000 0.000000000
vn 0.000000000 1.000000000 0.000000000
vn 0.000000000 0.000000000 1.000000000
vn 0.000000000 0.000000000 -1.000000000
vn 0.000000000 0.000000000 1.000000000
vn 0.000000000 0.000000000 -1.000000000
vn 0.000000000 0.000000000 1.000000000
vn 0.000000000 0.000000000 -1.000000000
vn 0.000000000 0.000000000 1.000000000
vn -0.000000000 0.000000000 -1.000000000
vn 0.000000000 0.000000000 1.000000000
vn 0.000000000 0.000000000 -1.000000000
vn 0.000000000 0.000000000 1.000000000
vn 0.000000000 0.000000000 -1.000000000
f 1//1 2//1 3//1 4//1
f 2//2 5//2 6//2 3//2
f 5//3 7//3 8//3 6//3
f 7//4 9//4 10//4 8//4
f 9//5 11//5 12//5 10//5
f 11//6 13//6 14//6 12//6
f 13//7 15//7 16//7 14//7
f 15//8 1//8 4//8 16//8
f 10//9 6//9 8//9
f 7//10 5//10 9//10
f 3//11 6//11 10//11
f 9//12 5//12 2//12
f 12//13 3//13 10//13
f 9//14 2//14 11//14
f 4//15 3//15 12//15
f 11//16 2//16 1//16
f 14//17 4//17 12//17
f 11//18 1//18 13//18
f 16//19 4//19 14//19
f 13//20 1//20 15//20
