# Generated from CN441122_filled_aids.yaml
mtllib chart_obstacle_055.mtl
o chart_obstacle_055
usemtl chart_land
v -0.627766 6.590694 -5.000000
v -5.213552 4.590694 -5.000000
v -5.213552 4.590694 3.000000
v -0.627766 6.590694 3.000000
v -5.213552 -5.409306 -5.000000
v -5.213552 -5.409306 3.000000
v 4.200661 -5.409306 -5.000000
v 4.200661 -5.409306 3.000000
v 6.786448 2.004907 -5.000000
v 6.786448 2.004907 3.000000
vn -0.399764742 0.916617778 0.000000000
vn -1.000000000 0.000000000 0.000000000
vn 0.000000000 -1.000000000 0.000000000
vn 0.944222611 -0.329307851 0.000000000
vn 0.526025805 0.850468608 0.000000000
vn 0.000000000 0.000000000 1.000000000
vn 0.000000000 0.000000000 -1.000000000
vn 0.000000000 0.000000000 1.000000000
vn 0.000000000 0.000000000 -1.000000000
vn 0.000000000 0.000000000 1.000000000
vn 0.000000000 0.000000000 -1.000000000
f 1//1 2//1 3//1 4//1
f 2//2 5//2 6//2 3//2
f 5//3 7//3 8//3 6//3
f 7//4 9//4 10//4 8//4
f 9//5 1//5 4//5 10//5
f 8//6 3//6 6//6
f 5//7 2//7 7//7
f 4//8 3//8 8//8
f 7//9 2//9 1//9
f 10//10 4//10 8//10
f 7//11 1//11 9//11
