# Generated from CN441122_filled_aids.yaml
mtllib chart_obstacle_009.mtl
o chart_obstacle_009
usemtl chart_land
v 84.215326 75.309201 -5.000000
v 76.215326 71.309201 -5.000000
v 76.215326 71.309201 3.000000
v 84.215326 75.309201 3.000000
v -76.370461 67.309201 -5.000000
v -76.370461 67.309201 3.000000
v -70.370461 -94.105012 -5.000000
v -70.370461 -94.105012 3.000000
v -72.370461 -112.690799 -5.000000
v -72.370461 -112.690799 3.000000
v -62.956247 -110.690799 -5.000000
v -62.956247 -110.690799 3.000000
v 79.629539 -22.105012 -5.000000
v 79.629539 -22.105012 3.000000
v 95.629539 9.894988 -5.000000
v 95.629539 9.894988 3.000000
v 93.629539 75.309201 -5.000000
v 93.629539 75.309201 3.000000
vn -0.447213595 0.894427191 0.000000000
vn -0.026205758 0.999656570 0.000000000
vn -0.999309857 -0.037145794 0.000000000
vn -0.994259943 0.106991428 0.000000000
vn 0.207807013 -0.978169845 0.000000000
vn 0.527725190 -0.849415166 0.000000000
vn 0.894427191 -0.447213595 0.000000000
vn 0.999532931 0.030560115 0.000000000
vn 0.000000000 1.000000000 0.000000000
vn 0.000000000 0.000000000 1.000000000
vn 0.000000000 0.000000000 -1.000000000
vn 0.000000000 0.000000000 1.000000000
vn 0.000000000 0.000000000 -1.000000000
vn 0.000000000 0.000000000 1.000000000
vn -0.000000000 0.000000000 -1.000000000
vn 0.000000000 0.000000000 1.000000000
vn 0.000000000 0.000000000 -1.000000000
vn 0.000000000 0.000000000 1.000000000
vn 0.000000000 0.000000000 -1.000000000
vn 0.000000000 0.000000000 1.000000000
vn 0.000000000 0.000000000 -1.000000000
vn -0.000000000 0.000000000 1.000000000
vn -0.000000000 0.000000000 -1.000000000
f 1//1 2//1 3//1 4//1
f 2//2 5//2 6//2 3//2
f 5//3 7//3 8//3 6//3
f 7//4 9//4 10//4 8//4
f 9//5 11//5 12//5 10//5
f 11//6 13//6 14//6 12//6
f 13//7 15//7 16//7 14//7
f 15//8 17//8 18//8 16//8
f 17//9 1//9 4//9 18//9
f 12//10 8//10 10//10
f 9//11 7//11 11//11
f 14//12 8//12 12//12
f 11//13 7//13 13//13
f 6//14 8//14 14//14
f 13//15 7//15 5//15
f 3//16 6//16 14//16
f 13//17 5//17 2//17
f 16//18 3//18 14//18
f 13//19 2//19 15//19
f 18//20 3//20 16//20
f 15//21 2//21 17//21
f 4//22 3//22 18//22
f 17//23 2//23 1//23
