# Generated from CN441122_filled_aids.yaml
mtllib chart_obstacle_013.mtl
o chart_obstacle_013
usemtl chart_land
v 274.387312 336.195455 -5.000000
v -297.612688 -354.390332 -5.000000
v -297.612688 -354.390332 3.000000
v 274.387312 336.195455 3.000000
v -302.026902 -360.804545 -5.000000
v -302.026902 -360.804545 3.000000
v -298.612688 -364.218759 -5.000000
v -298.612688 -364.218759 3.000000
v 262.387312 310.781241 -5.000000
v 262.387312 310.781241 3.000000
v 278.387312 330.781241 -5.000000
v 278.387312 330.781241 3.000000
v 278.387312 336.195455 -5.000000
v 278.387312 336.195455 3.000000
vn -0.770130934 0.637885839 0.000000000
vn -0.823775472 0.566916194 0.000000000
vn -0.707106781 -0.707106781 0.000000000
vn 0.769061121 -0.639175243 0.000000000
vn 0.780868809 -0.624695048 0.000000000
vn 1.000000000 0.000000000 0.000000000
vn 0.000000000 1.000000000 0.000000000
vn 0.000000000 -0.000000000 1.000000000
vn 0.000000000 0.000000000 -1.000000000
vn 0.000000000 0.000000000 1.000000000
vn 0.000000000 0.000000000 -1.000000000
vn 0.000000000 0.000000000 1.000000000
vn -0.000000000 0.000000000 -1.000000000
vn 0.000000000 0.000000000 1.000000000
vn 0.000000000 0.000000000 -1.000000000
vn 0.000000000 0.000000000 1.000000000
vn 0.000000000 0.000000000 -1.000000000
f 1//1 2//1 3//1 4//1
f 2//2 5//2 6//2 3//2
f 5//3 7//3 8//3 6//3
f 7//4 9//4 10//4 8//4
f 9//5 11//5 12//5 10//5
f 11//6 13//6 14//6 12//6
f 13//7 1//7 4//7 14//7
f 8//8 3//8 6//8
f 5//9 2//9 7//9
f 10//10 3//10 8//10
f 7//11 2//11 9//11
f 4//12 3//12 10//12
f 9//13 2//13 1//13
f 12//14 4//14 10//14
f 9//15 1//15 11//15
f 14//16 4//16 12//16
f 11//17 1//17 13//17
