# Generated from CN441122_filled_aids.yaml
mtllib chart_obstacle_120.mtl
o chart_obstacle_120
usemtl chart_land
v -3.609476 1.804738 -5.000000
v 1.804738 -3.609476 -5.000000
v 1.804738 -3.609476 3.000000
v -3.609476 1.804738 3.000000
v 1.804738 1.804738 -5.000000
v 1.804738 1.804738 3.000000
vn -0.707106781 -0.707106781 0.000000000
vn 1.000000000 0.000000000 0.000000000
vn 0.000000000 1.000000000 0.000000000
vn 0.000000000 -0.000000000 1.000000000
vn 0.000000000 0.000000000 -1.000000000
f 1//1 2//1 3//1 4//1
f 2//2 5//2 6//2 3//2
f 5//3 1//3 4//3 6//3
f 3//4 6//4 4//4
f 1//5 5//5 2//5
