# Generated from CN441122_filled_aids.yaml
mtllib chart_obstacle_019.mtl
o chart_obstacle_019
usemtl chart_land
v -114.688969 422.154069 -5.000000
v -117.274755 412.739856 -5.000000
v -117.274755 412.739856 3.000000
v -114.688969 422.154069 3.000000
v -108.688969 410.154069 -5.000000
v -108.688969 410.154069 3.000000
v -105.274755 404.739856 -5.000000
v -105.274755 404.739856 3.000000
v -67.274755 174.739856 -5.000000
v -67.274755 174.739856 3.000000
v -7.274755 -149.260144 -5.000000
v -7.274755 -149.260144 3.000000
v 175.311031 -321.845931 -5.000000
v 175.311031 -321.845931 3.000000
v 194.725245 -335.845931 -5.000000
v 194.725245 -335.845931 3.000000
v 194.725245 -332.431717 -5.000000
v 194.725245 -332.431717 3.000000
v 166.139458 -303.845931 -5.000000
v 166.139458 -303.845931 3.000000
v 30.139458 -177.845931 -5.000000
v 30.139458 -177.845931 3.000000
v -5.274755 -140.431717 -5.000000
v -5.274755 -140.431717 3.000000
v -63.274755 177.568283 -5.000000
v -63.274755 177.568283 3.000000
v -101.274755 407.568283 -5.000000
v -101.274755 407.568283 3.000000
v -105.274755 419.568283 -5.000000
v -105.274755 419.568283 3.000000
vn -0.964287119 0.264859116 0.000000000
vn -0.288376110 -0.957517216 0.000000000
vn -0.845861755 -0.533402185 0.000000000
vn -0.986624817 -0.163007578 0.000000000
vn -0.983282005 -0.182089260 0.000000000
vn -0.686925686 -0.726727667 0.000000000
vn -0.584903457 -0.811102920 0.000000000
vn 1.000000000 0.000000000 0.000000000
vn 0.707106769 0.707106794 0.000000000
vn 0.679623118 0.733561461 0.000000000
vn 0.726251419 0.687429180 0.000000000
vn 0.983770764 0.179429888 0.000000000
vn 0.986624817 0.163007578 0.000000000
vn 0.948683298 0.316227766 0.000000000
vn 0.264859090 0.964287127 0.000000000
vn 0.000000000 0.000000000 1.000000000
vn 0.000000000 0.000000000 -1.000000000
vn 0.000000000 0.000000000 1.000000000
vn 0.000000000 0.000000000 -1.000000000
vn 0.000000000 0.000000000 1.000000000
vn 0.000000000 0.000000000 -1.000000000
vn 0.000000000 0.000000000 1.000000000
vn 0.000000000 0.000000000 -1.000000000
vn 0.000000000 0.000000000 1.000000000
vn 0.000000000 0.000000000 -1.000000000
vn 0.000000000 -0.000000000 1.000000000
vn 0.000000000 0.000000000 -1.000000000
vn -0.000000000 0.000000000 1.000000000
vn 0.000000000 -0.000000000 -1.000000000
vn 0.000000000 0.000000000 1.000000000
vn -0.000000000 0.000000000 -1.000000000
vn -0.000000000 0.000000000 1.000000000
vn 0.000000000 -0.000000000 -1.000000000
vn 0.000000000 0.000000000 1.000000000
vn 0.000000000 0.000000000 -1.000000000
vn 0.000000000 0.000000000 1.000000000
vn 0.000000000 0.000000000 -1.000000000
vn -0.000000000 0.000000000 1.000000000
vn 0.000000000 -0.000000000 -1.000000000
vn 0.000000000 0.000000000 1.000000000
vn -0.000000000 0.000000000 -1.000000000
f 1//1 2//1 3//1 4//1
f 2//2 5//2 6//2 3//2
f 5//3 7//3 8//3 6//3
f 7//4 9//4 10//4 8//4
f 9//5 11//5 12//5 10//5
f 11//6 13//6 14//6 12//6
f 13//7 15//7 16//7 14//7
f 15//8 17//8 18//8 16//8
f 17//9 19//9 20//9 18//9
f 19//10 21//10 22//10 20//10
f 21//11 23//11 24//11 22//11
f 23//12 25//12 26//12 24//12
f 25//13 27//13 28//13 26//13
f 27//14 29//14 30//14 28//14
f 29//15 1//15 4//15 30//15
f 24//16 10//16 12//16
f 11//17 9//17 23//17
f 22//18 24//18 12//18
f 11//19 23//19 21//19
f 14//20 22//20 12//20
f 11//21 21//21 13//21
f 20//22 22//22 14//22
f 13//23 21//23 19//23
f 18//24 20//24 14//24
f 13//25 19//25 17//25
f 16//26 18//26 14//26
f 13//27 17//27 15//27
f 6//28 28//28 30//28
f 29//29 27//29 5//29
f 4//30 6//30 30//30
f 29//31 5//31 1//31
f 3//32 6//32 4//32
f 1//33 5//33 2//33
f 26//34 8//34 10//34
f 9//35 7//35 25//35
f 24//36 26//36 10//36
f 9//37 25//37 23//37
f 8//38 26//38 28//38
f 27//39 25//39 7//39
f 6//40 8//40 28//40
f 27//41 7//41 5//41
