# Generated from CN441122_filled_aids.yaml
mtllib chart_obstacle_024.mtl
o chart_obstacle_024
usemtl chart_land
v -173.429892 65.843587 -5.000000
v -170.844105 59.843587 -5.000000
v -170.844105 59.843587 3.000000
v -173.429892 65.843587 3.000000
v -160.844105 55.843587 -5.000000
v -160.844105 55.843587 3.000000
v 139.155895 -54.156413 -5.000000
v 139.155895 -54.156413 3.000000
v 162.570108 -60.156413 -5.000000
v 162.570108 -60.156413 3.000000
v 162.570108 -56.156413 -5.000000
v 162.570108 -56.156413 3.000000
v 157.984322 -54.156413 -5.000000
v 157.984322 -54.156413 3.000000
vn -0.918347446 -0.395775148 0.000000000
vn -0.371390676 -0.928476691 0.000000000
vn -0.344254649 -0.938876316 0.000000000
vn -0.248233873 -0.968700131 0.000000000
vn 1.000000000 0.000000000 0.000000000
vn 0.399764742 0.916617778 0.000000000
vn 0.340454123 0.940261129 0.000000000
vn 0.000000000 0.000000000 1.000000000
vn 0.000000000 0.000000000 -1.000000000
vn 0.000000000 0.000000000 1.000000000
vn 0.000000000 0.000000000 -1.000000000
vn 0.000000000 -0.000000000 1.000000000
vn 0.000000000 0.000000000 -1.000000000
vn 0.000000000 0.000000000 1.000000000
vn 0.000000000 0.000000000 -1.000000000
vn 0.000000000 0.000000000 1.000000000
vn 0.000000000 0.000000000 -1.000000000
f 1//1 2//1 3//1 4//1
f 2//2 5//2 6//2 3//2
f 5//3 7//3 8//3 6//3
f 7//4 9//4 10//4 8//4
f 9//5 11//5 12//5 10//5
f 11//6 13//6 14//6 12//6
f 13//7 1//7 4//7 14//7
f 6//8 4//8 3//8
f 2//9 1//9 5//9
f 14//10 4//10 6//10
f 5//11 1//11 13//11
f 8//12 14//12 6//12
f 5//13 13//13 7//13
f 10//14 14//14 8//14
f 7//15 13//15 9//15
f 12//16 14//16 10//16
f 9//17 13//17 11//17
