# Generated from CN441122_filled_aids.yaml
mtllib chart_obstacle_034.mtl
o chart_obstacle_034
usemtl chart_land
v 4.046503 17.058776 -5.000000
v -10.539284 5.058776 -5.000000
v -10.539284 5.058776 3.000000
v 4.046503 17.058776 3.000000
v -26.539284 -23.527010 -5.000000
v -26.539284 -23.527010 3.000000
v -26.539284 -28.941224 -5.000000
v -26.539284 -28.941224 3.000000
v -22.539284 -28.941224 -5.000000
v -22.539284 -28.941224 3.000000
v -8.539284 -2.355437 -5.000000
v -8.539284 -2.355437 3.000000
v 8.460716 12.644563 -5.000000
v 8.460716 12.644563 3.000000
v 39.460716 -0.941224 -5.000000
v 39.460716 -0.941224 3.000000
v 36.874930 5.058776 -5.000000
v 36.874930 5.058776 3.000000
v 10.874930 17.058776 -5.000000
v 10.874930 17.058776 3.000000
vn -0.635334132 0.772237360 0.000000000
vn -0.872610627 0.488416517 0.000000000
vn -1.000000000 0.000000000 0.000000000
vn 0.000000000 -1.000000000 0.000000000
vn 0.884815591 -0.465941380 0.000000000
vn 0.661621637 -0.749837855 0.000000000
vn -0.401396241 -0.915904502 0.000000000
vn 0.918347502 0.395775019 0.000000000
vn 0.419058177 0.907959385 0.000000000
vn 0.000000000 1.000000000 0.000000000
vn 0.000000000 0.000000000 1.000000000
vn 0.000000000 0.000000000 -1.000000000
vn 0.000000000 0.000000000 1.000000000
vn 0.000000000 0.000000000 -1.000000000
vn 0.000000000 0.000000000 1.000000000
vn 0.000000000 0.000000000 -1.000000000
vn 0.000000000 0.000000000 1.000000000
vn 0.000000000 0.000000000 -1.000000000
vn -0.000000000 0.000000000 1.000000000
vn -0.000000000 0.000000000 -1.000000000
vn 0.000000000 0.000000000 1.000000000
vn 0.000000000 -0.000000000 -1.000000000
vn 0.000000000 -0.000000000 1.000000000
vn 0.000000000 0.000000000 -1.000000000
vn 0.000000000 0.000000000 1.000000000
vn 0.000000000 -0.000000000 -1.000000000
f 1//1 2//1 3//1 4//1
f 2//2 5//2 6//2 3//2
f 5//3 7//3 8//3 6//3
f 7//4 9//4 10//4 8//4
f 9//5 11//5 12//5 10//5
f 11//6 13//6 14//6 12//6
f 13//7 15//7 16//7 14//7
f 15//8 17//8 18//8 16//8
f 17//9 19//9 20//9 18//9
f 19//10 1//10 4//10 20//10
f 10//11 6//11 8//11
f 7//12 5//12 9//12
f 12//13 6//13 10//13
f 9//14 5//14 11//14
f 18//15 14//15 16//15
f 15//16 13//16 17//16
f 20//17 14//17 18//17
f 17//18 13//18 19//18
f 4//19 14//19 20//19
f 19//20 13//20 1//20
f 3//21 14//21 4//21
f 1//22 13//22 2//22
f 12//23 14//23 3//23
f 2//24 13//24 11//24
f 6//25 12//25 3//25
f 2//26 11//26 5//26
