# Generated from CN441122_filled_aids.yaml
mtllib chart_obstacle_005.mtl
o chart_obstacle_005
usemtl chart_land
v -345.485165 596.584627 -5.000000
v -372.070951 551.170414 -5.000000
v -372.070951 551.170414 3.000000
v -345.485165 596.584627 3.000000
v -223.485165 460.584627 -5.000000
v -223.485165 460.584627 3.000000
v -115.485165 388.584627 -5.000000
v -115.485165 388.584627 3.000000
v -46.070951 321.170414 -5.000000
v -46.070951 321.170414 3.000000
v 1.929049 255.170414 -5.000000
v 1.929049 255.170414 3.000000
v 43.929049 157.170414 -5.000000
v 43.929049 157.170414 3.000000
v 59.929049 67.170414 -5.000000
v 59.929049 67.170414 3.000000
v 45.929049 -711.415373 -5.000000
v 45.929049 -711.415373 3.000000
v 101.929049 -713.415373 -5.000000
v 101.929049 -713.415373 3.000000
v 115.929049 -98.829586 -5.000000
v 115.929049 -98.829586 3.000000
v 115.929049 57.998841 -5.000000
v 115.929049 57.998841 3.000000
v 107.929049 111.998841 -5.000000
v 107.929049 111.998841 3.000000
v 91.929049 181.998841 -5.000000
v 91.929049 181.998841 3.000000
v 59.929049 259.998841 -5.000000
v 59.929049 259.998841 3.000000
v 17.929049 327.998841 -5.000000
v 17.929049 327.998841 3.000000
v -62.656738 418.584627 -5.000000
v -62.656738 418.584627 3.000000
v -146.656738 484.584627 -5.000000
v -146.656738 484.584627 3.000000
v -340.656738 596.584627 -5.000000
v -340.656738 596.584627 3.000000
vn -0.862999089 0.505205476 0.000000000
vn -0.520543323 -0.853835258 0.000000000
vn -0.554700196 -0.832050294 0.000000000
vn -0.696696684 -0.717365828 0.000000000
vn -0.808736084 -0.588171698 0.000000000
vn -0.919145030 -0.393919299 0.000000000
vn -0.984562508 -0.175033335 0.000000000
vn -0.999838375 0.017978414 0.000000000
vn -0.035691531 -0.999362854 0.000000000
vn 0.999740647 -0.022773662 0.000000000
vn 1.000000000 0.000000000 0.000000000
vn 0.989203462 0.146548661 0.000000000
vn 0.974858507 0.222824802 0.000000000
vn 0.925168618 0.379556356 0.000000000
vn 0.850797997 0.525492881 0.000000000
vn 0.747142689 0.664663677 0.000000000
vn 0.617821552 0.786318339 0.000000000
vn 0.499980071 0.866036909 0.000000000
vn 0.000000000 1.000000000 0.000000000
vn 0.000000000 0.000000000 1.000000000
vn 0.000000000 0.000000000 -1.000000000
vn 0.000000000 -0.000000000 1.000000000
vn 0.000000000 0.000000000 -1.000000000
vn 0.000000000 0.000000000 1.000000000
vn 0.000000000 0.000000000 -1.000000000
vn 0.000000000 -0.000000000 1.000000000
vn 0.000000000 0.000000000 -1.000000000
vn -0.000000000 0.000000000 1.000000000
vn 0.000000000 -0.000000000 -1.000000000
vn 0.000000000 0.000000000 1.000000000
vn -0.000000000 0.000000000 -1.000000000
vn -0.000000000 0.000000000 1.000000000
vn 0.000000000 -0.000000000 -1.000000000
vn 0.000000000 0.000000000 1.000000000
vn -0.000000000 0.000000000 -1.000000000
vn -0.000000000 0.000000000 1.000000000
vn 0.000000000 -0.000000000 -1.000000000
vn -0.000000000 0.000000000 1.000000000
vn -0.000000000 0.000000000 -1.000000000
vn 0.000000000 0.000000000 1.000000000
vn 0.000000000 0.000000000 -1.000000000
vn 0.000000000 0.000000000 1.000000000
vn 0.000000000 0.000000000 -1.000000000
vn 0.000000000 0.000000000 1.000000000
vn 0.000000000 0.000000000 -1.000000000
vn 0.000000000 0.000000000 1.000000000
vn -0.000000000 0.000000000 -1.000000000
vn -0.000000000 0.000000000 1.000000000
vn 0.000000000 0.000000000 -1.000000000
vn 0.000000000 0.000000000 1.000000000
vn -0.000000000 0.000000000 -1.000000000
vn -0.000000000 0.000000000 1.000000000
vn 0.000000000 0.000000000 -1.000000000
f 1//1 2//1 3//1 4//1
f 2//2 5//2 6//2 3//2
f 5//3 7//3 8//3 6//3
f 7//4 9//4 10//4 8//4
f 9//5 11//5 12//5 10//5
f 11//6 13//6 14//6 12//6
f 13//7 15//7 16//7 14//7
f 15//8 17//8 18//8 16//8
f 17//9 19//9 20//9 18//9
f 19//10 21//10 22//10 20//10
f 21//11 23//11 24//11 22//11
f 23//12 25//12 26//12 24//12
f 25//13 27//13 28//13 26//13
f 27//14 29//14 30//14 28//14
f 29//15 31//15 32//15 30//15
f 31//16 33//16 34//16 32//16
f 33//17 35//17 36//17 34//17
f 35//18 37//18 38//18 36//18
f 37//19 1//19 4//19 38//19
f 22//20 16//20 18//20
f 17//21 15//21 21//21
f 20//22 22//22 18//22
f 17//23 21//23 19//23
f 24//24 16//24 22//24
f 21//25 15//25 23//25
f 10//26 32//26 34//26
f 33//27 31//27 9//27
f 8//28 10//28 34//28
f 33//29 9//29 7//29
f 36//30 8//30 34//30
f 33//31 7//31 35//31
f 6//32 8//32 36//32
f 35//33 7//33 5//33
f 38//34 6//34 36//34
f 35//35 5//35 37//35
f 3//36 6//36 38//36
f 37//37 5//37 2//37
f 4//38 3//38 38//38
f 37//39 2//39 1//39
f 26//40 14//40 16//40
f 15//41 13//41 25//41
f 24//42 26//42 16//42
f 15//43 25//43 23//43
f 28//44 14//44 26//44
f 25//45 13//45 27//45
f 30//46 14//46 28//46
f 27//47 13//47 29//47
f 12//48 14//48 30//48
f 29//49 13//49 11//49
f 32//50 12//50 30//50
f 29//51 11//51 31//51
f 10//52 12//52 32//52
f 31//53 11//53 9//53
