# Generated from CN441122_filled_aids.yaml
mtllib chart_obstacle_036.mtl
o chart_obstacle_036
usemtl chart_land
v -43.269031 17.379247 -5.000000
v -43.269031 13.379247 -5.000000
v -43.269031 13.379247 3.000000
v -43.269031 17.379247 3.000000
v -38.683245 11.379247 -5.000000
v -38.683245 11.379247 3.000000
v 38.730969 -16.620753 -5.000000
v 38.730969 -16.620753 3.000000
v 38.730969 -10.620753 -5.000000
v 38.730969 -10.620753 3.000000
vn -1.000000000 0.000000000 0.000000000
vn -0.399764742 -0.916617778 0.000000000
vn -0.340126565 -0.940379668 0.000000000
vn 1.000000000 0.000000000 0.000000000
vn 0.323143853 0.946349856 0.000000000
vn 0.000000000 0.000000000 1.000000000
vn 0.000000000 0.000000000 -1.000000000
vn 0.000000000 0.000000000 1.000000000
vn 0.000000000 0.000000000 -1.000000000
vn 0.000000000 -0.000000000 1.000000000
vn 0.000000000 0.000000000 -1.000000000
f 1//1 2//1 3//1 4//1
f 2//2 5//2 6//2 3//2
f 5//3 7//3 8//3 6//3
f 7//4 9//4 10//4 8//4
f 9//5 1//5 4//5 10//5
f 6//6 4//6 3//6
f 2//7 1//7 5//7
f 10//8 4//8 6//8
f 5//9 1//9 9//9
f 8//10 10//10 6//10
f 5//11 9//11 7//11
