# Generated from CN441122_filled_aids.yaml
mtllib chart_obstacle_028.mtl
o chart_obstacle_028
usemtl chart_land
v 76.320560 71.524239 -5.000000
v 61.734774 42.938453 -5.000000
v 61.734774 42.938453 3.000000
v 76.320560 71.524239 3.000000
v 44.320560 25.524239 -5.000000
v 44.320560 25.524239 3.000000
v -7.679440 -2.475761 -5.000000
v -7.679440 -2.475761 3.000000
v -97.679440 -60.475761 -5.000000
v -97.679440 -60.475761 3.000000
v -88.851013 -60.475761 -5.000000
v -88.851013 -60.475761 3.000000
v -0.851013 -4.475761 -5.000000
v -0.851013 -4.475761 3.000000
v 47.148987 21.524239 -5.000000
v 47.148987 21.524239 3.000000
v 65.734774 38.110026 -5.000000
v 65.734774 38.110026 3.000000
v 79.734774 68.110026 -5.000000
v 79.734774 68.110026 3.000000
v 79.734774 71.524239 -5.000000
v 79.734774 71.524239 3.000000
vn -0.890746715 0.454500043 0.000000000
vn -0.707106781 0.707106781 0.000000000
vn -0.474099823 0.880471100 0.000000000
vn -0.541701334 0.840571035 0.000000000
vn 0.000000000 -1.000000000 0.000000000
vn 0.536875492 -0.843661488 0.000000000
vn 0.476283149 -0.879291967 0.000000000
vn 0.665822181 -0.746110464 0.000000000
vn 0.906183140 -0.422885465 0.000000000
vn 1.000000000 0.000000000 0.000000000
vn 0.000000000 1.000000000 0.000000000
vn 0.000000000 -0.000000000 1.000000000
vn 0.000000000 0.000000000 -1.000000000
vn 0.000000000 0.000000000 1.000000000
vn 0.000000000 0.000000000 -1.000000000
vn 0.000000000 0.000000000 1.000000000
vn -0.000000000 0.000000000 -1.000000000
vn 0.000000000 0.000000000 1.000000000
vn 0.000000000 0.000000000 -1.000000000
vn 0.000000000 0.000000000 1.000000000
vn -0.000000000 0.000000000 -1.000000000
vn 0.000000000 0.000000000 1.000000000
vn 0.000000000 0.000000000 -1.000000000
vn 0.000000000 0.000000000 1.000000000
vn -0.000000000 0.000000000 -1.000000000
vn 0.000000000 0.000000000 1.000000000
vn 0.000000000 0.000000000 -1.000000000
vn 0.000000000 -0.000000000 1.000000000
vn 0.000000000 0.000000000 -1.000000000
f 1//1 2//1 3//1 4//1
f 2//2 5//2 6//2 3//2
f 5//3 7//3 8//3 6//3
f 7//4 9//4 10//4 8//4
f 9//5 11//5 12//5 10//5
f 11//6 13//6 14//6 12//6
f 13//7 15//7 16//7 14//7
f 15//8 17//8 18//8 16//8
f 17//9 19//9 20//9 18//9
f 19//10 21//10 22//10 20//10
f 21//11 1//11 4//11 22//11
f 12//12 8//12 10//12
f 9//13 7//13 11//13
f 14//14 8//14 12//14
f 11//15 7//15 13//15
f 6//16 14//16 16//16
f 15//17 13//17 5//17
f 18//18 6//18 16//18
f 15//19 5//19 17//19
f 3//20 6//20 18//20
f 17//21 5//21 2//21
f 20//22 3//22 18//22
f 17//23 2//23 19//23
f 4//24 3//24 20//24
f 19//25 2//25 1//25
f 22//26 4//26 20//26
f 19//27 1//27 21//27
f 14//28 6//28 8//28
f 7//29 5//29 13//29
