# Generated from CN441122_filled_aids.yaml
mtllib chart_obstacle_039.mtl
o chart_obstacle_039
usemtl chart_land
v -31.377367 18.131914 -5.000000
v -31.377367 14.131914 -5.000000
v -31.377367 14.131914 3.000000
v -31.377367 18.131914 3.000000
v -4.791580 6.131914 -5.000000
v -4.791580 6.131914 3.000000
v 14.622633 -19.282299 -5.000000
v 14.622633 -19.282299 3.000000
v 20.622633 -21.868086 -5.000000
v 20.622633 -21.868086 3.000000
v 20.622633 -16.453872 -5.000000
v 20.622633 -16.453872 3.000000
v 2.036847 8.131914 -5.000000
v 2.036847 8.131914 3.000000
vn -1.000000000 0.000000000 0.000000000
vn -0.288149578 -0.957585412 0.000000000
vn -0.794662288 -0.607051767 0.000000000
vn -0.395775148 -0.918347446 0.000000000
vn 1.000000000 0.000000000 0.000000000
vn 0.797713442 0.603036703 0.000000000
vn 0.286709585 0.958017544 0.000000000
vn 0.000000000 0.000000000 1.000000000
vn 0.000000000 0.000000000 -1.000000000
vn 0.000000000 0.000000000 1.000000000
vn 0.000000000 0.000000000 -1.000000000
vn 0.000000000 0.000000000 1.000000000
vn 0.000000000 0.000000000 -1.000000000
vn 0.000000000 -0.000000000 1.000000000
vn 0.000000000 0.000000000 -1.000000000
vn 0.000000000 0.000000000 1.000000000
vn -0.000000000 0.000000000 -1.000000000
f 1//1 2//1 3//1 4//1
f 2//2 5//2 6//2 3//2
f 5//3 7//3 8//3 6//3
f 7//4 9//4 10//4 8//4
f 9//5 11//5 12//5 10//5
f 11//6 13//6 14//6 12//6
f 13//7 1//7 4//7 14//7
f 6//8 4//8 3//8
f 2//9 1//9 5//9
f 14//10 6//10 8//10
f 7//11 5//11 13//11
f 12//12 14//12 8//12
f 7//13 13//13 11//13
f 10//14 12//14 8//14
f 7//15 11//15 9//15
f 4//16 6//16 14//16
f 13//17 5//17 1//17
