# Generated from CN441122_filled_aids.yaml
mtllib chart_obstacle_046.mtl
o chart_obstacle_046
usemtl chart_land
v -1.866920 6.601846 -5.000000
v -6.452707 2.016060 -5.000000
v -6.452707 2.016060 3.000000
v -1.866920 6.601846 3.000000
v -4.452707 -5.398154 -5.000000
v -4.452707 -5.398154 3.000000
v 5.547293 -5.398154 -5.000000
v 5.547293 -5.398154 3.000000
v 5.547293 4.016060 -5.000000
v 5.547293 4.016060 3.000000
vn -0.707106704 0.707106858 0.000000000
vn -0.965489282 -0.260442788 0.000000000
vn 0.000000000 -1.000000000 0.000000000
vn 1.000000000 0.000000000 0.000000000
vn 0.329307738 0.944222651 0.000000000
vn 0.000000000 0.000000000 1.000000000
vn 0.000000000 0.000000000 -1.000000000
vn 0.000000000 -0.000000000 1.000000000
vn 0.000000000 0.000000000 -1.000000000
vn 0.000000000 0.000000000 1.000000000
vn -0.000000000 0.000000000 -1.000000000
f 1//1 2//1 3//1 4//1
f 2//2 5//2 6//2 3//2
f 5//3 7//3 8//3 6//3
f 7//4 9//4 10//4 8//4
f 9//5 1//5 4//5 10//5
f 10//6 3//6 6//6
f 5//7 2//7 9//7
f 8//8 10//8 6//8
f 5//9 9//9 7//9
f 4//10 3//10 10//10
f 9//11 2//11 1//11
