# Generated from CN441122_filled_aids.yaml
mtllib chart_obstacle_090.mtl
o chart_obstacle_090
usemtl chart_land
v -3.403119 6.145777 -5.000000
v -5.988905 -1.268436 -5.000000
v -5.988905 -1.268436 3.000000
v -3.403119 6.145777 3.000000
v -1.403119 -5.854223 -5.000000
v -1.403119 -5.854223 3.000000
v 3.425308 -5.854223 -5.000000
v 3.425308 -5.854223 3.000000
v 6.011095 3.559991 -5.000000
v 6.011095 3.559991 3.000000
vn -0.944222651 0.329307738 0.000000000
vn -0.707106858 -0.707106704 0.000000000
vn 0.000000000 -1.000000000 0.000000000
vn 0.964287100 -0.264859185 0.000000000
vn 0.264859090 0.964287127 0.000000000
vn 0.000000000 0.000000000 1.000000000
vn 0.000000000 0.000000000 -1.000000000
vn 0.000000000 -0.000000000 1.000000000
vn 0.000000000 0.000000000 -1.000000000
vn 0.000000000 -0.000000000 1.000000000
vn 0.000000000 0.000000000 -1.000000000
f 1//1 2//1 3//1 4//1
f 2//2 5//2 6//2 3//2
f 5//3 7//3 8//3 6//3
f 7//4 9//4 10//4 8//4
f 9//5 1//5 4//5 10//5
f 10//6 4//6 3//6
f 2//7 1//7 9//7
f 6//8 10//8 3//8
f 2//9 9//9 5//9
f 8//10 10//10 6//10
f 5//11 9//11 7//11
