# Generated from CN441122_filled_aids.yaml
mtllib chart_obstacle_023.mtl
o chart_obstacle_023
usemtl chart_land
v 46.038148 90.788264 -5.000000
v 44.038148 84.202477 -5.000000
v 44.038148 84.202477 3.000000
v 46.038148 90.788264 3.000000
v 34.623935 74.788264 -5.000000
v 34.623935 74.788264 3.000000
v 16.623935 64.788264 -5.000000
v 16.623935 64.788264 3.000000
v 11.623935 57.788264 -5.000000
v 11.623935 57.788264 3.000000
v 16.038148 52.202477 -5.000000
v 16.038148 52.202477 3.000000
v 6.038148 12.202477 -5.000000
v 6.038148 12.202477 3.000000
v 2.623935 8.788264 -5.000000
v 2.623935 8.788264 3.000000
v -3.961852 8.788264 -5.000000
v -3.961852 8.788264 3.000000
v -23.376065 -23.211736 -5.000000
v -23.376065 -23.211736 3.000000
v -31.961852 -23.211736 -5.000000
v -31.961852 -23.211736 3.000000
v -31.961852 -42.625950 -5.000000
v -31.961852 -42.625950 3.000000
v -27.961852 -46.625950 -5.000000
v -27.961852 -46.625950 3.000000
v -31.961852 -51.797523 -5.000000
v -31.961852 -51.797523 3.000000
v -31.961852 -67.211736 -5.000000
v -31.961852 -67.211736 3.000000
v -26.547638 -67.211736 -5.000000
v -26.547638 -67.211736 3.000000
v -21.547638 -62.211736 -5.000000
v -21.547638 -62.211736 3.000000
v -25.961852 -55.797523 -5.000000
v -25.961852 -55.797523 3.000000
v -23.961852 -48.625950 -5.000000
v -23.961852 -48.625950 3.000000
v -16.961852 -51.625950 -5.000000
v -16.961852 -51.625950 3.000000
v -13.961852 -48.625950 -5.000000
v -13.961852 -48.625950 3.000000
v 14.038148 -2.625950 -5.000000
v 14.038148 -2.625950 3.000000
v 14.038148 2.788264 -5.000000
v 14.038148 2.788264 3.000000
v 8.038148 7.374050 -5.000000
v 8.038148 7.374050 3.000000
v 11.452362 12.788264 -5.000000
v 11.452362 12.788264 3.000000
v 17.452362 10.788264 -5.000000
v 17.452362 10.788264 3.000000
v 22.038148 15.374050 -5.000000
v 22.038148 15.374050 3.000000
v 22.038148 20.202477 -5.000000
v 22.038148 20.202477 3.000000
v 16.038148 24.202477 -5.000000
v 16.038148 24.202477 3.000000
v 18.038148 47.374050 -5.000000
v 18.038148 47.374050 3.000000
v 33.452362 68.788264 -5.000000
v 33.452362 68.788264 3.000000
v 56.038148 83.374050 -5.000000
v 56.038148 83.374050 3.000000
v 51.452362 90.788264 -5.000000
v 51.452362 90.788264 3.000000
vn -0.956850557 0.290580475 0.000000000
vn -0.707106781 0.707106781 0.000000000
vn -0.485642931 0.874157276 0.000000000
vn -0.813733471 0.581238194 0.000000000
vn -0.784583385 -0.620023316 0.000000000
vn -0.970142500 0.242535625 0.000000000
vn -0.707106781 0.707106781 0.000000000
vn 0.000000000 1.000000000 0.000000000
vn -0.854957649 0.518697810 0.000000000
vn 0.000000000 1.000000000 0.000000000
vn -1.000000000 0.000000000 0.000000000
vn -0.707106781 -0.707106781 0.000000000
vn -0.791004855 0.611809873 0.000000000
vn -1.000000000 0.000000000 0.000000000
vn 0.000000000 -1.000000000 0.000000000
vn 0.707106781 -0.707106781 0.000000000
vn 0.823775472 0.566916194 0.000000000
vn 0.963243900 -0.268628347 0.000000000
vn -0.393919299 -0.919145030 0.000000000
vn 0.707106781 -0.707106781 0.000000000
vn 0.854198556 -0.519946947 0.000000000
vn 1.000000000 0.000000000 0.000000000
vn 0.607245432 0.794514308 0.000000000
vn 0.845861800 -0.533402115 0.000000000
vn -0.316227766 -0.948683298 0.000000000
vn 0.707106781 -0.707106781 0.000000000
vn 1.000000000 0.000000000 0.000000000
vn 0.554700196 0.832050294 0.000000000
vn 0.996295747 -0.085992932 0.000000000
vn 0.811606583 -0.584204377 0.000000000
vn 0.542502664 -0.840054082 0.000000000
vn 0.850468659 0.526025722 0.000000000
vn 0.000000000 1.000000000 0.000000000
vn 0.000000000 0.000000000 1.000000000
vn 0.000000000 0.000000000 -1.000000000
vn 0.000000000 -0.000000000 1.000000000
vn 0.000000000 0.000000000 -1.000000000
vn 0.000000000 0.000000000 1.000000000
vn 0.000000000 0.000000000 -1.000000000
vn -0.000000000 0.000000000 1.000000000
vn 0.000000000 0.000000000 -1.000000000
vn 0.000000000 0.000000000 1.000000000
vn -0.000000000 0.000000000 -1.000000000
vn 0.000000000 0.000000000 1.000000000
vn 0.000000000 0.000000000 -1.000000000
vn 0.000000000 0.000000000 1.000000000
vn 0.000000000 0.000000000 -1.000000000
vn 0.000000000 0.000000000 1.000000000
vn 0.000000000 0.000000000 -1.000000000
vn -0.000000000 0.000000000 1.000000000
vn 0.000000000 0.000000000 -1.000000000
vn 0.000000000 0.000000000 1.000000000
vn -0.000000000 0.000000000 -1.000000000
vn 0.000000000 0.000000000 1.000000000
vn 0.000000000 0.000000000 -1.000000000
vn -0.000000000 0.000000000 1.000000000
vn -0.000000000 0.000000000 -1.000000000
vn 0.000000000 -0.000000000 1.000000000
vn 0.000000000 0.000000000 -1.000000000
vn 0.000000000 0.000000000 1.000000000
vn 0.000000000 -0.000000000 -1.000000000
vn -0.000000000 0.000000000 1.000000000
vn 0.000000000 0.000000000 -1.000000000
vn 0.000000000 0.000000000 1.000000000
vn 0.000000000 0.000000000 -1.000000000
vn 0.000000000 -0.000000000 1.000000000
vn 0.000000000 0.000000000 -1.000000000
vn 0.000000000 0.000000000 1.000000000
vn 0.000000000 0.000000000 -1.000000000
vn 0.000000000 -0.000000000 1.000000000
vn 0.000000000 0.000000000 -1.000000000
vn 0.000000000 0.000000000 1.000000000
vn 0.000000000 0.000000000 -1.000000000
vn 0.000000000 0.000000000 1.000000000
vn 0.000000000 0.000000000 -1.000000000
vn -0.000000000 0.000000000 1.000000000
vn 0.000000000 0.000000000 -1.000000000
vn 0.000000000 0.000000000 1.000000000
vn 0.000000000 0.000000000 -1.000000000
vn 0.000000000 0.000000000 1.000000000
vn 0.000000000 0.000000000 -1.000000000
vn 0.000000000 0.000000000 1.000000000
vn 0.000000000 0.000000000 -1.000000000
vn 0.000000000 0.000000000 1.000000000
vn -0.000000000 0.000000000 -1.000000000
vn 0.000000000 0.000000000 1.000000000
vn 0.000000000 0.000000000 -1.000000000
vn -0.000000000 0.000000000 1.000000000
vn 0.000000000 0.000000000 -1.000000000
vn 0.000000000 0.000000000 1.000000000
vn 0.000000000 0.000000000 -1.000000000
f 1//1 2//1 3//1 4//1
f 2//2 5//2 6//2 3//2
f 5//3 7//3 8//3 6//3
f 7//4 9//4 10//4 8//4
f 9//5 11//5 12//5 10//5
f 11//6 13//6 14//6 12//6
f 13//7 15//7 16//7 14//7
f 15//8 17//8 18//8 16//8
f 17//9 19//9 20//9 18//9
f 19//10 21//10 22//10 20//10
f 21//11 23//11 24//11 22//11
f 23//12 25//12 26//12 24//12
f 25//13 27//13 28//13 26//13
f 27//14 29//14 30//14 28//14
f 29//15 31//15 32//15 30//15
f 31//16 33//16 34//16 32//16
f 33//17 35//17 36//17 34//17
f 35//18 37//18 38//18 36//18
f 37//19 39//19 40//19 38//19
f 39//20 41//20 42//20 40//20
f 41//21 43//21 44//21 42//21
f 43//22 45//22 46//22 44//22
f 45//23 47//23 48//23 46//23
f 47//24 49//24 50//24 48//24
f 49//25 51//25 52//25 50//25
f 51//26 53//26 54//26 52//26
f 53//27 55//27 56//27 54//27
f 55//28 57//28 58//28 56//28
f 57//29 59//29 60//29 58//29
f 59//30 61//30 62//30 60//30
f 61//31 63//31 64//31 62//31
f 63//32 65//32 66//32 64//32
f 65//33 1//33 4//33 66//33
f 36//34 28//34 30//34
f 29//35 27//35 35//35
f 32//36 36//36 30//36
f 29//37 35//37 31//37
f 34//38 36//38 32//38
f 31//39 35//39 33//39
f 20//40 42//40 44//40
f 43//41 41//41 19//41
f 18//42 20//42 44//42
f 43//43 19//43 17//43
f 16//44 18//44 44//44
f 43//45 17//45 15//45
f 48//46 16//46 44//46
f 43//47 15//47 47//47
f 46//48 48//48 44//48
f 43//49 47//49 45//49
f 6//50 62//50 64//50
f 63//51 61//51 5//51
f 3//52 6//52 64//52
f 63//53 5//53 2//53
f 66//54 3//54 64//54
f 63//55 2//55 65//55
f 4//56 3//56 66//56
f 65//57 2//57 1//57
f 62//58 6//58 8//58
f 7//59 5//59 61//59
f 12//60 62//60 8//60
f 7//61 61//61 11//61
f 10//62 12//62 8//62
f 7//63 11//63 9//63
f 24//64 20//64 22//64
f 21//65 19//65 23//65
f 26//66 20//66 24//66
f 23//67 19//67 25//67
f 38//68 26//68 28//68
f 27//69 25//69 37//69
f 36//70 38//70 28//70
f 27//71 37//71 35//71
f 42//72 38//72 40//72
f 39//73 37//73 41//73
f 20//74 38//74 42//74
f 41//75 37//75 19//75
f 26//76 38//76 20//76
f 19//77 37//77 25//77
f 48//78 14//78 16//78
f 15//79 13//79 47//79
f 50//80 14//80 48//80
f 47//81 13//81 49//81
f 54//82 50//82 52//82
f 51//83 49//83 53//83
f 58//84 50//84 54//84
f 53//85 49//85 57//85
f 56//86 58//86 54//86
f 53//87 57//87 55//87
f 12//88 60//88 62//88
f 61//89 59//89 11//89
f 14//90 50//90 58//90
f 57//91 49//91 13//91
