# Generated from CN441122_filled_aids.yaml
mtllib chart_obstacle_070.mtl
o chart_obstacle_070
usemtl chart_land
v -3.566931 5.592003 -5.000000
v -6.152718 -1.822210 -5.000000
v -6.152718 -1.822210 3.000000
v -3.566931 5.592003 3.000000
v -1.566931 -6.407997 -5.000000
v -1.566931 -6.407997 3.000000
v 3.261496 -6.407997 -5.000000
v 3.261496 -6.407997 3.000000
v 5.847282 5.592003 -5.000000
v 5.847282 5.592003 3.000000
vn -0.944222611 0.329307851 0.000000000
vn -0.707106781 -0.707106781 0.000000000
vn 0.000000000 -1.000000000 0.000000000
vn 0.977562148 -0.210647210 0.000000000
vn 0.000000000 1.000000000 0.000000000
vn 0.000000000 0.000000000 1.000000000
vn 0.000000000 0.000000000 -1.000000000
vn 0.000000000 0.000000000 1.000000000
vn 0.000000000 0.000000000 -1.000000000
vn 0.000000000 0.000000000 1.000000000
vn 0.000000000 0.000000000 -1.000000000
f 1//1 2//1 3//1 4//1
f 2//2 5//2 6//2 3//2
f 5//3 7//3 8//3 6//3
f 7//4 9//4 10//4 8//4
f 9//5 1//5 4//5 10//5
f 6//6 4//6 3//6
f 2//7 1//7 5//7
f 8//8 4//8 6//8
f 5//9 1//9 7//9
f 10//10 4//10 8//10
f 7//11 1//11 9//11
