# Generated from CN441122_filled_aids.yaml
mtllib chart_obstacle_021.mtl
o chart_obstacle_021
usemtl chart_land
v -83.226894 134.995568 -5.000000
v -83.226894 130.995568 -5.000000
v -83.226894 130.995568 3.000000
v -83.226894 134.995568 3.000000
v -68.641108 124.995568 -5.000000
v -68.641108 124.995568 3.000000
v -10.641108 106.995568 -5.000000
v -10.641108 106.995568 3.000000
v 47.358892 82.995568 -5.000000
v 47.358892 82.995568 3.000000
v 60.773106 55.581354 -5.000000
v 60.773106 55.581354 3.000000
v 60.773106 14.409781 -5.000000
v 60.773106 14.409781 3.000000
v 38.773106 -55.590219 -5.000000
v 38.773106 -55.590219 3.000000
v 28.773106 -79.590219 -5.000000
v 28.773106 -79.590219 3.000000
v 23.358892 -85.004432 -5.000000
v 23.358892 -85.004432 3.000000
v -20.641108 -97.004432 -5.000000
v -20.641108 -97.004432 3.000000
v -74.641108 -107.004432 -5.000000
v -74.641108 -107.004432 3.000000
v -101.226894 -127.590219 -5.000000
v -101.226894 -127.590219 3.000000
v -111.226894 -149.004432 -5.000000
v -111.226894 -149.004432 3.000000
v -105.226894 -146.418646 -5.000000
v -105.226894 -146.418646 3.000000
v -89.812681 -123.004432 -5.000000
v -89.812681 -123.004432 3.000000
v -71.812681 -111.004432 -5.000000
v -71.812681 -111.004432 3.000000
v -17.812681 -101.004432 -5.000000
v -17.812681 -101.004432 3.000000
v 30.773106 -87.004432 -5.000000
v 30.773106 -87.004432 3.000000
v 40.773106 -64.418646 -5.000000
v 40.773106 -64.418646 3.000000
v 64.773106 11.581354 -5.000000
v 64.773106 11.581354 3.000000
v 64.773106 60.409781 -5.000000
v 64.773106 60.409781 3.000000
v 52.773106 86.995568 -5.000000
v 52.773106 86.995568 3.000000
v -7.812681 110.995568 -5.000000
v -7.812681 110.995568 3.000000
vn -1.000000000 0.000000000 0.000000000
vn -0.380429281 -0.924810014 0.000000000
vn -0.296399215 -0.955064137 0.000000000
vn -0.382351793 -0.924016832 0.000000000
vn -0.898232923 -0.439519756 0.000000000
vn -1.000000000 0.000000000 0.000000000
vn -0.953993717 0.299826597 0.000000000
vn -0.923076923 0.384615385 0.000000000
vn -0.707106716 0.707106846 0.000000000
vn -0.263117406 0.964763821 0.000000000
vn -0.182089260 0.983282005 0.000000000
vn -0.612233495 0.790677018 0.000000000
vn -0.906074464 0.423118264 0.000000000
vn 0.395775019 -0.918347502 0.000000000
vn 0.835251204 -0.549868553 0.000000000
vn 0.554700196 -0.832050294 0.000000000
vn 0.182089260 -0.983282005 0.000000000
vn 0.276884378 -0.960903242 0.000000000
vn 0.914383512 -0.404849099 0.000000000
vn 0.953582665 -0.301131368 0.000000000
vn 1.000000000 0.000000000 0.000000000
vn 0.911453971 0.411402064 0.000000000
vn 0.368288910 0.929711395 0.000000000
vn 0.303256077 0.952909099 0.000000000
vn 0.000000000 -0.000000000 1.000000000
vn 0.000000000 0.000000000 -1.000000000
vn 0.000000000 0.000000000 1.000000000
vn 0.000000000 0.000000000 -1.000000000
vn 0.000000000 0.000000000 1.000000000
vn -0.000000000 0.000000000 -1.000000000
vn 0.000000000 0.000000000 1.000000000
vn 0.000000000 0.000000000 -1.000000000
vn 0.000000000 0.000000000 1.000000000
vn 0.000000000 0.000000000 -1.000000000
vn 0.000000000 0.000000000 1.000000000
vn -0.000000000 0.000000000 -1.000000000
vn 0.000000000 0.000000000 1.000000000
vn 0.000000000 0.000000000 -1.000000000
vn 0.000000000 0.000000000 1.000000000
vn -0.000000000 0.000000000 -1.000000000
vn 0.000000000 0.000000000 1.000000000
vn 0.000000000 0.000000000 -1.000000000
vn 0.000000000 0.000000000 1.000000000
vn 0.000000000 0.000000000 -1.000000000
vn -0.000000000 0.000000000 1.000000000
vn 0.000000000 -0.000000000 -1.000000000
vn 0.000000000 0.000000000 1.000000000
vn -0.000000000 0.000000000 -1.000000000
vn -0.000000000 0.000000000 1.000000000
vn 0.000000000 -0.000000000 -1.000000000
vn 0.000000000 0.000000000 1.000000000
vn -0.000000000 0.000000000 -1.000000000
vn 0.000000000 0.000000000 1.000000000
vn 0.000000000 0.000000000 -1.000000000
vn -0.000000000 0.000000000 1.000000000
vn 0.000000000 0.000000000 -1.000000000
vn 0.000000000 -0.000000000 1.000000000
vn 0.000000000 0.000000000 -1.000000000
vn 0.000000000 0.000000000 1.000000000
vn 0.000000000 0.000000000 -1.000000000
vn 0.000000000 0.000000000 1.000000000
vn 0.000000000 0.000000000 -1.000000000
vn 0.000000000 0.000000000 1.000000000
vn 0.000000000 0.000000000 -1.000000000
vn 0.000000000 0.000000000 1.000000000
vn 0.000000000 0.000000000 -1.000000000
vn 0.000000000 0.000000000 1.000000000
vn 0.000000000 0.000000000 -1.000000000
f 1//1 2//1 3//1 4//1
f 2//2 5//2 6//2 3//2
f 5//3 7//3 8//3 6//3
f 7//4 9//4 10//4 8//4
f 9//5 11//5 12//5 10//5
f 11//6 13//6 14//6 12//6
f 13//7 15//7 16//7 14//7
f 15//8 17//8 18//8 16//8
f 17//9 19//9 20//9 18//9
f 19//10 21//10 22//10 20//10
f 21//11 23//11 24//11 22//11
f 23//12 25//12 26//12 24//12
f 25//13 27//13 28//13 26//13
f 27//14 29//14 30//14 28//14
f 29//15 31//15 32//15 30//15
f 31//16 33//16 34//16 32//16
f 33//17 35//17 36//17 34//17
f 35//18 37//18 38//18 36//18
f 37//19 39//19 40//19 38//19
f 39//20 41//20 42//20 40//20
f 41//21 43//21 44//21 42//21
f 43//22 45//22 46//22 44//22
f 45//23 47//23 48//23 46//23
f 47//24 1//24 4//24 48//24
f 30//25 26//25 28//25
f 27//26 25//26 29//26
f 32//27 26//27 30//27
f 29//28 25//28 31//28
f 20//29 36//29 38//29
f 37//30 35//30 19//30
f 18//31 20//31 38//31
f 37//32 19//32 17//32
f 40//33 18//33 38//33
f 37//34 17//34 39//34
f 16//35 18//35 40//35
f 39//36 17//36 15//36
f 42//37 16//37 40//37
f 39//38 15//38 41//38
f 14//39 16//39 42//39
f 41//40 15//40 13//40
f 12//41 14//41 42//41
f 41//42 13//42 11//42
f 44//43 12//43 42//43
f 41//44 11//44 43//44
f 10//45 44//45 46//45
f 45//46 43//46 9//46
f 48//47 10//47 46//47
f 45//48 9//48 47//48
f 8//49 10//49 48//49
f 47//50 9//50 7//50
f 6//51 8//51 48//51
f 47//52 7//52 5//52
f 4//53 6//53 48//53
f 47//54 5//54 1//54
f 3//55 6//55 4//55
f 1//56 5//56 2//56
f 32//57 24//57 26//57
f 25//58 23//58 31//58
f 34//59 24//59 32//59
f 31//60 23//60 33//60
f 22//61 24//61 34//61
f 33//62 23//62 21//62
f 36//63 22//63 34//63
f 33//64 21//64 35//64
f 20//65 22//65 36//65
f 35//66 21//66 19//66
f 44//67 10//67 12//67
f 11//68 9//68 43//68
