# Generated from CN441122_filled_aids.yaml
mtllib chart_obstacle_014.mtl
o chart_obstacle_014
usemtl chart_land
v 250.494860 109.908838 -5.000000
v 225.666433 105.908838 -5.000000
v 225.666433 105.908838 3.000000
v 250.494860 109.908838 3.000000
v 199.666433 89.908838 -5.000000
v 199.666433 89.908838 3.000000
v 33.666433 9.908838 -5.000000
v 33.666433 9.908838 3.000000
v -170.333567 -24.091162 -5.000000
v -170.333567 -24.091162 3.000000
v -172.919353 -26.676949 -5.000000
v -172.919353 -26.676949 3.000000
v -172.919353 -30.091162 -5.000000
v -172.919353 -30.091162 3.000000
v -169.505140 -30.091162 -5.000000
v -169.505140 -30.091162 3.000000
v 36.494860 5.908838 -5.000000
v 36.494860 5.908838 3.000000
v 176.494860 71.908838 -5.000000
v 176.494860 71.908838 3.000000
v 234.494860 103.908838 -5.000000
v 234.494860 103.908838 3.000000
v 245.666433 105.908838 -5.000000
v 245.666433 105.908838 3.000000
v 259.080647 94.494624 -5.000000
v 259.080647 94.494624 3.000000
v 257.080647 79.323051 -5.000000
v 257.080647 79.323051 3.000000
v 251.666433 73.908838 -5.000000
v 251.666433 73.908838 3.000000
v 219.666433 53.908838 -5.000000
v 219.666433 53.908838 3.000000
v 149.666433 19.908838 -5.000000
v 149.666433 19.908838 3.000000
v -4.333567 -32.091162 -5.000000
v -4.333567 -32.091162 3.000000
v -174.333567 -62.091162 -5.000000
v -174.333567 -62.091162 3.000000
v -396.919353 -70.091162 -5.000000
v -396.919353 -70.091162 3.000000
v -396.919353 -74.091162 -5.000000
v -396.919353 -74.091162 3.000000
v -171.505140 -66.091162 -5.000000
v -171.505140 -66.091162 3.000000
v -1.505140 -36.091162 -5.000000
v -1.505140 -36.091162 3.000000
v 148.494860 13.908838 -5.000000
v 148.494860 13.908838 3.000000
v 222.494860 49.908838 -5.000000
v 222.494860 49.908838 3.000000
v 252.494860 67.908838 -5.000000
v 252.494860 67.908838 3.000000
v 261.080647 76.494624 -5.000000
v 261.080647 76.494624 3.000000
v 263.080647 97.323051 -5.000000
v 263.080647 97.323051 3.000000
vn -0.159054742 0.987269765 0.000000000
vn -0.524097426 0.851658317 0.000000000
vn -0.434141922 0.900844488 0.000000000
vn -0.164398987 0.986393924 0.000000000
vn -0.707106918 0.707106644 0.000000000
vn -1.000000000 0.000000000 0.000000000
vn 0.000000000 -1.000000000 0.000000000
vn 0.172148337 -0.985071038 0.000000000
vn 0.426419232 -0.904525643 0.000000000
vn 0.483077343 -0.875577684 0.000000000
vn 0.176224078 -0.984350077 0.000000000
vn -0.648048219 -0.761599308 0.000000000
vn -0.991422653 0.130694774 0.000000000
vn -0.707106716 0.707106846 0.000000000
vn -0.529998940 0.847998304 0.000000000
vn -0.436903963 0.899508159 0.000000000
vn -0.319916719 0.947445668 0.000000000
vn -0.173785334 0.984783559 0.000000000
vn -0.035918007 0.999354740 0.000000000
vn -1.000000000 0.000000000 0.000000000
vn 0.035467890 -0.999370816 0.000000000
vn 0.173785334 -0.984783559 0.000000000
vn 0.316227766 -0.948683298 0.000000000
vn 0.437465719 -0.899235089 0.000000000
vn 0.514495755 -0.857492926 0.000000000
vn 0.707106740 -0.707106822 0.000000000
vn 0.995421466 -0.095582971 0.000000000
vn 0.707106781 0.707106781 0.000000000
vn 0.000000000 0.000000000 1.000000000
vn 0.000000000 0.000000000 -1.000000000
vn 0.000000000 0.000000000 1.000000000
vn 0.000000000 0.000000000 -1.000000000
vn 0.000000000 0.000000000 1.000000000
vn 0.000000000 0.000000000 -1.000000000
vn 0.000000000 0.000000000 1.000000000
vn 0.000000000 0.000000000 -1.000000000
vn 0.000000000 0.000000000 1.000000000
vn -0.000000000 0.000000000 -1.000000000
vn 0.000000000 0.000000000 1.000000000
vn 0.000000000 0.000000000 -1.000000000
vn 0.000000000 0.000000000 1.000000000
vn -0.000000000 0.000000000 -1.000000000
vn 0.000000000 0.000000000 1.000000000
vn 0.000000000 0.000000000 -1.000000000
vn 0.000000000 0.000000000 1.000000000
vn -0.000000000 0.000000000 -1.000000000
vn 0.000000000 0.000000000 1.000000000
vn 0.000000000 0.000000000 -1.000000000
vn 0.000000000 0.000000000 1.000000000
vn 0.000000000 0.000000000 -1.000000000
vn 0.000000000 0.000000000 1.000000000
vn -0.000000000 0.000000000 -1.000000000
vn -0.000000000 0.000000000 1.000000000
vn 0.000000000 -0.000000000 -1.000000000
vn 0.000000000 0.000000000 1.000000000
vn 0.000000000 0.000000000 -1.000000000
vn -0.000000000 0.000000000 1.000000000
vn 0.000000000 0.000000000 -1.000000000
vn 0.000000000 0.000000000 1.000000000
vn 0.000000000 0.000000000 -1.000000000
vn 0.000000000 0.000000000 1.000000000
vn 0.000000000 0.000000000 -1.000000000
vn 0.000000000 0.000000000 1.000000000
vn 0.000000000 0.000000000 -1.000000000
f 1//1 2//1 3//1 4//1
f 2//2 5//2 6//2 3//2
f 5//3 7//3 8//3 6//3
f 7//4 9//4 10//4 8//4
f 9//5 11//5 12//5 10//5
f 11//6 13//6 14//6 12//6
f 13//7 15//7 16//7 14//7
f 15//8 17//8 18//8 16//8
f 17//9 19//9 20//9 18//9
f 19//10 21//10 22//10 20//10
f 21//11 23//11 24//11 22//11
f 23//12 25//12 26//12 24//12
f 25//13 27//13 28//13 26//13
f 27//14 29//14 30//14 28//14
f 29//15 31//15 32//15 30//15
f 31//16 33//16 34//16 32//16
f 33//17 35//17 36//17 34//17
f 35//18 37//18 38//18 36//18
f 37//19 39//19 40//19 38//19
f 39//20 41//20 42//20 40//20
f 41//21 43//21 44//21 42//21
f 43//22 45//22 46//22 44//22
f 45//23 47//23 48//23 46//23
f 47//24 49//24 50//24 48//24
f 49//25 51//25 52//25 50//25
f 51//26 53//26 54//26 52//26
f 53//27 55//27 56//27 54//27
f 55//28 1//28 4//28 56//28
f 38//29 40//29 42//29
f 41//30 39//30 37//30
f 44//31 38//31 42//31
f 41//32 37//32 43//32
f 46//33 36//33 44//33
f 43//34 35//34 45//34
f 50//35 34//35 48//35
f 47//36 33//36 49//36
f 32//37 34//37 50//37
f 49//38 33//38 31//38
f 52//39 32//39 50//39
f 49//40 31//40 51//40
f 30//41 32//41 52//41
f 51//42 31//42 29//42
f 54//43 30//43 52//43
f 51//44 29//44 53//44
f 28//45 30//45 54//45
f 53//46 29//46 27//46
f 26//47 28//47 54//47
f 53//48 27//48 25//48
f 56//49 26//49 54//49
f 53//50 25//50 55//50
f 4//51 26//51 56//51
f 55//52 25//52 1//52
f 24//53 26//53 4//53
f 1//54 25//54 23//54
f 22//55 24//55 4//55
f 1//56 23//56 21//56
f 3//57 22//57 4//57
f 1//58 21//58 2//58
f 12//59 14//59 16//59
f 15//60 13//60 11//60
f 10//61 12//61 16//61
f 15//62 11//62 9//62
f 8//63 20//63 6//63
f 5//64 19//64 7//64
