# Generated from CN441122_filled_aids.yaml
mtllib chart_obstacle_004.mtl
o chart_obstacle_004
usemtl chart_land
v -137.324886 283.168256 -5.000000
v -303.910673 56.582470 -5.000000
v -303.910673 56.582470 3.000000
v -137.324886 283.168256 3.000000
v -305.910673 49.754043 -5.000000
v -305.910673 49.754043 3.000000
v -67.324886 -176.831744 -5.000000
v -67.324886 -176.831744 3.000000
v 419.503541 -176.831744 -5.000000
v 419.503541 -176.831744 3.000000
v -132.496459 283.168256 -5.000000
v -132.496459 283.168256 3.000000
vn -0.805687342 0.592341039 0.000000000
vn -0.959682981 0.281084642 0.000000000
vn -0.688636495 -0.725106735 0.000000000
vn 0.000000000 -1.000000000 0.000000000
vn 0.640184400 0.768221280 0.000000000
vn 0.000000000 1.000000000 0.000000000
vn 0.000000000 0.000000000 1.000000000
vn 0.000000000 0.000000000 -1.000000000
vn 0.000000000 0.000000000 1.000000000
vn 0.000000000 0.000000000 -1.000000000
vn 0.000000000 0.000000000 1.000000000
vn 0.000000000 0.000000000 -1.000000000
vn -0.000000000 0.000000000 1.000000000
vn -0.000000000 0.000000000 -1.000000000
f 1//1 2//1 3//1 4//1
f 2//2 5//2 6//2 3//2
f 5//3 7//3 8//3 6//3
f 7//4 9//4 10//4 8//4
f 9//5 11//5 12//5 10//5
f 11//6 1//6 4//6 12//6
f 8//7 3//7 6//7
f 5//8 2//8 7//8
f 12//9 3//9 8//9
f 7//10 2//10 11//10
f 10//11 12//11 8//11
f 7//12 11//12 9//12
f 4//13 3//13 12//13
f 11//14 2//14 1//14
