# Generated from CN441122_filled_aids.yaml
mtllib chart_obstacle_007.mtl
o chart_obstacle_007
usemtl chart_land
v 727.794081 1135.366431 -5.000000
v 719.208295 1124.780644 -5.000000
v 719.208295 1124.780644 3.000000
v 727.794081 1135.366431 3.000000
v 713.208295 1090.780644 -5.000000
v 713.208295 1090.780644 3.000000
v 665.208295 906.780644 -5.000000
v 665.208295 906.780644 3.000000
v 615.208295 686.780644 -5.000000
v 615.208295 686.780644 3.000000
v 607.794081 667.366431 -5.000000
v 607.794081 667.366431 3.000000
v -488.205919 85.366431 -5.000000
v -488.205919 85.366431 3.000000
v -924.791705 67.366431 -5.000000
v -924.791705 67.366431 3.000000
v -924.791705 63.366431 -5.000000
v -924.791705 63.366431 3.000000
v -915.377492 63.366431 -5.000000
v -915.377492 63.366431 3.000000
v -485.377492 81.366431 -5.000000
v -485.377492 81.366431 3.000000
v 290.622508 491.366431 -5.000000
v 290.622508 491.366431 3.000000
v 486.622508 599.366431 -5.000000
v 486.622508 599.366431 3.000000
v 608.622508 661.366431 -5.000000
v 608.622508 661.366431 3.000000
v 615.208295 667.952217 -5.000000
v 615.208295 667.952217 3.000000
v 619.208295 683.952217 -5.000000
v 619.208295 683.952217 3.000000
v 671.208295 911.952217 -5.000000
v 671.208295 911.952217 3.000000
v 717.208295 1087.952217 -5.000000
v 717.208295 1087.952217 3.000000
v 723.208295 1121.952217 -5.000000
v 723.208295 1121.952217 3.000000
v 730.622508 1131.366431 -5.000000
v 730.622508 1131.366431 3.000000
v 743.208295 1129.952217 -5.000000
v 743.208295 1129.952217 3.000000
v 744.794081 1110.366431 -5.000000
v 744.794081 1110.366431 3.000000
v 733.208295 1038.780644 -5.000000
v 733.208295 1038.780644 3.000000
v 413.208295 -311.219356 -5.000000
v 413.208295 -311.219356 3.000000
v -96.205919 -590.633569 -5.000000
v -96.205919 -590.633569 3.000000
v -818.205919 -612.633569 -5.000000
v -818.205919 -612.633569 3.000000
v -856.205919 -626.633569 -5.000000
v -856.205919 -626.633569 3.000000
v -894.791705 -681.219356 -5.000000
v -894.791705 -681.219356 3.000000
v -866.791705 -1508.047783 -5.000000
v -866.791705 -1508.047783 3.000000
v -866.791705 -1567.219356 -5.000000
v -866.791705 -1567.219356 3.000000
v -882.205919 -1572.633569 -5.000000
v -882.205919 -1572.633569 3.000000
v -884.791705 -1578.633569 -5.000000
v -884.791705 -1578.633569 3.000000
v -860.791705 -1570.633569 -5.000000
v -860.791705 -1570.633569 3.000000
v -860.791705 -1565.219356 -5.000000
v -860.791705 -1565.219356 3.000000
v -890.791705 -686.047783 -5.000000
v -890.791705 -686.047783 3.000000
v -853.377492 -630.633569 -5.000000
v -853.377492 -630.633569 3.000000
v -815.377492 -616.633569 -5.000000
v -815.377492 -616.633569 3.000000
v -93.377492 -594.633569 -5.000000
v -93.377492 -594.633569 3.000000
v 417.208295 -314.047783 -5.000000
v 417.208295 -314.047783 3.000000
v 739.208295 1043.952217 -5.000000
v 739.208295 1043.952217 3.000000
v 749.208295 1107.952217 -5.000000
v 749.208295 1107.952217 3.000000
v 747.208295 1135.366431 -5.000000
v 747.208295 1135.366431 3.000000
vn -0.776658277 0.629922155 0.000000000
vn -0.984783559 0.173785334 0.000000000
vn -0.967617272 0.252421897 0.000000000
vn -0.975132856 0.221621104 0.000000000
vn -0.934194099 0.356765168 0.000000000
vn -0.468998101 0.883199174 0.000000000
vn -0.041194014 0.999151166 0.000000000
vn -1.000000000 0.000000000 0.000000000
vn 0.000000000 -1.000000000 0.000000000
vn 0.041823837 -0.999125001 0.000000000
vn 0.467154647 -0.884175625 0.000000000
vn 0.482604754 -0.875838257 0.000000000
vn 0.453049848 -0.891485185 0.000000000
vn 0.707106728 -0.707106835 0.000000000
vn 0.970142500 -0.242535625 0.000000000
vn 0.974964554 -0.222360337 0.000000000
vn 0.967500415 -0.252869427 0.000000000
vn 0.984783559 -0.173785334 0.000000000
vn 0.785615243 -0.618715354 0.000000000
vn -0.111663232 -0.993746106 0.000000000
vn -0.996738268 -0.080702076 0.000000000
vn -0.987154935 0.159765874 0.000000000
vn -0.973037734 0.230645981 0.000000000
vn -0.480909397 0.876770296 0.000000000
vn -0.030456778 0.999536085 0.000000000
vn -0.345705359 0.938343117 0.000000000
vn -0.816582565 0.577228650 0.000000000
vn -0.999427096 -0.033844940 0.000000000
vn -1.000000000 0.000000000 0.000000000
vn -0.331399261 0.943490609 0.000000000
vn -0.918347502 0.395775019 0.000000000
vn 0.316227766 -0.948683298 0.000000000
vn 1.000000000 0.000000000 0.000000000
vn 0.999418317 0.034103184 0.000000000
vn 0.828781959 -0.559571679 0.000000000
vn 0.345705359 -0.938343117 0.000000000
vn 0.030456778 -0.999536085 0.000000000
vn 0.481607195 -0.876387191 0.000000000
vn 0.973021055 -0.230716333 0.000000000
vn 0.988012034 -0.154376880 0.000000000
vn 0.997349371 0.072761478 0.000000000
vn 0.000000000 1.000000000 0.000000000
vn 0.000000000 0.000000000 1.000000000
vn 0.000000000 0.000000000 -1.000000000
vn 0.000000000 0.000000000 1.000000000
vn -0.000000000 0.000000000 -1.000000000
vn 0.000000000 0.000000000 1.000000000
vn 0.000000000 0.000000000 -1.000000000
vn 0.000000000 0.000000000 1.000000000
vn -0.000000000 0.000000000 -1.000000000
vn 0.000000000 0.000000000 1.000000000
vn 0.000000000 0.000000000 -1.000000000
vn 0.000000000 0.000000000 1.000000000
vn 0.000000000 0.000000000 -1.000000000
vn -0.000000000 0.000000000 1.000000000
vn 0.000000000 0.000000000 -1.000000000
vn -0.000000000 0.000000000 1.000000000
vn -0.000000000 0.000000000 -1.000000000
vn 0.000000000 0.000000000 1.000000000
vn 0.000000000 -0.000000000 -1.000000000
vn 0.000000000 -0.000000000 1.000000000
vn 0.000000000 0.000000000 -1.000000000
vn 0.000000000 0.000000000 1.000000000
vn 0.000000000 0.000000000 -1.000000000
vn 0.000000000 0.000000000 1.000000000
vn 0.000000000 0.000000000 -1.000000000
vn 0.000000000 -0.000000000 1.000000000
vn 0.000000000 0.000000000 -1.000000000
vn 0.000000000 0.000000000 1.000000000
vn 0.000000000 0.000000000 -1.000000000
vn 0.000000000 0.000000000 1.000000000
vn 0.000000000 0.000000000 -1.000000000
vn 0.000000000 0.000000000 1.000000000
vn -0.000000000 0.000000000 -1.000000000
vn 0.000000000 0.000000000 1.000000000
vn 0.000000000 0.000000000 -1.000000000
vn 0.000000000 0.000000000 1.000000000
vn 0.000000000 0.000000000 -1.000000000
vn 0.000000000 0.000000000 1.000000000
vn 0.000000000 0.000000000 -1.000000000
vn 0.000000000 0.000000000 1.000000000
vn -0.000000000 0.000000000 -1.000000000
vn 0.000000000 0.000000000 1.000000000
vn 0.000000000 0.000000000 -1.000000000
vn 0.000000000 0.000000000 1.000000000
vn 0.000000000 0.000000000 -1.000000000
vn 0.000000000 0.000000000 1.000000000
vn 0.000000000 0.000000000 -1.000000000
vn 0.000000000 0.000000000 1.000000000
vn -0.000000000 0.000000000 -1.000000000
vn 0.000000000 0.000000000 1.000000000
vn 0.000000000 0.000000000 -1.000000000
vn -0.000000000 0.000000000 1.000000000
vn 0.000000000 0.000000000 -1.000000000
vn 0.000000000 0.000000000 1.000000000
vn 0.000000000 -0.000000000 -1.000000000
vn -0.000000000 0.000000000 1.000000000
vn 0.000000000 0.000000000 -1.000000000
vn 0.000000000 0.000000000 1.000000000
vn 0.000000000 -0.000000000 -1.000000000
vn 0.000000000 -0.000000000 1.000000000
vn 0.000000000 0.000000000 -1.000000000
vn 0.000000000 0.000000000 1.000000000
vn 0.000000000 -0.000000000 -1.000000000
vn -0.000000000 0.000000000 1.000000000
vn 0.000000000 0.000000000 -1.000000000
f 1//1 2//1 3//1 4//1
f 2//2 5//2 6//2 3//2
f 5//3 7//3 8//3 6//3
f 7//4 9//4 10//4 8//4
f 9//5 11//5 12//5 10//5
f 11//6 13//6 14//6 12//6
f 13//7 15//7 16//7 14//7
f 15//8 17//8 18//8 16//8
f 17//9 19//9 20//9 18//9
f 19//10 21//10 22//10 20//10
f 21//11 23//11 24//11 22//11
f 23//12 25//12 26//12 24//12
f 25//13 27//13 28//13 26//13
f 27//14 29//14 30//14 28//14
f 29//15 31//15 32//15 30//15
f 31//16 33//16 34//16 32//16
f 33//17 35//17 36//17 34//17
f 35//18 37//18 38//18 36//18
f 37//19 39//19 40//19 38//19
f 39//20 41//20 42//20 40//20
f 41//21 43//21 44//21 42//21
f 43//22 45//22 46//22 44//22
f 45//23 47//23 48//23 46//23
f 47//24 49//24 50//24 48//24
f 49//25 51//25 52//25 50//25
f 51//26 53//26 54//26 52//26
f 53//27 55//27 56//27 54//27
f 55//28 57//28 58//28 56//28
f 57//29 59//29 60//29 58//29
f 59//30 61//30 62//30 60//30
f 61//31 63//31 64//31 62//31
f 63//32 65//32 66//32 64//32
f 65//33 67//33 68//33 66//33
f 67//34 69//34 70//34 68//34
f 69//35 71//35 72//35 70//35
f 71//36 73//36 74//36 72//36
f 73//37 75//37 76//37 74//37
f 75//38 77//38 78//38 76//38
f 77//39 79//39 80//39 78//39
f 79//40 81//40 82//40 80//40
f 81//41 83//41 84//41 82//41
f 83//42 1//42 4//42 84//42
f 66//43 62//43 64//43
f 63//44 61//44 65//44
f 60//45 62//45 66//45
f 65//46 61//46 59//46
f 68//47 60//47 66//47
f 65//48 59//48 67//48
f 48//49 76//49 78//49
f 77//50 75//50 47//50
f 42//51 44//51 82//51
f 81//52 43//52 41//52
f 84//53 42//53 82//53
f 81//54 41//54 83//54
f 40//55 42//55 84//55
f 83//56 41//56 39//56
f 4//57 40//57 84//57
f 83//58 39//58 1//58
f 3//59 40//59 4//59
f 1//60 39//60 2//60
f 20//61 14//61 16//61
f 15//62 13//62 19//62
f 18//63 20//63 16//63
f 15//64 19//64 17//64
f 72//65 54//65 56//65
f 55//66 53//66 71//66
f 70//67 72//67 56//67
f 55//68 71//68 69//68
f 58//69 70//69 56//69
f 55//70 69//70 57//70
f 60//71 68//71 58//71
f 57//72 67//72 59//72
f 50//73 74//73 76//73
f 75//74 73//74 49//74
f 48//75 50//75 76//75
f 75//76 49//76 47//76
f 28//77 12//77 26//77
f 25//78 11//78 27//78
f 30//79 12//79 28//79
f 27//80 11//80 29//80
f 10//81 12//81 30//81
f 29//82 11//82 9//82
f 32//83 10//83 30//83
f 29//84 9//84 31//84
f 8//85 10//85 32//85
f 31//86 9//86 7//86
f 34//87 8//87 32//87
f 31//88 7//88 33//88
f 6//89 8//89 34//89
f 33//90 7//90 5//90
f 38//91 6//91 36//91
f 35//92 5//92 37//92
f 3//93 38//93 40//93
f 39//94 37//94 2//94
f 6//95 38//95 3//95
f 2//96 37//96 5//96
f 14//97 22//97 24//97
f 23//98 21//98 13//98
f 20//99 22//99 14//99
f 13//100 21//100 19//100
f 74//101 50//101 52//101
f 51//102 49//102 73//102
f 72//103 74//103 52//103
f 51//104 73//104 71//104
f 54//105 72//105 52//105
f 51//106 71//106 53//106
