# Generated from CN441122_filled_aids.yaml
mtllib chart_obstacle_017.mtl
o chart_obstacle_017
usemtl chart_land
v -257.022186 168.468211 -5.000000
v -254.436399 162.468211 -5.000000
v -254.436399 162.468211 3.000000
v -257.022186 168.468211 3.000000
v -30.436399 16.468211 -5.000000
v -30.436399 16.468211 3.000000
v -0.436399 -7.531789 -5.000000
v -0.436399 -7.531789 3.000000
v 31.563601 -33.531789 -5.000000
v 31.563601 -33.531789 3.000000
v 165.563601 -165.531789 -5.000000
v 165.563601 -165.531789 3.000000
v 211.563601 -209.531789 -5.000000
v 211.563601 -209.531789 3.000000
v 214.977814 -209.531789 -5.000000
v 214.977814 -209.531789 3.000000
v 214.977814 -206.117575 -5.000000
v 214.977814 -206.117575 3.000000
v 73.392028 -66.531789 -5.000000
v 73.392028 -66.531789 3.000000
v 144.977814 3.053998 -5.000000
v 144.977814 3.053998 3.000000
v 144.977814 6.468211 -5.000000
v 144.977814 6.468211 3.000000
v 127.563601 -5.531789 -5.000000
v 127.563601 -5.531789 3.000000
v 69.977814 -63.117575 -5.000000
v 69.977814 -63.117575 3.000000
v 32.392028 -27.531789 -5.000000
v 32.392028 -27.531789 3.000000
v -21.607972 16.468211 -5.000000
v -21.607972 16.468211 3.000000
v -44.607972 31.468211 -5.000000
v -44.607972 31.468211 3.000000
v 14.977814 103.053998 -5.000000
v 14.977814 103.053998 3.000000
v 18.977814 112.468211 -5.000000
v 18.977814 112.468211 3.000000
v 8.977814 105.882425 -5.000000
v 8.977814 105.882425 3.000000
v -49.607972 34.468211 -5.000000
v -49.607972 34.468211 3.000000
v -251.607972 168.468211 -5.000000
v -251.607972 168.468211 3.000000
vn -0.918347446 -0.395775148 0.000000000
vn -0.546039591 -0.837759372 0.000000000
vn -0.624695048 -0.780868809 0.000000000
vn -0.630592625 -0.776114000 0.000000000
vn -0.701770353 -0.712403237 0.000000000
vn -0.691222646 -0.722641857 0.000000000
vn 0.000000000 -1.000000000 0.000000000
vn 1.000000000 0.000000000 0.000000000
vn 0.702059303 0.712118484 0.000000000
vn 0.697019147 -0.717052514 0.000000000
vn 1.000000000 0.000000000 0.000000000
vn -0.567418817 0.823429345 0.000000000
vn -0.707106775 0.707106787 0.000000000
vn 0.687522644 0.726162939 0.000000000
vn 0.631672951 0.775234986 0.000000000
vn 0.546267781 0.837610597 0.000000000
vn 0.768585687 -0.639746857 0.000000000
vn 0.920367533 -0.391054476 0.000000000
vn -0.550015044 0.835154747 0.000000000
vn -0.773129068 0.634248724 0.000000000
vn 0.552794744 0.833317449 0.000000000
vn 0.000000000 1.000000000 0.000000000
vn 0.000000000 0.000000000 1.000000000
vn 0.000000000 0.000000000 -1.000000000
vn 0.000000000 0.000000000 1.000000000
vn 0.000000000 0.000000000 -1.000000000
vn 0.000000000 0.000000000 1.000000000
vn 0.000000000 0.000000000 -1.000000000
vn 0.000000000 0.000000000 1.000000000
vn 0.000000000 0.000000000 -1.000000000
vn 0.000000000 -0.000000000 1.000000000
vn 0.000000000 0.000000000 -1.000000000
vn 0.000000000 0.000000000 1.000000000
vn 0.000000000 -0.000000000 -1.000000000
vn -0.000000000 0.000000000 1.000000000
vn 0.000000000 0.000000000 -1.000000000
vn 0.000000000 -0.000000000 1.000000000
vn 0.000000000 0.000000000 -1.000000000
vn 0.000000000 0.000000000 1.000000000
vn 0.000000000 0.000000000 -1.000000000
vn 0.000000000 0.000000000 1.000000000
vn 0.000000000 0.000000000 -1.000000000
vn 0.000000000 0.000000000 1.000000000
vn 0.000000000 0.000000000 -1.000000000
vn 0.000000000 0.000000000 1.000000000
vn 0.000000000 0.000000000 -1.000000000
vn -0.000000000 0.000000000 1.000000000
vn 0.000000000 0.000000000 -1.000000000
vn 0.000000000 -0.000000000 1.000000000
vn 0.000000000 0.000000000 -1.000000000
vn 0.000000000 0.000000000 1.000000000
vn 0.000000000 0.000000000 -1.000000000
vn 0.000000000 0.000000000 1.000000000
vn 0.000000000 0.000000000 -1.000000000
f 1//1 2//1 3//1 4//1
f 2//2 5//2 6//2 3//2
f 5//3 7//3 8//3 6//3
f 7//4 9//4 10//4 8//4
f 9//5 11//5 12//5 10//5
f 11//6 13//6 14//6 12//6
f 13//7 15//7 16//7 14//7
f 15//8 17//8 18//8 16//8
f 17//9 19//9 20//9 18//9
f 19//10 21//10 22//10 20//10
f 21//11 23//11 24//11 22//11
f 23//12 25//12 26//12 24//12
f 25//13 27//13 28//13 26//13
f 27//14 29//14 30//14 28//14
f 29//15 31//15 32//15 30//15
f 31//16 33//16 34//16 32//16
f 33//17 35//17 36//17 34//17
f 35//18 37//18 38//18 36//18
f 37//19 39//19 40//19 38//19
f 39//20 41//20 42//20 40//20
f 41//21 43//21 44//21 42//21
f 43//22 1//22 4//22 44//22
f 44//23 4//23 3//23
f 2//24 1//24 43//24
f 42//25 44//25 3//25
f 2//26 43//26 41//26
f 6//27 42//27 3//27
f 2//28 41//28 5//28
f 18//29 12//29 14//29
f 13//30 11//30 17//30
f 16//31 18//31 14//31
f 13//32 17//32 15//32
f 26//33 22//33 24//33
f 23//34 21//34 25//34
f 40//35 36//35 38//35
f 37//36 35//36 39//36
f 34//37 40//37 42//37
f 41//38 39//38 33//38
f 6//39 34//39 42//39
f 41//40 33//40 5//40
f 32//41 34//41 6//41
f 5//42 33//42 31//42
f 8//43 32//43 6//43
f 5//44 31//44 7//44
f 20//45 10//45 12//45
f 11//46 9//46 19//46
f 28//47 20//47 26//47
f 25//48 19//48 27//48
f 10//49 30//49 8//49
f 7//50 29//50 9//50
f 28//51 30//51 10//51
f 9//52 29//52 27//52
f 20//53 28//53 10//53
f 9//54 27//54 19//54
