# Generated from CN441122_filled_aids.yaml
mtllib chart_obstacle_030.mtl
o chart_obstacle_030
usemtl chart_land
v 109.062171 19.309310 -5.000000
v 43.647957 13.309310 -5.000000
v 43.647957 13.309310 3.000000
v 109.062171 19.309310 3.000000
v -32.352043 -2.690690 -5.000000
v -32.352043 -2.690690 3.000000
v -98.352043 -20.690690 -5.000000
v -98.352043 -20.690690 3.000000
v -102.937829 -22.690690 -5.000000
v -102.937829 -22.690690 3.000000
v -102.937829 -26.690690 -5.000000
v -102.937829 -26.690690 3.000000
v -29.523616 -6.690690 -5.000000
v -29.523616 -6.690690 3.000000
v 46.476384 9.309310 -5.000000
v 46.476384 9.309310 3.000000
v 109.062171 15.309310 -5.000000
v 109.062171 15.309310 3.000000
vn -0.091339762 0.995819787 0.000000000
vn -0.206010481 0.978549785 0.000000000
vn -0.263117406 0.964763821 0.000000000
vn -0.399764742 0.916617778 0.000000000
vn -1.000000000 0.000000000 0.000000000
vn 0.262847569 -0.964837372 0.000000000
vn 0.206010481 -0.978549785 0.000000000
vn 0.095430874 -0.995436059 0.000000000
vn 1.000000000 0.000000000 0.000000000
vn 0.000000000 0.000000000 1.000000000
vn 0.000000000 0.000000000 -1.000000000
vn 0.000000000 0.000000000 1.000000000
vn 0.000000000 0.000000000 -1.000000000
vn 0.000000000 0.000000000 1.000000000
vn -0.000000000 0.000000000 -1.000000000
vn -0.000000000 0.000000000 1.000000000
vn 0.000000000 0.000000000 -1.000000000
vn 0.000000000 0.000000000 1.000000000
vn 0.000000000 -0.000000000 -1.000000000
vn -0.000000000 0.000000000 1.000000000
vn 0.000000000 0.000000000 -1.000000000
vn 0.000000000 0.000000000 1.000000000
vn 0.000000000 -0.000000000 -1.000000000
f 1//1 2//1 3//1 4//1
f 2//2 5//2 6//2 3//2
f 5//3 7//3 8//3 6//3
f 7//4 9//4 10//4 8//4
f 9//5 11//5 12//5 10//5
f 11//6 13//6 14//6 12//6
f 13//7 15//7 16//7 14//7
f 15//8 17//8 18//8 16//8
f 17//9 1//9 4//9 18//9
f 8//10 10//10 12//10
f 11//11 9//11 7//11
f 14//12 8//12 12//12
f 11//13 7//13 13//13
f 4//14 16//14 18//14
f 17//15 15//15 1//15
f 3//16 16//16 4//16
f 1//17 15//17 2//17
f 14//18 16//18 3//18
f 2//19 15//19 13//19
f 6//20 14//20 3//20
f 2//21 13//21 5//21
f 8//22 14//22 6//22
f 5//23 13//23 7//23
