# Generated from CN441122_filled_aids.yaml
mtllib chart_obstacle_093.mtl
o chart_obstacle_093
usemtl chart_land
v -3.455318 5.876973 -5.000000
v -6.041104 -3.537241 -5.000000
v -6.041104 -3.537241 3.000000
v -3.455318 5.876973 3.000000
v 3.373109 -6.123027 -5.000000
v 3.373109 -6.123027 3.000000
v 5.958896 3.876973 -5.000000
v 5.958896 3.876973 3.000000
vn -0.964287127 0.264859090 0.000000000
vn -0.264859116 -0.964287119 0.000000000
vn 0.968156765 -0.250344718 0.000000000
vn 0.207807013 0.978169845 0.000000000
vn 0.000000000 0.000000000 1.000000000
vn 0.000000000 0.000000000 -1.000000000
vn 0.000000000 0.000000000 1.000000000
vn 0.000000000 0.000000000 -1.000000000
f 1//1 2//1 3//1 4//1
f 2//2 5//2 6//2 3//2
f 5//3 7//3 8//3 6//3
f 7//4 1//4 4//4 8//4
f 6//5 4//5 3//5
f 2//6 1//6 5//6
f 8//7 4//7 6//7
f 5//8 1//8 7//8
