# Generated from CN441122_filled_aids.yaml
mtllib chart_obstacle_008.mtl
o chart_obstacle_008
usemtl chart_land
v 2446.628304 654.162838 -5.000000
v 2434.628304 642.162838 -5.000000
v 2434.628304 642.162838 3.000000
v 2446.628304 654.162838 3.000000
v 2426.042518 642.162838 -5.000000
v 2426.042518 642.162838 3.000000
v 2426.042518 631.577051 -5.000000
v 2426.042518 631.577051 3.000000
v 2106.628304 300.162838 -5.000000
v 2106.628304 300.162838 3.000000
v 2069.456731 300.162838 -5.000000
v 2069.456731 300.162838 3.000000
v 1019.456731 392.162838 -5.000000
v 1019.456731 392.162838 3.000000
v 151.456731 462.162838 -5.000000
v 151.456731 462.162838 3.000000
v -306.543269 502.162838 -5.000000
v -306.543269 502.162838 3.000000
v -327.371696 510.162838 -5.000000
v -327.371696 510.162838 3.000000
v -1205.957482 -544.422949 -5.000000
v -1205.957482 -544.422949 3.000000
v -1217.371696 -555.837162 -5.000000
v -1217.371696 -555.837162 3.000000
v -1226.543269 -551.837162 -5.000000
v -1226.543269 -551.837162 3.000000
v -1233.957482 -554.422949 -5.000000
v -1233.957482 -554.422949 3.000000
v -1453.371696 -827.837162 -5.000000
v -1453.371696 -827.837162 3.000000
v -1426.543269 -827.837162 -5.000000
v -1426.543269 -827.837162 3.000000
v -1415.957482 -817.251376 -5.000000
v -1415.957482 -817.251376 3.000000
v -1215.957482 -561.251376 -5.000000
v -1215.957482 -561.251376 3.000000
v -1207.957482 -555.251376 -5.000000
v -1207.957482 -555.251376 3.000000
v -330.543269 498.162838 -5.000000
v -330.543269 498.162838 3.000000
v -311.371696 500.162838 -5.000000
v -311.371696 500.162838 3.000000
v 148.628304 458.162838 -5.000000
v 148.628304 458.162838 3.000000
v 1016.628304 388.162838 -5.000000
v 1016.628304 388.162838 3.000000
v 2066.628304 296.162838 -5.000000
v 2066.628304 296.162838 3.000000
v 2111.456731 296.162838 -5.000000
v 2111.456731 296.162838 3.000000
v 2404.042518 602.748624 -5.000000
v 2404.042518 602.748624 3.000000
v 2436.042518 632.748624 -5.000000
v 2436.042518 632.748624 3.000000
v 2450.042518 648.748624 -5.000000
v 2450.042518 648.748624 3.000000
v 2450.042518 654.162838 -5.000000
v 2450.042518 654.162838 3.000000
vn -0.707106781 0.707106781 0.000000000
vn 0.000000000 1.000000000 0.000000000
vn -1.000000000 0.000000000 0.000000000
vn -0.720022063 0.693951172 0.000000000
vn 0.000000000 1.000000000 0.000000000
vn 0.087284642 0.996183412 0.000000000
vn 0.080384190 0.996763955 0.000000000
vn 0.087005054 0.996207870 0.000000000
vn 0.358552163 0.933509693 0.000000000
vn -0.768305725 0.640083052 0.000000000
vn -0.707106750 0.707106812 0.000000000
vn 0.399764705 0.916617794 0.000000000
vn -0.329307851 0.944222611 0.000000000
vn -0.779917750 0.625882020 0.000000000
vn 0.000000000 -1.000000000 0.000000000
vn 0.707106748 -0.707106815 0.000000000
vn 0.788024374 -0.615644042 0.000000000
vn 0.600000000 -0.800000000 0.000000000
vn 0.768375857 -0.639998862 0.000000000
vn 0.103758055 -0.994602567 0.000000000
vn -0.090926132 -0.995857640 0.000000000
vn -0.080384190 -0.996763955 0.000000000
vn -0.087284642 -0.996183412 0.000000000
vn 0.000000000 -1.000000000 0.000000000
vn 0.723431298 -0.690396377 0.000000000
vn 0.683941129 -0.729537204 0.000000000
vn 0.752576695 -0.658504608 0.000000000
vn 1.000000000 0.000000000 0.000000000
vn 0.000000000 1.000000000 0.000000000
vn 0.000000000 -0.000000000 1.000000000
vn 0.000000000 0.000000000 -1.000000000
vn 0.000000000 -0.000000000 1.000000000
vn 0.000000000 0.000000000 -1.000000000
vn 0.000000000 0.000000000 1.000000000
vn 0.000000000 0.000000000 -1.000000000
vn 0.000000000 0.000000000 1.000000000
vn 0.000000000 0.000000000 -1.000000000
vn -0.000000000 0.000000000 1.000000000
vn 0.000000000 0.000000000 -1.000000000
vn 0.000000000 0.000000000 1.000000000
vn -0.000000000 0.000000000 -1.000000000
vn 0.000000000 0.000000000 1.000000000
vn 0.000000000 0.000000000 -1.000000000
vn 0.000000000 0.000000000 1.000000000
vn -0.000000000 0.000000000 -1.000000000
vn 0.000000000 0.000000000 1.000000000
vn 0.000000000 0.000000000 -1.000000000
vn 0.000000000 -0.000000000 1.000000000
vn 0.000000000 0.000000000 -1.000000000
vn 0.000000000 0.000000000 1.000000000
vn 0.000000000 -0.000000000 -1.000000000
vn 0.000000000 0.000000000 1.000000000
vn 0.000000000 0.000000000 -1.000000000
vn 0.000000000 0.000000000 1.000000000
vn 0.000000000 -0.000000000 -1.000000000
vn 0.000000000 0.000000000 1.000000000
vn 0.000000000 0.000000000 -1.000000000
vn 0.000000000 0.000000000 1.000000000
vn 0.000000000 0.000000000 -1.000000000
vn 0.000000000 0.000000000 1.000000000
vn 0.000000000 0.000000000 -1.000000000
vn 0.000000000 0.000000000 1.000000000
vn 0.000000000 0.000000000 -1.000000000
vn 0.000000000 0.000000000 1.000000000
vn -0.000000000 0.000000000 -1.000000000
vn -0.000000000 0.000000000 1.000000000
vn 0.000000000 -0.000000000 -1.000000000
vn 0.000000000 0.000000000 1.000000000
vn -0.000000000 0.000000000 -1.000000000
vn -0.000000000 0.000000000 1.000000000
vn 0.000000000 -0.000000000 -1.000000000
vn 0.000000000 0.000000000 1.000000000
vn 0.000000000 0.000000000 -1.000000000
vn 0.000000000 0.000000000 1.000000000
vn 0.000000000 0.000000000 -1.000000000
vn 0.000000000 0.000000000 1.000000000
vn -0.000000000 0.000000000 -1.000000000
f 1//1 2//1 3//1 4//1
f 2//2 5//2 6//2 3//2
f 5//3 7//3 8//3 6//3
f 7//4 9//4 10//4 8//4
f 9//5 11//5 12//5 10//5
f 11//6 13//6 14//6 12//6
f 13//7 15//7 16//7 14//7
f 15//8 17//8 18//8 16//8
f 17//9 19//9 20//9 18//9
f 19//10 21//10 22//10 20//10
f 21//11 23//11 24//11 22//11
f 23//12 25//12 26//12 24//12
f 25//13 27//13 28//13 26//13
f 27//14 29//14 30//14 28//14
f 29//15 31//15 32//15 30//15
f 31//16 33//16 34//16 32//16
f 33//17 35//17 36//17 34//17
f 35//18 37//18 38//18 36//18
f 37//19 39//19 40//19 38//19
f 39//20 41//20 42//20 40//20
f 41//21 43//21 44//21 42//21
f 43//22 45//22 46//22 44//22
f 45//23 47//23 48//23 46//23
f 47//24 49//24 50//24 48//24
f 49//25 51//25 52//25 50//25
f 51//26 53//26 54//26 52//26
f 53//27 55//27 56//27 54//27
f 55//28 57//28 58//28 56//28
f 57//29 1//29 4//29 58//29
f 34//30 28//30 30//30
f 29//31 27//31 33//31
f 32//32 34//32 30//32
f 29//33 33//33 31//33
f 10//34 48//34 50//34
f 49//35 47//35 9//35
f 52//36 10//36 50//36
f 49//37 9//37 51//37
f 8//38 52//38 54//38
f 53//39 51//39 7//39
f 3//40 8//40 54//40
f 53//41 7//41 2//41
f 56//42 3//42 54//42
f 53//43 2//43 55//43
f 4//44 3//44 56//44
f 55//45 2//45 1//45
f 58//46 4//46 56//46
f 55//47 1//47 57//47
f 42//48 18//48 20//48
f 19//49 17//49 41//49
f 40//50 42//50 20//50
f 19//51 41//51 39//51
f 36//52 26//52 28//52
f 27//53 25//53 35//53
f 34//54 36//54 28//54
f 27//55 35//55 33//55
f 14//56 46//56 48//56
f 47//57 45//57 13//57
f 12//58 14//58 48//58
f 47//59 13//59 11//59
f 10//60 12//60 48//60
f 47//61 11//61 9//61
f 3//62 6//62 8//62
f 7//63 5//63 2//63
f 16//64 46//64 14//64
f 13//65 45//65 15//65
f 44//66 46//66 16//66
f 15//67 45//67 43//67
f 18//68 44//68 16//68
f 15//69 43//69 17//69
f 42//70 44//70 18//70
f 17//71 43//71 41//71
f 36//72 24//72 26//72
f 25//73 23//73 35//73
f 38//74 24//74 36//74
f 35//75 23//75 37//75
f 22//76 24//76 38//76
f 37//77 23//77 21//77
