# Generated from CN441122_filled_aids.yaml
mtllib chart_obstacle_022.mtl
o chart_obstacle_022
usemtl chart_land
v -100.096743 50.175204 -5.000000
v -110.682529 35.589418 -5.000000
v -110.682529 35.589418 3.000000
v -100.096743 50.175204 3.000000
v -114.682529 21.589418 -5.000000
v -114.682529 21.589418 3.000000
v -112.096743 14.175204 -5.000000
v -112.096743 14.175204 3.000000
v -24.096743 -21.824796 -5.000000
v -24.096743 -21.824796 3.000000
v -12.682529 -23.824796 -5.000000
v -12.682529 -23.824796 3.000000
v -12.682529 -19.824796 -5.000000
v -12.682529 -19.824796 3.000000
v -17.268316 -17.824796 -5.000000
v -17.268316 -17.824796 3.000000
v -109.268316 18.175204 -5.000000
v -109.268316 18.175204 3.000000
v -106.682529 32.760990 -5.000000
v -106.682529 32.760990 3.000000
v -98.682529 44.760990 -5.000000
v -98.682529 44.760990 3.000000
v -96.096743 46.175204 -5.000000
v -96.096743 46.175204 3.000000
v 147.903257 -49.824796 -5.000000
v 147.903257 -49.824796 3.000000
v 155.317471 -49.824796 -5.000000
v 155.317471 -49.824796 3.000000
v 155.317471 -45.824796 -5.000000
v 155.317471 -45.824796 3.000000
v 124.731684 -33.824796 -5.000000
v 124.731684 -33.824796 3.000000
v -93.268316 50.175204 -5.000000
v -93.268316 50.175204 3.000000
vn -0.809317890 0.587370882 0.000000000
vn -0.961523948 0.274721128 0.000000000
vn -0.944222664 -0.329307698 0.000000000
vn -0.378632846 -0.925546956 0.000000000
vn -0.172590706 -0.984993628 0.000000000
vn 1.000000000 0.000000000 0.000000000
vn 0.399764669 0.916617810 0.000000000
vn 0.364399349 0.931242780 0.000000000
vn 0.984646640 -0.174559429 0.000000000
vn 0.832050294 -0.554700196 0.000000000
vn 0.479841668 -0.877355101 0.000000000
vn -0.366124309 -0.930565952 0.000000000
vn 0.000000000 -1.000000000 0.000000000
vn 1.000000000 0.000000000 0.000000000
vn 0.365234556 0.930915527 0.000000000
vn 0.359552672 0.933124791 0.000000000
vn 0.000000000 1.000000000 0.000000000
vn 0.000000000 0.000000000 1.000000000
vn 0.000000000 0.000000000 -1.000000000
vn 0.000000000 0.000000000 1.000000000
vn 0.000000000 0.000000000 -1.000000000
vn 0.000000000 0.000000000 1.000000000
vn 0.000000000 0.000000000 -1.000000000
vn 0.000000000 0.000000000 1.000000000
vn 0.000000000 0.000000000 -1.000000000
vn 0.000000000 0.000000000 1.000000000
vn 0.000000000 0.000000000 -1.000000000
vn 0.000000000 -0.000000000 1.000000000
vn 0.000000000 0.000000000 -1.000000000
vn -0.000000000 0.000000000 1.000000000
vn -0.000000000 0.000000000 -1.000000000
vn 0.000000000 -0.000000000 1.000000000
vn 0.000000000 0.000000000 -1.000000000
vn 0.000000000 0.000000000 1.000000000
vn 0.000000000 -0.000000000 -1.000000000
vn 0.000000000 -0.000000000 1.000000000
vn 0.000000000 0.000000000 -1.000000000
vn 0.000000000 0.000000000 1.000000000
vn 0.000000000 -0.000000000 -1.000000000
vn 0.000000000 -0.000000000 1.000000000
vn 0.000000000 0.000000000 -1.000000000
f 1//1 2//1 3//1 4//1
f 2//2 5//2 6//2 3//2
f 5//3 7//3 8//3 6//3
f 7//4 9//4 10//4 8//4
f 9//5 11//5 12//5 10//5
f 11//6 13//6 14//6 12//6
f 13//7 15//7 16//7 14//7
f 15//8 17//8 18//8 16//8
f 17//9 19//9 20//9 18//9
f 19//10 21//10 22//10 20//10
f 21//11 23//11 24//11 22//11
f 23//12 25//12 26//12 24//12
f 25//13 27//13 28//13 26//13
f 27//14 29//14 30//14 28//14
f 29//15 31//15 32//15 30//15
f 31//16 33//16 34//16 32//16
f 33//17 1//17 4//17 34//17
f 18//18 6//18 8//18
f 7//19 5//19 17//19
f 10//20 18//20 8//20
f 7//21 17//21 9//21
f 12//22 16//22 10//22
f 9//23 15//23 11//23
f 14//24 16//24 12//24
f 11//25 15//25 13//25
f 30//26 32//26 26//26
f 25//27 31//27 29//27
f 28//28 30//28 26//28
f 25//29 29//29 27//29
f 4//30 24//30 34//30
f 33//31 23//31 1//31
f 22//32 24//32 4//32
f 1//33 23//33 21//33
f 3//34 22//34 4//34
f 1//35 21//35 2//35
f 20//36 22//36 3//36
f 2//37 21//37 19//37
f 6//38 20//38 3//38
f 2//39 19//39 5//39
f 18//40 20//40 6//40
f 5//41 19//41 17//41
