# Generated from CN441122_filled_aids.yaml
mtllib chart_obstacle_063.mtl
o chart_obstacle_063
usemtl chart_land
v -5.530708 5.938110 -5.000000
v -5.530708 -4.061890 -5.000000
v -5.530708 -4.061890 3.000000
v -5.530708 5.938110 3.000000
v 1.883506 -6.061890 -5.000000
v 1.883506 -6.061890 3.000000
v 6.469292 -1.476103 -5.000000
v 6.469292 -1.476103 3.000000
v 6.469292 3.352324 -5.000000
v 6.469292 3.352324 3.000000
vn -1.000000000 0.000000000 0.000000000
vn -0.260442788 -0.965489282 0.000000000
vn 0.707106858 -0.707106704 0.000000000
vn 1.000000000 0.000000000 0.000000000
vn 0.210647210 0.977562148 0.000000000
vn 0.000000000 0.000000000 1.000000000
vn 0.000000000 0.000000000 -1.000000000
vn 0.000000000 -0.000000000 1.000000000
vn 0.000000000 0.000000000 -1.000000000
vn 0.000000000 -0.000000000 1.000000000
vn 0.000000000 0.000000000 -1.000000000
f 1//1 2//1 3//1 4//1
f 2//2 5//2 6//2 3//2
f 5//3 7//3 8//3 6//3
f 7//4 9//4 10//4 8//4
f 9//5 1//5 4//5 10//5
f 10//6 4//6 3//6
f 2//7 1//7 9//7
f 8//8 10//8 3//8
f 2//9 9//9 7//9
f 6//10 8//10 3//10
f 2//11 7//11 5//11
