# Generated from CN441122_filled_aids.yaml
mtllib chart_obstacle_069.mtl
o chart_obstacle_069
usemtl chart_land
v 5.973814 4.839981 -5.000000
v -6.026186 4.839981 -5.000000
v -6.026186 4.839981 3.000000
v 5.973814 4.839981 3.000000
v -4.026186 -7.160019 -5.000000
v -4.026186 -7.160019 3.000000
v 5.973814 -2.574233 -5.000000
v 5.973814 -2.574233 3.000000
vn 0.000000000 1.000000000 0.000000000
vn -0.986393924 -0.164398987 0.000000000
vn 0.416838941 -0.908980361 0.000000000
vn 1.000000000 0.000000000 0.000000000
vn 0.000000000 0.000000000 1.000000000
vn 0.000000000 0.000000000 -1.000000000
vn 0.000000000 0.000000000 1.000000000
vn 0.000000000 0.000000000 -1.000000000
f 1//1 2//1 3//1 4//1
f 2//2 5//2 6//2 3//2
f 5//3 7//3 8//3 6//3
f 7//4 1//4 4//4 8//4
f 8//5 3//5 6//5
f 5//6 2//6 7//6
f 4//7 3//7 8//7
f 7//8 2//8 1//8
