# Generated from CN441122_filled_aids.yaml
mtllib chart_obstacle_011.mtl
o chart_obstacle_011
usemtl chart_land
v -579.530987 342.785821 -5.000000
v -579.530987 336.785821 -5.000000
v -579.530987 336.785821 3.000000
v -579.530987 342.785821 3.000000
v 433.054800 -295.214179 -5.000000
v 433.054800 -295.214179 3.000000
v 444.469013 -299.214179 -5.000000
v 444.469013 -299.214179 3.000000
v 441.883227 -293.214179 -5.000000
v 441.883227 -293.214179 3.000000
v 429.883227 -285.214179 -5.000000
v 429.883227 -285.214179 3.000000
v 288.469013 -197.799966 -5.000000
v 288.469013 -197.799966 3.000000
v 366.469013 -82.628393 -5.000000
v 366.469013 -82.628393 3.000000
v 366.469013 -77.214179 -5.000000
v 366.469013 -77.214179 3.000000
v 362.469013 -77.214179 -5.000000
v 362.469013 -77.214179 3.000000
v 284.469013 -193.799966 -5.000000
v 284.469013 -193.799966 3.000000
v 279.883227 -193.214179 -5.000000
v 279.883227 -193.214179 3.000000
v 72.883227 -62.214179 -5.000000
v 72.883227 -62.214179 3.000000
v 136.469013 37.371607 -5.000000
v 136.469013 37.371607 3.000000
v 138.469013 46.785821 -5.000000
v 138.469013 46.785821 3.000000
v 134.469013 46.785821 -5.000000
v 134.469013 46.785821 3.000000
v 67.054800 -59.214179 -5.000000
v 67.054800 -59.214179 3.000000
v -91.530987 40.200034 -5.000000
v -91.530987 40.200034 3.000000
v -19.530987 147.371607 -5.000000
v -19.530987 147.371607 3.000000
v -19.530987 152.785821 -5.000000
v -19.530987 152.785821 3.000000
v -25.530987 150.200034 -5.000000
v -25.530987 150.200034 3.000000
v -91.530987 48.200034 -5.000000
v -91.530987 48.200034 3.000000
v -98.116773 42.785821 -5.000000
v -98.116773 42.785821 3.000000
vn -1.000000000 0.000000000 0.000000000
vn -0.529477049 -0.848324263 0.000000000
vn -0.330720560 -0.943728728 0.000000000
vn 0.918347502 0.395775019 0.000000000
vn 0.554700196 0.832050294 0.000000000
vn 0.525798236 0.850609320 0.000000000
vn 0.827983621 -0.560752283 0.000000000
vn 1.000000000 0.000000000 0.000000000
vn 0.000000000 1.000000000 0.000000000
vn -0.831140585 0.556062341 0.000000000
vn 0.126710107 0.991939791 0.000000000
vn 0.534760699 0.845003547 0.000000000
vn 0.842843933 -0.538158066 0.000000000
vn 0.978169845 -0.207807013 0.000000000
vn 0.000000000 1.000000000 0.000000000
vn -0.843806880 0.536646950 0.000000000
vn 0.531143732 0.847281734 0.000000000
vn 0.830070755 -0.557658087 0.000000000
vn 1.000000000 0.000000000 0.000000000
vn -0.395775148 0.918347446 0.000000000
vn -0.839570157 0.543251278 0.000000000
vn -0.635051750 0.772469595 0.000000000
vn 0.528877958 0.848697888 0.000000000
vn 0.000000000 0.000000000 1.000000000
vn 0.000000000 0.000000000 -1.000000000
vn 0.000000000 0.000000000 1.000000000
vn 0.000000000 0.000000000 -1.000000000
vn 0.000000000 0.000000000 1.000000000
vn 0.000000000 0.000000000 -1.000000000
vn 0.000000000 0.000000000 1.000000000
vn 0.000000000 0.000000000 -1.000000000
vn 0.000000000 0.000000000 1.000000000
vn 0.000000000 0.000000000 -1.000000000
vn 0.000000000 0.000000000 1.000000000
vn 0.000000000 0.000000000 -1.000000000
vn 0.000000000 0.000000000 1.000000000
vn 0.000000000 0.000000000 -1.000000000
vn -0.000000000 0.000000000 1.000000000
vn -0.000000000 -0.000000000 -1.000000000
vn -0.000000000 0.000000000 1.000000000
vn 0.000000000 -0.000000000 -1.000000000
vn 0.000000000 0.000000000 1.000000000
vn 0.000000000 -0.000000000 -1.000000000
vn 0.000000000 -0.000000000 1.000000000
vn 0.000000000 0.000000000 -1.000000000
vn 0.000000000 0.000000000 1.000000000
vn 0.000000000 0.000000000 -1.000000000
vn 0.000000000 0.000000000 1.000000000
vn 0.000000000 0.000000000 -1.000000000
vn 0.000000000 -0.000000000 1.000000000
vn 0.000000000 0.000000000 -1.000000000
vn 0.000000000 0.000000000 1.000000000
vn 0.000000000 0.000000000 -1.000000000
vn 0.000000000 0.000000000 1.000000000
vn 0.000000000 0.000000000 -1.000000000
vn 0.000000000 0.000000000 1.000000000
vn 0.000000000 0.000000000 -1.000000000
vn 0.000000000 0.000000000 1.000000000
vn -0.000000000 0.000000000 -1.000000000
vn -0.000000000 0.000000000 1.000000000
vn -0.000000000 0.000000000 -1.000000000
vn -0.000000000 0.000000000 1.000000000
vn 0.000000000 0.000000000 -1.000000000
f 1//1 2//1 3//1 4//1
f 2//2 5//2 6//2 3//2
f 5//3 7//3 8//3 6//3
f 7//4 9//4 10//4 8//4
f 9//5 11//5 12//5 10//5
f 11//6 13//6 14//6 12//6
f 13//7 15//7 16//7 14//7
f 15//8 17//8 18//8 16//8
f 17//9 19//9 20//9 18//9
f 19//10 21//10 22//10 20//10
f 21//11 23//11 24//11 22//11
f 23//12 25//12 26//12 24//12
f 25//13 27//13 28//13 26//13
f 27//14 29//14 30//14 28//14
f 29//15 31//15 32//15 30//15
f 31//16 33//16 34//16 32//16
f 33//17 35//17 36//17 34//17
f 35//18 37//18 38//18 36//18
f 37//19 39//19 40//19 38//19
f 39//20 41//20 42//20 40//20
f 41//21 43//21 44//21 42//21
f 43//22 45//22 46//22 44//22
f 45//23 1//23 4//23 46//23
f 6//24 46//24 3//24
f 2//25 45//25 5//25
f 34//26 46//26 6//26
f 5//27 45//27 33//27
f 24//28 34//28 6//28
f 5//29 33//29 23//29
f 14//30 24//30 6//30
f 5//31 23//31 13//31
f 12//32 14//32 6//32
f 5//33 13//33 11//33
f 10//34 12//34 6//34
f 5//35 11//35 9//35
f 8//36 10//36 6//36
f 5//37 9//37 7//37
f 20//38 16//38 18//38
f 17//39 15//39 19//39
f 42//40 38//40 40//40
f 39//41 37//41 41//41
f 44//42 38//42 42//42
f 41//43 37//43 43//43
f 36//44 44//44 46//44
f 45//45 43//45 35//45
f 34//46 36//46 46//46
f 45//47 35//47 33//47
f 28//48 32//48 34//48
f 33//49 31//49 27//49
f 26//50 28//50 34//50
f 33//51 27//51 25//51
f 24//52 26//52 34//52
f 33//53 25//53 23//53
f 14//54 22//54 24//54
f 23//55 21//55 13//55
f 16//56 22//56 14//56
f 13//57 21//57 15//57
f 20//58 22//58 16//58
f 15//59 21//59 19//59
f 32//60 28//60 30//60
f 29//61 27//61 31//61
f 44//62 36//62 38//62
f 37//63 35//63 43//63
