# Generated from CN441122_filled_aids.yaml
mtllib chart_obstacle_035.mtl
o chart_obstacle_035
usemtl chart_land
v -33.317728 29.394661 -5.000000
v -24.731942 17.394661 -5.000000
v -24.731942 17.394661 3.000000
v -33.317728 29.394661 3.000000
v 21.268058 -22.605339 -5.000000
v 21.268058 -22.605339 3.000000
v 29.682272 -29.019552 -5.000000
v 29.682272 -29.019552 3.000000
v 33.096485 -25.605339 -5.000000
v 33.096485 -25.605339 3.000000
v -23.903515 25.394661 -5.000000
v -23.903515 25.394661 3.000000
vn -0.813272993 -0.581882323 0.000000000
vn -0.656178715 -0.754605522 0.000000000
vn -0.606245521 -0.795277542 0.000000000
vn 0.707106781 -0.707106781 0.000000000
vn 0.666794859 0.745241314 0.000000000
vn 0.391054476 0.920367533 0.000000000
vn 0.000000000 0.000000000 1.000000000
vn 0.000000000 0.000000000 -1.000000000
vn 0.000000000 0.000000000 1.000000000
vn 0.000000000 0.000000000 -1.000000000
vn 0.000000000 0.000000000 1.000000000
vn 0.000000000 0.000000000 -1.000000000
vn 0.000000000 -0.000000000 1.000000000
vn 0.000000000 0.000000000 -1.000000000
f 1//1 2//1 3//1 4//1
f 2//2 5//2 6//2 3//2
f 5//3 7//3 8//3 6//3
f 7//4 9//4 10//4 8//4
f 9//5 11//5 12//5 10//5
f 11//6 1//6 4//6 12//6
f 12//7 4//7 3//7
f 2//8 1//8 11//8
f 6//9 12//9 3//9
f 2//10 11//10 5//10
f 10//11 12//11 6//11
f 5//12 11//12 9//12
f 8//13 10//13 6//13
f 5//14 9//14 7//14
