# Generated from CN441122_filled_aids.yaml
mtllib chart_obstacle_066.mtl
o chart_obstacle_066
usemtl chart_land
v -5.938110 5.530708 -5.000000
v -3.352324 -6.469292 -5.000000
v -3.352324 -6.469292 3.000000
v -5.938110 5.530708 3.000000
v 1.476103 -6.469292 -5.000000
v 1.476103 -6.469292 3.000000
v 6.061890 -1.883506 -5.000000
v 6.061890 -1.883506 3.000000
v 4.061890 5.530708 -5.000000
v 4.061890 5.530708 3.000000
vn -0.977562148 -0.210647210 0.000000000
vn 0.000000000 -1.000000000 0.000000000
vn 0.707106704 -0.707106858 0.000000000
vn 0.965489282 0.260442788 0.000000000
vn 0.000000000 1.000000000 0.000000000
vn 0.000000000 0.000000000 1.000000000
vn 0.000000000 0.000000000 -1.000000000
vn 0.000000000 0.000000000 1.000000000
vn 0.000000000 0.000000000 -1.000000000
vn 0.000000000 0.000000000 1.000000000
vn 0.000000000 0.000000000 -1.000000000
f 1//1 2//1 3//1 4//1
f 2//2 5//2 6//2 3//2
f 5//3 7//3 8//3 6//3
f 7//4 9//4 10//4 8//4
f 9//5 1//5 4//5 10//5
f 6//6 4//6 3//6
f 2//7 1//7 5//7
f 10//8 4//8 6//8
f 5//9 1//9 9//9
f 8//10 10//10 6//10
f 5//11 9//11 7//11
