# Generated from CN441122_filled_aids.yaml
mtllib chart_obstacle_003.mtl
o chart_obstacle_003
usemtl chart_land
v -977.438367 1384.011488 -5.000000
v -985.024154 1368.425701 -5.000000
v -985.024154 1368.425701 3.000000
v -977.438367 1384.011488 3.000000
v -1018.024154 1378.011488 -5.000000
v -1018.024154 1378.011488 3.000000
v -1018.024154 1348.597274 -5.000000
v -1018.024154 1348.597274 3.000000
v -966.024154 -757.988512 -5.000000
v -966.024154 -757.988512 3.000000
v 1611.390060 -693.988512 -5.000000
v 1611.390060 -693.988512 3.000000
v 1631.975846 -695.402726 -5.000000
v 1631.975846 -695.402726 3.000000
v 1631.975846 -757.988512 -5.000000
v 1631.975846 -757.988512 3.000000
v 2007.390060 -757.988512 -5.000000
v 2007.390060 -757.988512 3.000000
v 1976.390060 -724.988512 -5.000000
v 1976.390060 -724.988512 3.000000
v 2049.975846 -653.402726 -5.000000
v 2049.975846 -653.402726 3.000000
v 2049.975846 -649.988512 -5.000000
v 2049.975846 -649.988512 3.000000
v 2044.561633 -649.988512 -5.000000
v 2044.561633 -649.988512 3.000000
v 1972.975846 -721.574299 -5.000000
v 1972.975846 -721.574299 3.000000
v 1855.975846 -596.574299 -5.000000
v 1855.975846 -596.574299 3.000000
v 1795.390060 -537.988512 -5.000000
v 1795.390060 -537.988512 3.000000
v 1659.390060 -431.988512 -5.000000
v 1659.390060 -431.988512 3.000000
v 1509.390060 -333.988512 -5.000000
v 1509.390060 -333.988512 3.000000
v 1468.390060 -310.988512 -5.000000
v 1468.390060 -310.988512 3.000000
v 1475.975846 -303.402726 -5.000000
v 1475.975846 -303.402726 3.000000
v 1473.975846 -285.988512 -5.000000
v 1473.975846 -285.988512 3.000000
v 1470.390060 -284.988512 -5.000000
v 1470.390060 -284.988512 3.000000
v 1501.975846 -253.402726 -5.000000
v 1501.975846 -253.402726 3.000000
v 1501.975846 -249.988512 -5.000000
v 1501.975846 -249.988512 3.000000
v 1496.561633 -249.988512 -5.000000
v 1496.561633 -249.988512 3.000000
v 1464.561633 -283.988512 -5.000000
v 1464.561633 -283.988512 3.000000
v 1450.561633 -285.988512 -5.000000
v 1450.561633 -285.988512 3.000000
v 1439.390060 -293.988512 -5.000000
v 1439.390060 -293.988512 3.000000
v 1121.390060 -95.988512 -5.000000
v 1121.390060 -95.988512 3.000000
v 1045.390060 -51.988512 -5.000000
v 1045.390060 -51.988512 3.000000
v 943.390060 14.011488 -5.000000
v 943.390060 14.011488 3.000000
v 743.390060 134.011488 -5.000000
v 743.390060 134.011488 3.000000
v 665.390060 190.011488 -5.000000
v 665.390060 190.011488 3.000000
v 107.390060 536.011488 -5.000000
v 107.390060 536.011488 3.000000
v 103.975846 540.597274 -5.000000
v 103.975846 540.597274 3.000000
v 137.390060 568.011488 -5.000000
v 137.390060 568.011488 3.000000
v 152.561633 568.011488 -5.000000
v 152.561633 568.011488 3.000000
v 214.561633 524.011488 -5.000000
v 214.561633 524.011488 3.000000
v 219.975846 524.011488 -5.000000
v 219.975846 524.011488 3.000000
v 221.975846 528.597274 -5.000000
v 221.975846 528.597274 3.000000
v 217.390060 538.011488 -5.000000
v 217.390060 538.011488 3.000000
v 159.975846 579.425701 -5.000000
v 159.975846 579.425701 3.000000
v 152.390060 599.011488 -5.000000
v 152.390060 599.011488 3.000000
v 165.975846 612.597274 -5.000000
v 165.975846 612.597274 3.000000
v 169.975846 626.597274 -5.000000
v 169.975846 626.597274 3.000000
v 187.975846 638.011488 -5.000000
v 187.975846 638.011488 3.000000
v 183.975846 655.425701 -5.000000
v 183.975846 655.425701 3.000000
v 161.975846 701.425701 -5.000000
v 161.975846 701.425701 3.000000
v 163.975846 734.011488 -5.000000
v 163.975846 734.011488 3.000000
v 130.561633 726.011488 -5.000000
v 130.561633 726.011488 3.000000
v 125.975846 721.425701 -5.000000
v 125.975846 721.425701 3.000000
v 127.975846 713.425701 -5.000000
v 127.975846 713.425701 3.000000
v 112.975846 690.425701 -5.000000
v 112.975846 690.425701 3.000000
v 103.975846 704.011488 -5.000000
v 103.975846 704.011488 3.000000
v 96.561633 704.011488 -5.000000
v 96.561633 704.011488 3.000000
v 87.975846 698.011488 -5.000000
v 87.975846 698.011488 3.000000
v 97.561633 679.011488 -5.000000
v 97.561633 679.011488 3.000000
v 68.561633 654.011488 -5.000000
v 68.561633 654.011488 3.000000
v 61.975846 657.425701 -5.000000
v 61.975846 657.425701 3.000000
v 59.975846 668.011488 -5.000000
v 59.975846 668.011488 3.000000
v 56.561633 668.011488 -5.000000
v 56.561633 668.011488 3.000000
v 8.561633 622.011488 -5.000000
v 8.561633 622.011488 3.000000
v -1.438367 622.011488 -5.000000
v -1.438367 622.011488 3.000000
v -115.438367 552.011488 -5.000000
v -115.438367 552.011488 3.000000
v -119.024154 550.425701 -5.000000
v -119.024154 550.425701 3.000000
v -122.024154 553.425701 -5.000000
v -122.024154 553.425701 3.000000
v -122.024154 561.425701 -5.000000
v -122.024154 561.425701 3.000000
v -130.024154 575.425701 -5.000000
v -130.024154 575.425701 3.000000
v -140.609940 582.011488 -5.000000
v -140.609940 582.011488 3.000000
v -155.438367 582.011488 -5.000000
v -155.438367 582.011488 3.000000
v -175.024154 572.425701 -5.000000
v -175.024154 572.425701 3.000000
v -203.609940 619.011488 -5.000000
v -203.609940 619.011488 3.000000
v -194.609940 624.011488 -5.000000
v -194.609940 624.011488 3.000000
v -178.024154 642.597274 -5.000000
v -178.024154 642.597274 3.000000
v -178.024154 655.425701 -5.000000
v -178.024154 655.425701 3.000000
v -183.609940 665.011488 -5.000000
v -183.609940 665.011488 3.000000
v -140.609940 704.011488 -5.000000
v -140.609940 704.011488 3.000000
v -70.024154 746.597274 -5.000000
v -70.024154 746.597274 3.000000
v -74.024154 756.011488 -5.000000
v -74.024154 756.011488 3.000000
v -81.438367 756.011488 -5.000000
v -81.438367 756.011488 3.000000
v -125.024154 730.425701 -5.000000
v -125.024154 730.425701 3.000000
v -140.024154 745.425701 -5.000000
v -140.024154 745.425701 3.000000
v -140.024154 754.597274 -5.000000
v -140.024154 754.597274 3.000000
v -122.024154 766.011488 -5.000000
v -122.024154 766.011488 3.000000
v -116.024154 778.597274 -5.000000
v -116.024154 778.597274 3.000000
v -118.024154 786.597274 -5.000000
v -118.024154 786.597274 3.000000
v -87.024154 809.597274 -5.000000
v -87.024154 809.597274 3.000000
v -52.024154 746.011488 -5.000000
v -52.024154 746.011488 3.000000
v -44.609940 746.011488 -5.000000
v -44.609940 746.011488 3.000000
v -26.024154 756.011488 -5.000000
v -26.024154 756.011488 3.000000
v -26.024154 761.425701 -5.000000
v -26.024154 761.425701 3.000000
v -62.024154 822.597274 -5.000000
v -62.024154 822.597274 3.000000
v -47.438367 834.011488 -5.000000
v -47.438367 834.011488 3.000000
v -26.024154 804.597274 -5.000000
v -26.024154 804.597274 3.000000
v -16.609940 798.011488 -5.000000
v -16.609940 798.011488 3.000000
v 91.390060 856.011488 -5.000000
v 91.390060 856.011488 3.000000
v 93.975846 858.597274 -5.000000
v 93.975846 858.597274 3.000000
v 93.975846 889.425701 -5.000000
v 93.975846 889.425701 3.000000
v 81.975846 910.011488 -5.000000
v 81.975846 910.011488 3.000000
v 62.561633 912.011488 -5.000000
v 62.561633 912.011488 3.000000
v 28.561633 902.011488 -5.000000
v 28.561633 902.011488 3.000000
v 8.561633 892.011488 -5.000000
v 8.561633 892.011488 3.000000
v -27.438367 882.011488 -5.000000
v -27.438367 882.011488 3.000000
v -45.024154 870.425701 -5.000000
v -45.024154 870.425701 3.000000
v -52.609940 880.011488 -5.000000
v -52.609940 880.011488 3.000000
v -64.609940 886.011488 -5.000000
v -64.609940 886.011488 3.000000
v -70.024154 894.011488 -5.000000
v -70.024154 894.011488 3.000000
v -100.609940 902.011488 -5.000000
v -100.609940 902.011488 3.000000
v -108.024154 902.011488 -5.000000
v -108.024154 902.011488 3.000000
v -119.438367 888.011488 -5.000000
v -119.438367 888.011488 3.000000
v -126.609940 886.011488 -5.000000
v -126.609940 886.011488 3.000000
v -130.024154 895.425701 -5.000000
v -130.024154 895.425701 3.000000
v -147.024154 910.425701 -5.000000
v -147.024154 910.425701 3.000000
v -156.024154 903.425701 -5.000000
v -156.024154 903.425701 3.000000
v -158.024154 873.425701 -5.000000
v -158.024154 873.425701 3.000000
v -175.438367 858.011488 -5.000000
v -175.438367 858.011488 3.000000
v -186.609940 858.011488 -5.000000
v -186.609940 858.011488 3.000000
v -224.024154 899.425701 -5.000000
v -224.024154 899.425701 3.000000
v -228.024154 905.425701 -5.000000
v -228.024154 905.425701 3.000000
v -230.024154 919.425701 -5.000000
v -230.024154 919.425701 3.000000
v -230.024154 924.597274 -5.000000
v -230.024154 924.597274 3.000000
v -214.609940 938.011488 -5.000000
v -214.609940 938.011488 3.000000
v -198.609940 946.011488 -5.000000
v -198.609940 946.011488 3.000000
v -190.609940 942.011488 -5.000000
v -190.609940 942.011488 3.000000
v -184.024154 948.597274 -5.000000
v -184.024154 948.597274 3.000000
v -192.024154 957.425701 -5.000000
v -192.024154 957.425701 3.000000
v -192.024154 966.011488 -5.000000
v -192.024154 966.011488 3.000000
v -213.024154 974.425701 -5.000000
v -213.024154 974.425701 3.000000
v -230.609940 964.011488 -5.000000
v -230.609940 964.011488 3.000000
v -250.609940 984.011488 -5.000000
v -250.609940 984.011488 3.000000
v -264.609940 982.011488 -5.000000
v -264.609940 982.011488 3.000000
v -276.609940 988.011488 -5.000000
v -276.609940 988.011488 3.000000
v -374.609940 1090.011488 -5.000000
v -374.609940 1090.011488 3.000000
v -396.609940 1106.011488 -5.000000
v -396.609940 1106.011488 3.000000
v -413.438367 1106.011488 -5.000000
v -413.438367 1106.011488 3.000000
v -429.438367 1094.011488 -5.000000
v -429.438367 1094.011488 3.000000
v -446.024154 1075.425701 -5.000000
v -446.024154 1075.425701 3.000000
v -464.024154 1047.425701 -5.000000
v -464.024154 1047.425701 3.000000
v -488.609940 1028.011488 -5.000000
v -488.609940 1028.011488 3.000000
v -532.024154 1117.425701 -5.000000
v -532.024154 1117.425701 3.000000
v -578.024154 1179.425701 -5.000000
v -578.024154 1179.425701 3.000000
v -674.609940 1256.011488 -5.000000
v -674.609940 1256.011488 3.000000
v -688.024154 1269.425701 -5.000000
v -688.024154 1269.425701 3.000000
v -684.024154 1279.425701 -5.000000
v -684.024154 1279.425701 3.000000
v -688.609940 1284.011488 -5.000000
v -688.609940 1284.011488 3.000000
v -700.609940 1280.011488 -5.000000
v -700.609940 1280.011488 3.000000
v -718.609940 1294.011488 -5.000000
v -718.609940 1294.011488 3.000000
v -720.024154 1304.597274 -5.000000
v -720.024154 1304.597274 3.000000
v -716.024154 1308.597274 -5.000000
v -716.024154 1308.597274 3.000000
v -716.024154 1315.425701 -5.000000
v -716.024154 1315.425701 3.000000
v -720.609940 1320.011488 -5.000000
v -720.609940 1320.011488 3.000000
v -734.609940 1310.011488 -5.000000
v -734.609940 1310.011488 3.000000
v -742.609940 1320.011488 -5.000000
v -742.609940 1320.011488 3.000000
v -757.024154 1320.425701 -5.000000
v -757.024154 1320.425701 3.000000
v -756.024154 1334.011488 -5.000000
v -756.024154 1334.011488 3.000000
v -760.609940 1336.011488 -5.000000
v -760.609940 1336.011488 3.000000
v -768.024154 1336.011488 -5.000000
v -768.024154 1336.011488 3.000000
v -770.024154 1327.425701 -5.000000
v -770.024154 1327.425701 3.000000
v -779.438367 1322.011488 -5.000000
v -779.438367 1322.011488 3.000000
v -824.609940 1334.011488 -5.000000
v -824.609940 1334.011488 3.000000
v -828.024154 1337.425701 -5.000000
v -828.024154 1337.425701 3.000000
v -826.024154 1364.011488 -5.000000
v -826.024154 1364.011488 3.000000
v -840.024154 1364.011488 -5.000000
v -840.024154 1364.011488 3.000000
v -843.438367 1344.011488 -5.000000
v -843.438367 1344.011488 3.000000
v -894.609940 1352.011488 -5.000000
v -894.609940 1352.011488 3.000000
v -898.024154 1366.011488 -5.000000
v -898.024154 1366.011488 3.000000
v -910.024154 1366.011488 -5.000000
v -910.024154 1366.011488 3.000000
v -913.438367 1348.011488 -5.000000
v -913.438367 1348.011488 3.000000
v -930.609940 1348.011488 -5.000000
v -930.609940 1348.011488 3.000000
v -968.609940 1358.011488 -5.000000
v -968.609940 1358.011488 3.000000
v -972.024154 1364.597274 -5.000000
v -972.024154 1364.597274 3.000000
v -968.024154 1372.597274 -5.000000
v -968.024154 1372.597274 3.000000
v -968.024154 1382.011488 -5.000000
v -968.024154 1382.011488 3.000000
vn -0.899155365 0.437629558 0.000000000
vn 0.278948189 0.960306153 0.000000000
vn -1.000000000 0.000000000 0.000000000
vn -0.999695477 -0.024676975 0.000000000
vn 0.024823437 -0.999691851 0.000000000
vn -0.068537027 -0.997648573 0.000000000
vn -1.000000000 0.000000000 0.000000000
vn 0.000000000 -1.000000000 0.000000000
vn 0.728848072 0.684675462 0.000000000
vn 0.697298940 -0.716780432 0.000000000
vn 1.000000000 0.000000000 0.000000000
vn 0.000000000 1.000000000 0.000000000
vn -0.707106781 0.707106781 0.000000000
vn 0.730083395 0.683358058 0.000000000
vn 0.695141862 0.718872584 0.000000000
vn 0.614743299 0.788727251 0.000000000
vn 0.546948584 0.837166200 0.000000000
vn 0.489250974 0.872143041 0.000000000
vn 0.707106781 -0.707106781 0.000000000
vn 0.993469421 0.114098681 0.000000000
vn 0.268628382 0.963243890 0.000000000
vn 0.707106781 -0.707106781 0.000000000
vn 1.000000000 0.000000000 0.000000000
vn 0.000000000 1.000000000 0.000000000
vn -0.728199993 0.685364699 0.000000000
vn -0.141421356 0.989949494 0.000000000
vn -0.582216275 0.813033953 0.000000000
vn 0.528558453 0.848896909 0.000000000
vn 0.501036271 0.865426285 0.000000000
vn 0.543251278 0.839570157 0.000000000
vn 0.514495755 0.857492926 0.000000000
vn 0.583206783 0.812323734 0.000000000
vn 0.526983675 0.849875406 0.000000000
vn 0.802104525 0.597183667 0.000000000
vn 0.634280978 -0.773102607 0.000000000
vn 0.000000000 -1.000000000 0.000000000
vn -0.578747006 -0.815507145 0.000000000
vn 0.000000000 -1.000000000 0.000000000
vn 0.916617778 -0.399764742 0.000000000
vn 0.899013403 0.437921113 0.000000000
vn 0.585011345 0.811025108 0.000000000
vn 0.932500907 0.361167633 0.000000000
vn 0.707106781 -0.707106781 0.000000000
vn 0.961523948 -0.274721128 0.000000000
vn 0.535527967 -0.844517494 0.000000000
vn 0.974619563 0.223867610 0.000000000
vn 0.902134222 0.431455497 0.000000000
vn 0.998121770 -0.061261173 0.000000000
vn -0.232838729 0.972515360 0.000000000
vn -0.707106781 0.707106781 0.000000000
vn -0.970142500 -0.242535625 0.000000000
vn -0.837610597 0.546267781 0.000000000
vn 0.833666488 0.552268219 0.000000000
vn 0.000000000 1.000000000 0.000000000
vn -0.572818170 0.819682466 0.000000000
vn -0.892808927 -0.450435590 0.000000000
vn -0.652939622 0.757409962 0.000000000
vn 0.460249221 0.887789758 0.000000000
vn 0.982616272 0.185648223 0.000000000
vn 0.000000000 1.000000000 0.000000000
vn -0.691905363 0.721988205 0.000000000
vn 0.000000000 1.000000000 0.000000000
vn -0.523263033 0.852171226 0.000000000
vn -0.404456061 0.914557431 0.000000000
vn 0.707106781 0.707106781 0.000000000
vn 1.000000000 0.000000000 0.000000000
vn 0.868243142 0.496138938 0.000000000
vn 0.528248440 0.849089857 0.000000000
vn 0.000000000 1.000000000 0.000000000
vn -0.439599221 0.898194035 0.000000000
vn 0.852330452 0.523003634 0.000000000
vn 0.485642931 -0.874157276 0.000000000
vn 0.746110466 -0.665822178 0.000000000
vn 1.000000000 0.000000000 0.000000000
vn 0.864011169 0.503472640 0.000000000
vn 0.671814938 -0.740719035 0.000000000
vn 0.516584180 -0.856236407 0.000000000
vn 0.920367548 0.391054441 0.000000000
vn 0.000000000 1.000000000 0.000000000
vn -0.506242142 0.862391381 0.000000000
vn 0.707106781 0.707106781 0.000000000
vn 1.000000000 0.000000000 0.000000000
vn 0.535527967 -0.844517494 0.000000000
vn 0.902671994 -0.430329259 0.000000000
vn 0.970142500 0.242535625 0.000000000
vn 0.595846924 -0.803098028 0.000000000
vn -0.876054023 -0.482212971 0.000000000
vn 0.000000000 -1.000000000 0.000000000
vn 0.473815829 -0.880623961 0.000000000
vn 1.000000000 0.000000000 0.000000000
vn 0.861831241 0.507195142 0.000000000
vn 0.616283157 -0.787524648 0.000000000
vn -0.808447611 -0.588568144 0.000000000
vn -0.573219089 -0.819402145 0.000000000
vn 0.473126638 -0.880994429 0.000000000
vn 0.707106781 -0.707106781 0.000000000
vn 1.000000000 0.000000000 0.000000000
vn 0.863931849 0.503608737 0.000000000
vn 0.102474984 0.994735582 0.000000000
vn -0.282166324 0.959365502 0.000000000
vn -0.447213595 0.894427191 0.000000000
vn -0.267643864 0.963517910 0.000000000
vn -0.550152949 0.835063909 0.000000000
vn 0.784163732 0.620553979 0.000000000
vn 0.447213595 0.894427191 0.000000000
vn 0.828165722 0.560483306 0.000000000
vn 0.253046709 0.967454062 0.000000000
vn 0.000000000 1.000000000 0.000000000
vn -0.775050454 0.631899355 0.000000000
vn -0.268628347 0.963243900 0.000000000
vn 0.940086087 0.340937164 0.000000000
vn 0.661621637 0.749837855 0.000000000
vn -0.613940614 0.789352217 0.000000000
vn -0.997785158 0.066519011 0.000000000
vn -0.662798969 0.748797387 0.000000000
vn 0.000000000 1.000000000 0.000000000
vn 0.742032871 0.670363497 0.000000000
vn 0.832050294 0.554700196 0.000000000
vn 0.989949494 0.141421356 0.000000000
vn 1.000000000 0.000000000 0.000000000
vn 0.656472653 -0.754349823 0.000000000
vn 0.447213595 -0.894427191 0.000000000
vn -0.447213595 -0.894427191 0.000000000
vn 0.707106781 -0.707106781 0.000000000
vn 0.741018774 0.671484308 0.000000000
vn 1.000000000 0.000000000 0.000000000
vn 0.371932212 0.928259893 0.000000000
vn -0.509549120 0.860441569 0.000000000
vn 0.707106781 0.707106781 0.000000000
vn -0.141421356 0.989949494 0.000000000
vn 0.447213595 0.894427191 0.000000000
vn 0.721104710 0.692826094 0.000000000
vn 0.588171698 0.808736084 0.000000000
vn 0.000000000 1.000000000 0.000000000
vn -0.600000000 0.800000000 0.000000000
vn -0.746110464 0.665822181 0.000000000
vn -0.841178475 0.540757591 0.000000000
vn -0.619730456 0.784814731 0.000000000
vn 0.899569618 0.436777405 0.000000000
vn 0.803098028 0.595846924 0.000000000
vn 0.621311376 0.783563765 0.000000000
vn 0.707106755 0.707106808 0.000000000
vn 0.928476691 -0.371390676 0.000000000
vn 0.707106858 0.707106704 0.000000000
vn -0.316227766 0.948683298 0.000000000
vn 0.613940614 0.789352217 0.000000000
vn 0.991193818 0.132419092 0.000000000
vn 0.707106781 -0.707106781 0.000000000
vn 1.000000000 0.000000000 0.000000000
vn 0.707106858 0.707106704 0.000000000
vn -0.581238194 0.813733471 0.000000000
vn 0.780868809 0.624695048 0.000000000
vn 0.028724569 0.999587364 0.000000000
vn 0.997302012 -0.073407747 0.000000000
vn 0.399764742 0.916617778 0.000000000
vn 0.000000000 1.000000000 0.000000000
vn -0.973925240 0.226869183 0.000000000
vn -0.498543128 0.866864897 0.000000000
vn 0.256748611 0.966478220 0.000000000
vn 0.707106678 0.707106885 0.000000000
vn 0.997182315 -0.075016197 0.000000000
vn 0.000000000 1.000000000 0.000000000
vn -0.985739869 0.168276294 0.000000000
vn 0.154460595 0.987998950 0.000000000
vn 0.971527050 0.236928661 0.000000000
vn 0.000000000 1.000000000 0.000000000
vn -0.982482328 0.186355774 0.000000000
vn 0.000000000 1.000000000 0.000000000
vn 0.254493299 0.967074537 0.000000000
vn 0.887789675 0.460249382 0.000000000
vn 0.894427191 -0.447213595 0.000000000
vn 1.000000000 0.000000000 0.000000000
vn 0.207807034 0.978169840 0.000000000
vn 0.000000000 0.000000000 1.000000000
vn 0.000000000 0.000000000 -1.000000000
vn 0.000000000 0.000000000 1.000000000
vn 0.000000000 0.000000000 -1.000000000
vn 0.000000000 0.000000000 1.000000000
vn 0.000000000 0.000000000 -1.000000000
vn 0.000000000 0.000000000 1.000000000
vn 0.000000000 0.000000000 -1.000000000
vn 0.000000000 0.000000000 1.000000000
vn 0.000000000 0.000000000 -1.000000000
vn 0.000000000 0.000000000 1.000000000
vn 0.000000000 0.000000000 -1.000000000
vn 0.000000000 0.000000000 1.000000000
vn 0.000000000 0.000000000 -1.000000000
vn 0.000000000 0.000000000 1.000000000
vn 0.000000000 0.000000000 -1.000000000
vn 0.000000000 0.000000000 1.000000000
vn 0.000000000 0.000000000 -1.000000000
vn 0.000000000 0.000000000 1.000000000
vn 0.000000000 0.000000000 -1.000000000
vn 0.000000000 0.000000000 1.000000000
vn 0.000000000 0.000000000 -1.000000000
vn 0.000000000 0.000000000 1.000000000
vn 0.000000000 0.000000000 -1.000000000
vn 0.000000000 0.000000000 1.000000000
vn -0.000000000 0.000000000 -1.000000000
vn 0.000000000 0.000000000 1.000000000
vn 0.000000000 0.000000000 -1.000000000
vn 0.000000000 0.000000000 1.000000000
vn -0.000000000 -0.000000000 -1.000000000
vn 0.000000000 -0.000000000 1.000000000
vn 0.000000000 0.000000000 -1.000000000
vn -0.000000000 0.000000000 1.000000000
vn 0.000000000 -0.000000000 -1.000000000
vn -0.000000000 0.000000000 1.000000000
vn 0.000000000 0.000000000 -1.000000000
vn -0.000000000 0.000000000 1.000000000
vn -0.000000000 0.000000000 -1.000000000
vn 0.000000000 -0.000000000 1.000000000
vn 0.000000000 0.000000000 -1.000000000
vn 0.000000000 0.000000000 1.000000000
vn 0.000000000 -0.000000000 -1.000000000
vn 0.000000000 0.000000000 1.000000000
vn 0.000000000 0.000000000 -1.000000000
vn 0.000000000 0.000000000 1.000000000
vn 0.000000000 0.000000000 -1.000000000
vn 0.000000000 0.000000000 1.000000000
vn 0.000000000 0.000000000 -1.000000000
vn 0.000000000 0.000000000 1.000000000
vn 0.000000000 0.000000000 -1.000000000
vn 0.000000000 0.000000000 1.000000000
vn 0.000000000 0.000000000 -1.000000000
vn 0.000000000 0.000000000 1.000000000
vn 0.000000000 0.000000000 -1.000000000
vn 0.000000000 0.000000000 1.000000000
vn 0.000000000 0.000000000 -1.000000000
vn 0.000000000 0.000000000 1.000000000
vn 0.000000000 0.000000000 -1.000000000
vn 0.000000000 0.000000000 1.000000000
vn 0.000000000 0.000000000 -1.000000000
vn 0.000000000 0.000000000 1.000000000
vn 0.000000000 0.000000000 -1.000000000
vn 0.000000000 0.000000000 1.000000000
vn 0.000000000 0.000000000 -1.000000000
vn 0.000000000 -0.000000000 1.000000000
vn 0.000000000 0.000000000 -1.000000000
vn 0.000000000 0.000000000 1.000000000
vn 0.000000000 0.000000000 -1.000000000
vn 0.000000000 0.000000000 1.000000000
vn 0.000000000 0.000000000 -1.000000000
vn 0.000000000 0.000000000 1.000000000
vn 0.000000000 0.000000000 -1.000000000
vn 0.000000000 0.000000000 1.000000000
vn 0.000000000 0.000000000 -1.000000000
vn 0.000000000 0.000000000 1.000000000
vn 0.000000000 0.000000000 -1.000000000
vn 0.000000000 0.000000000 1.000000000
vn 0.000000000 0.000000000 -1.000000000
vn 0.000000000 0.000000000 1.000000000
vn 0.000000000 0.000000000 -1.000000000
vn 0.000000000 0.000000000 1.000000000
vn 0.000000000 0.000000000 -1.000000000
vn 0.000000000 -0.000000000 1.000000000
vn 0.000000000 0.000000000 -1.000000000
vn 0.000000000 0.000000000 1.000000000
vn 0.000000000 0.000000000 -1.000000000
vn 0.000000000 0.000000000 1.000000000
vn 0.000000000 0.000000000 -1.000000000
vn 0.000000000 -0.000000000 1.000000000
vn 0.000000000 0.000000000 -1.000000000
vn -0.000000000 0.000000000 1.000000000
vn -0.000000000 -0.000000000 -1.000000000
vn -0.000000000 0.000000000 1.000000000
vn 0.000000000 0.000000000 -1.000000000
vn 0.000000000 0.000000000 1.000000000
vn 0.000000000 0.000000000 -1.000000000
vn -0.000000000 0.000000000 1.000000000
vn 0.000000000 -0.000000000 -1.000000000
vn 0.000000000 0.000000000 1.000000000
vn 0.000000000 0.000000000 -1.000000000
vn 0.000000000 0.000000000 1.000000000
vn -0.000000000 -0.000000000 -1.000000000
vn 0.000000000 0.000000000 1.000000000
vn -0.000000000 -0.000000000 -1.000000000
vn 0.000000000 0.000000000 1.000000000
vn 0.000000000 -0.000000000 -1.000000000
vn 0.000000000 0.000000000 1.000000000
vn -0.000000000 0.000000000 -1.000000000
vn -0.000000000 0.000000000 1.000000000
vn 0.000000000 -0.000000000 -1.000000000
vn -0.000000000 0.000000000 1.000000000
vn 0.000000000 -0.000000000 -1.000000000
vn -0.000000000 0.000000000 1.000000000
vn 0.000000000 0.000000000 -1.000000000
vn 0.000000000 0.000000000 1.000000000
vn -0.000000000 0.000000000 -1.000000000
vn 0.000000000 0.000000000 1.000000000
vn 0.000000000 0.000000000 -1.000000000
vn -0.000000000 0.000000000 1.000000000
vn -0.000000000 0.000000000 -1.000000000
vn 0.000000000 0.000000000 1.000000000
vn 0.000000000 -0.000000000 -1.000000000
vn 0.000000000 0.000000000 1.000000000
vn -0.000000000 -0.000000000 -1.000000000
vn 0.000000000 0.000000000 1.000000000
vn -0.000000000 -0.000000000 -1.000000000
vn 0.000000000 0.000000000 1.000000000
vn 0.000000000 0.000000000 -1.000000000
vn 0.000000000 0.000000000 1.000000000
vn 0.000000000 0.000000000 -1.000000000
vn -0.000000000 0.000000000 1.000000000
vn 0.000000000 0.000000000 -1.000000000
vn 0.000000000 0.000000000 1.000000000
vn -0.000000000 0.000000000 -1.000000000
vn -0.000000000 0.000000000 1.000000000
vn -0.000000000 0.000000000 -1.000000000
vn 0.000000000 0.000000000 1.000000000
vn 0.000000000 0.000000000 -1.000000000
vn 0.000000000 0.000000000 1.000000000
vn -0.000000000 -0.000000000 -1.000000000
vn 0.000000000 0.000000000 1.000000000
vn 0.000000000 0.000000000 -1.000000000
vn 0.000000000 0.000000000 1.000000000
vn 0.000000000 0.000000000 -1.000000000
vn 0.000000000 0.000000000 1.000000000
vn 0.000000000 0.000000000 -1.000000000
vn 0.000000000 0.000000000 1.000000000
vn 0.000000000 0.000000000 -1.000000000
vn -0.000000000 0.000000000 1.000000000
vn 0.000000000 0.000000000 -1.000000000
vn 0.000000000 0.000000000 1.000000000
vn 0.000000000 0.000000000 -1.000000000
vn 0.000000000 0.000000000 1.000000000
vn 0.000000000 0.000000000 -1.000000000
vn 0.000000000 0.000000000 1.000000000
vn 0.000000000 0.000000000 -1.000000000
vn 0.000000000 0.000000000 1.000000000
vn 0.000000000 0.000000000 -1.000000000
vn 0.000000000 0.000000000 1.000000000
vn 0.000000000 0.000000000 -1.000000000
vn 0.000000000 0.000000000 1.000000000
vn 0.000000000 0.000000000 -1.000000000
vn 0.000000000 0.000000000 1.000000000
vn -0.000000000 0.000000000 -1.000000000
vn -0.000000000 0.000000000 1.000000000
vn 0.000000000 -0.000000000 -1.000000000
vn 0.000000000 0.000000000 1.000000000
vn -0.000000000 -0.000000000 -1.000000000
vn 0.000000000 0.000000000 1.000000000
vn 0.000000000 0.000000000 -1.000000000
vn 0.000000000 0.000000000 1.000000000
vn 0.000000000 0.000000000 -1.000000000
vn 0.000000000 0.000000000 1.000000000
vn 0.000000000 0.000000000 -1.000000000
vn 0.000000000 0.000000000 1.000000000
vn 0.000000000 0.000000000 -1.000000000
vn 0.000000000 0.000000000 1.000000000
vn 0.000000000 0.000000000 -1.000000000
vn 0.000000000 -0.000000000 1.000000000
vn 0.000000000 0.000000000 -1.000000000
vn 0.000000000 -0.000000000 1.000000000
vn 0.000000000 0.000000000 -1.000000000
vn 0.000000000 -0.000000000 1.000000000
vn 0.000000000 0.000000000 -1.000000000
vn 0.000000000 0.000000000 1.000000000
vn 0.000000000 -0.000000000 -1.000000000
vn 0.000000000 0.000000000 1.000000000
vn 0.000000000 0.000000000 -1.000000000
vn 0.000000000 0.000000000 1.000000000
vn 0.000000000 0.000000000 -1.000000000
vn 0.000000000 0.000000000 1.000000000
vn 0.000000000 0.000000000 -1.000000000
vn 0.000000000 0.000000000 1.000000000
vn 0.000000000 0.000000000 -1.000000000
vn 0.000000000 0.000000000 1.000000000
vn 0.000000000 0.000000000 -1.000000000
vn 0.000000000 0.000000000 1.000000000
vn 0.000000000 0.000000000 -1.000000000
vn 0.000000000 0.000000000 1.000000000
vn 0.000000000 0.000000000 -1.000000000
vn 0.000000000 -0.000000000 1.000000000
vn 0.000000000 0.000000000 -1.000000000
vn 0.000000000 0.000000000 1.000000000
vn -0.000000000 0.000000000 -1.000000000
vn 0.000000000 0.000000000 1.000000000
vn -0.000000000 0.000000000 -1.000000000
vn 0.000000000 0.000000000 1.000000000
vn 0.000000000 0.000000000 -1.000000000
vn -0.000000000 0.000000000 1.000000000
vn 0.000000000 0.000000000 -1.000000000
vn 0.000000000 0.000000000 1.000000000
vn -0.000000000 0.000000000 -1.000000000
vn 0.000000000 0.000000000 1.000000000
vn 0.000000000 0.000000000 -1.000000000
vn 0.000000000 0.000000000 1.000000000
vn -0.000000000 -0.000000000 -1.000000000
vn 0.000000000 -0.000000000 1.000000000
vn 0.000000000 0.000000000 -1.000000000
vn 0.000000000 0.000000000 1.000000000
vn 0.000000000 -0.000000000 -1.000000000
vn -0.000000000 0.000000000 1.000000000
vn 0.000000000 0.000000000 -1.000000000
vn -0.000000000 0.000000000 1.000000000
vn 0.000000000 -0.000000000 -1.000000000
vn 0.000000000 0.000000000 1.000000000
vn 0.000000000 0.000000000 -1.000000000
vn 0.000000000 -0.000000000 1.000000000
vn 0.000000000 0.000000000 -1.000000000
vn 0.000000000 0.000000000 1.000000000
vn -0.000000000 0.000000000 -1.000000000
vn 0.000000000 0.000000000 1.000000000
vn 0.000000000 0.000000000 -1.000000000
vn 0.000000000 0.000000000 1.000000000
vn 0.000000000 0.000000000 -1.000000000
vn 0.000000000 0.000000000 1.000000000
vn 0.000000000 0.000000000 -1.000000000
vn 0.000000000 0.000000000 1.000000000
vn 0.000000000 -0.000000000 -1.000000000
vn 0.000000000 0.000000000 1.000000000
vn 0.000000000 0.000000000 -1.000000000
vn 0.000000000 0.000000000 1.000000000
vn 0.000000000 0.000000000 -1.000000000
vn 0.000000000 -0.000000000 1.000000000
vn 0.000000000 0.000000000 -1.000000000
vn 0.000000000 0.000000000 1.000000000
vn 0.000000000 -0.000000000 -1.000000000
vn 0.000000000 0.000000000 1.000000000
vn 0.000000000 0.000000000 -1.000000000
vn 0.000000000 0.000000000 1.000000000
vn 0.000000000 0.000000000 -1.000000000
vn 0.000000000 0.000000000 1.000000000
vn 0.000000000 0.000000000 -1.000000000
vn 0.000000000 0.000000000 1.000000000
vn 0.000000000 0.000000000 -1.000000000
vn 0.000000000 0.000000000 1.000000000
vn 0.000000000 0.000000000 -1.000000000
vn 0.000000000 0.000000000 1.000000000
vn 0.000000000 0.000000000 -1.000000000
vn 0.000000000 -0.000000000 1.000000000
vn 0.000000000 0.000000000 -1.000000000
vn 0.000000000 0.000000000 1.000000000
vn 0.000000000 0.000000000 -1.000000000
vn 0.000000000 0.000000000 1.000000000
vn -0.000000000 0.000000000 -1.000000000
vn 0.000000000 0.000000000 1.000000000
vn -0.000000000 0.000000000 -1.000000000
vn 0.000000000 0.000000000 1.000000000
vn 0.000000000 0.000000000 -1.000000000
vn 0.000000000 0.000000000 1.000000000
vn -0.000000000 0.000000000 -1.000000000
vn 0.000000000 0.000000000 1.000000000
vn 0.000000000 0.000000000 -1.000000000
vn 0.000000000 0.000000000 1.000000000
vn 0.000000000 0.000000000 -1.000000000
vn 0.000000000 0.000000000 1.000000000
vn 0.000000000 0.000000000 -1.000000000
vn -0.000000000 0.000000000 1.000000000
vn 0.000000000 0.000000000 -1.000000000
vn -0.000000000 0.000000000 1.000000000
vn 0.000000000 -0.000000000 -1.000000000
vn 0.000000000 0.000000000 1.000000000
vn 0.000000000 0.000000000 -1.000000000
vn -0.000000000 0.000000000 1.000000000
vn 0.000000000 0.000000000 -1.000000000
vn 0.000000000 0.000000000 1.000000000
vn -0.000000000 -0.000000000 -1.000000000
vn -0.000000000 0.000000000 1.000000000
vn 0.000000000 -0.000000000 -1.000000000
vn -0.000000000 0.000000000 1.000000000
vn -0.000000000 0.000000000 -1.000000000
vn 0.000000000 0.000000000 1.000000000
vn 0.000000000 -0.000000000 -1.000000000
vn 0.000000000 0.000000000 1.000000000
vn 0.000000000 0.000000000 -1.000000000
vn 0.000000000 -0.000000000 1.000000000
vn 0.000000000 0.000000000 -1.000000000
vn -0.000000000 0.000000000 1.000000000
vn 0.000000000 -0.000000000 -1.000000000
vn 0.000000000 0.000000000 1.000000000
vn 0.000000000 -0.000000000 -1.000000000
vn 0.000000000 0.000000000 1.000000000
vn 0.000000000 0.000000000 -1.000000000
vn 0.000000000 0.000000000 1.000000000
vn 0.000000000 0.000000000 -1.000000000
vn 0.000000000 -0.000000000 1.000000000
vn 0.000000000 0.000000000 -1.000000000
vn 0.000000000 -0.000000000 1.000000000
vn 0.000000000 0.000000000 -1.000000000
vn 0.000000000 0.000000000 1.000000000
vn 0.000000000 0.000000000 -1.000000000
vn 0.000000000 0.000000000 1.000000000
vn 0.000000000 -0.000000000 -1.000000000
vn 0.000000000 0.000000000 1.000000000
vn 0.000000000 0.000000000 -1.000000000
vn 0.000000000 0.000000000 1.000000000
vn 0.000000000 0.000000000 -1.000000000
vn 0.000000000 0.000000000 1.000000000
vn 0.000000000 0.000000000 -1.000000000
vn -0.000000000 0.000000000 1.000000000
vn 0.000000000 0.000000000 -1.000000000
vn 0.000000000 0.000000000 1.000000000
vn -0.000000000 -0.000000000 -1.000000000
vn 0.000000000 -0.000000000 1.000000000
vn 0.000000000 0.000000000 -1.000000000
vn 0.000000000 -0.000000000 1.000000000
vn 0.000000000 0.000000000 -1.000000000
vn 0.000000000 0.000000000 1.000000000
vn -0.000000000 -0.000000000 -1.000000000
vn 0.000000000 -0.000000000 1.000000000
vn 0.000000000 0.000000000 -1.000000000
vn -0.000000000 0.000000000 1.000000000
vn 0.000000000 -0.000000000 -1.000000000
f 1//1 2//1 3//1 4//1
f 2//2 5//2 6//2 3//2
f 5//3 7//3 8//3 6//3
f 7//4 9//4 10//4 8//4
f 9//5 11//5 12//5 10//5
f 11//6 13//6 14//6 12//6
f 13//7 15//7 16//7 14//7
f 15//8 17//8 18//8 16//8
f 17//9 19//9 20//9 18//9
f 19//10 21//10 22//10 20//10
f 21//11 23//11 24//11 22//11
f 23//12 25//12 26//12 24//12
f 25//13 27//13 28//13 26//13
f 27//14 29//14 30//14 28//14
f 29//15 31//15 32//15 30//15
f 31//16 33//16 34//16 32//16
f 33//17 35//17 36//17 34//17
f 35//18 37//18 38//18 36//18
f 37//19 39//19 40//19 38//19
f 39//20 41//20 42//20 40//20
f 41//21 43//21 44//21 42//21
f 43//22 45//22 46//22 44//22
f 45//23 47//23 48//23 46//23
f 47//24 49//24 50//24 48//24
f 49//25 51//25 52//25 50//25
f 51//26 53//26 54//26 52//26
f 53//27 55//27 56//27 54//27
f 55//28 57//28 58//28 56//28
f 57//29 59//29 60//29 58//29
f 59//30 61//30 62//30 60//30
f 61//31 63//31 64//31 62//31
f 63//32 65//32 66//32 64//32
f 65//33 67//33 68//33 66//33
f 67//34 69//34 70//34 68//34
f 69//35 71//35 72//35 70//35
f 71//36 73//36 74//36 72//36
f 73//37 75//37 76//37 74//37
f 75//38 77//38 78//38 76//38
f 77//39 79//39 80//39 78//39
f 79//40 81//40 82//40 80//40
f 81//41 83//41 84//41 82//41
f 83//42 85//42 86//42 84//42
f 85//43 87//43 88//43 86//43
f 87//44 89//44 90//44 88//44
f 89//45 91//45 92//45 90//45
f 91//46 93//46 94//46 92//46
f 93//47 95//47 96//47 94//47
f 95//48 97//48 98//48 96//48
f 97//49 99//49 100//49 98//49
f 99//50 101//50 102//50 100//50
f 101//51 103//51 104//51 102//51
f 103//52 105//52 106//52 104//52
f 105//53 107//53 108//53 106//53
f 107//54 109//54 110//54 108//54
f 109//55 111//55 112//55 110//55
f 111//56 113//56 114//56 112//56
f 113//57 115//57 116//57 114//57
f 115//58 117//58 118//58 116//58
f 117//59 119//59 120//59 118//59
f 119//60 121//60 122//60 120//60
f 121//61 123//61 124//61 122//61
f 123//62 125//62 126//62 124//62
f 125//63 127//63 128//63 126//63
f 127//64 129//64 130//64 128//64
f 129//65 131//65 132//65 130//65
f 131//66 133//66 134//66 132//66
f 133//67 135//67 136//67 134//67
f 135//68 137//68 138//68 136//68
f 137//69 139//69 140//69 138//69
f 139//70 141//70 142//70 140//70
f 141//71 143//71 144//71 142//71
f 143//72 145//72 146//72 144//72
f 145//73 147//73 148//73 146//73
f 147//74 149//74 150//74 148//74
f 149//75 151//75 152//75 150//75
f 151//76 153//76 154//76 152//76
f 153//77 155//77 156//77 154//77
f 155//78 157//78 158//78 156//78
f 157//79 159//79 160//79 158//79
f 159//80 161//80 162//80 160//80
f 161//81 163//81 164//81 162//81
f 163//82 165//82 166//82 164//82
f 165//83 167//83 168//83 166//83
f 167//84 169//84 170//84 168//84
f 169//85 171//85 172//85 170//85
f 171//86 173//86 174//86 172//86
f 173//87 175//87 176//87 174//87
f 175//88 177//88 178//88 176//88
f 177//89 179//89 180//89 178//89
f 179//90 181//90 182//90 180//90
f 181//91 183//91 184//91 182//91
f 183//92 185//92 186//92 184//92
f 185//93 187//93 188//93 186//93
f 187//94 189//94 190//94 188//94
f 189//95 191//95 192//95 190//95
f 191//96 193//96 194//96 192//96
f 193//97 195//97 196//97 194//97
f 195//98 197//98 198//98 196//98
f 197//99 199//99 200//99 198//99
f 199//100 201//100 202//100 200//100
f 201//101 203//101 204//101 202//101
f 203//102 205//102 206//102 204//102
f 205//103 207//103 208//103 206//103
f 207//104 209//104 210//104 208//104
f 209//105 211//105 212//105 210//105
f 211//106 213//106 214//106 212//106
f 213//107 215//107 216//107 214//107
f 215//108 217//108 218//108 216//108
f 217//109 219//109 220//109 218//109
f 219//110 221//110 222//110 220//110
f 221//111 223//111 224//111 222//111
f 223//112 225//112 226//112 224//112
f 225//113 227//113 228//113 226//113
f 227//114 229//114 230//114 228//114
f 229//115 231//115 232//115 230//115
f 231//116 233//116 234//116 232//116
f 233//117 235//117 236//117 234//117
f 235//118 237//118 238//118 236//118
f 237//119 239//119 240//119 238//119
f 239//120 241//120 242//120 240//120
f 241//121 243//121 244//121 242//121
f 243//122 245//122 246//122 244//122
f 245//123 247//123 248//123 246//123
f 247//124 249//124 250//124 248//124
f 249//125 251//125 252//125 250//125
f 251//126 253//126 254//126 252//126
f 253//127 255//127 256//127 254//127
f 255//128 257//128 258//128 256//128
f 257//129 259//129 260//129 258//129
f 259//130 261//130 262//130 260//130
f 261//131 263//131 264//131 262//131
f 263//132 265//132 266//132 264//132
f 265//133 267//133 268//133 266//133
f 267//134 269//134 270//134 268//134
f 269//135 271//135 272//135 270//135
f 271//136 273//136 274//136 272//136
f 273//137 275//137 276//137 274//137
f 275//138 277//138 278//138 276//138
f 277//139 279//139 280//139 278//139
f 279//140 281//140 282//140 280//140
f 281//141 283//141 284//141 282//141
f 283//142 285//142 286//142 284//142
f 285//143 287//143 288//143 286//143
f 287//144 289//144 290//144 288//144
f 289//145 291//145 292//145 290//145
f 291//146 293//146 294//146 292//146
f 293//147 295//147 296//147 294//147
f 295//148 297//148 298//148 296//148
f 297//149 299//149 300//149 298//149
f 299//150 301//150 302//150 300//150
f 301//151 303//151 304//151 302//151
f 303//152 305//152 306//152 304//152
f 305//153 307//153 308//153 306//153
f 307//154 309//154 310//154 308//154
f 309//155 311//155 312//155 310//155
f 311//156 313//156 314//156 312//156
f 313//157 315//157 316//157 314//157
f 315//158 317//158 318//158 316//158
f 317//159 319//159 320//159 318//159
f 319//160 321//160 322//160 320//160
f 321//161 323//161 324//161 322//161
f 323//162 325//162 326//162 324//162
f 325//163 327//163 328//163 326//163
f 327//164 329//164 330//164 328//164
f 329//165 331//165 332//165 330//165
f 331//166 333//166 334//166 332//166
f 333//167 335//167 336//167 334//167
f 335//168 337//168 338//168 336//168
f 337//169 339//169 340//169 338//169
f 339//170 341//170 342//170 340//170
f 341//171 343//171 344//171 342//171
f 343//172 345//172 346//172 344//172
f 345//173 1//173 4//173 346//173
f 278//174 8//174 10//174
f 9//175 7//175 277//175
f 144//176 278//176 10//176
f 9//177 277//177 143//177
f 142//178 144//178 10//178
f 9//179 143//179 141//179
f 130//180 142//180 10//180
f 9//181 141//181 129//181
f 66//182 130//182 10//182
f 9//183 129//183 65//183
f 64//184 66//184 10//184
f 9//185 65//185 63//185
f 62//186 64//186 10//186
f 9//187 63//187 61//187
f 60//188 62//188 10//188
f 9//189 61//189 59//189
f 30//190 14//190 16//190
f 15//191 13//191 29//191
f 28//192 30//192 16//192
f 15//193 29//193 27//193
f 20//194 28//194 16//194
f 15//195 27//195 19//195
f 18//196 20//196 16//196
f 15//197 19//197 17//197
f 26//198 20//198 22//198
f 21//199 19//199 25//199
f 24//200 26//200 22//200
f 21//201 25//201 23//201
f 200//202 196//202 198//202
f 197//203 195//203 199//203
f 296//204 300//204 302//204
f 301//205 299//205 295//205
f 304//206 296//206 302//206
f 301//207 295//207 303//207
f 328//208 322//208 324//208
f 323//209 321//209 327//209
f 326//210 328//210 324//210
f 323//211 327//211 325//211
f 344//212 346//212 4//212
f 1//213 345//213 343//213
f 3//214 344//214 4//214
f 1//215 343//215 2//215
f 8//216 3//216 6//216
f 5//217 2//217 7//217
f 340//218 3//218 8//218
f 7//219 2//219 339//219
f 338//220 340//220 8//220
f 7//221 339//221 337//221
f 278//222 338//222 8//222
f 7//223 337//223 277//223
f 284//224 338//224 278//224
f 277//225 337//225 283//225
f 280//226 284//226 278//226
f 277//227 283//227 279//227
f 264//228 276//228 278//228
f 277//229 275//229 263//229
f 238//230 264//230 278//230
f 277//231 263//231 237//231
f 236//232 238//232 278//232
f 277//233 237//233 235//233
f 144//234 236//234 278//234
f 277//235 235//235 143//235
f 152//236 236//236 144//236
f 143//237 235//237 151//237
f 146//238 152//238 144//238
f 143//239 151//239 145//239
f 132//240 140//240 142//240
f 141//241 139//241 131//241
f 130//242 132//242 142//242
f 141//243 131//243 129//243
f 68//244 128//244 130//244
f 129//245 127//245 67//245
f 66//246 68//246 130//246
f 129//247 67//247 65//247
f 12//248 56//248 58//248
f 57//249 55//249 11//249
f 38//250 56//250 12//250
f 11//251 55//251 37//251
f 36//252 38//252 12//252
f 11//253 37//253 35//253
f 34//254 36//254 12//254
f 11//255 35//255 33//255
f 14//256 34//256 12//256
f 11//257 33//257 13//257
f 32//258 34//258 14//258
f 13//259 33//259 31//259
f 30//260 32//260 14//260
f 13//261 31//261 29//261
f 20//262 26//262 28//262
f 27//263 25//263 19//263
f 50//264 46//264 48//264
f 47//265 45//265 49//265
f 52//266 44//266 50//266
f 49//267 43//267 51//267
f 38//268 52//268 54//268
f 53//269 51//269 37//269
f 56//270 38//270 54//270
f 53//271 37//271 55//271
f 40//272 52//272 38//272
f 37//273 51//273 39//273
f 44//274 40//274 42//274
f 41//275 39//275 43//275
f 52//276 40//276 44//276
f 43//277 39//277 51//277
f 192//278 194//278 196//278
f 195//279 193//279 191//279
f 200//280 192//280 196//280
f 195//281 191//281 199//281
f 202//282 192//282 200//282
f 199//283 191//283 201//283
f 276//284 264//284 266//284
f 265//285 263//285 275//285
f 274//286 276//286 266//286
f 265//287 275//287 273//287
f 272//288 274//288 266//288
f 265//289 273//289 271//289
f 268//290 272//290 266//290
f 265//291 271//291 267//291
f 270//292 272//292 268//292
f 267//293 271//293 269//293
f 296//294 298//294 300//294
f 299//295 297//295 295//295
f 304//296 294//296 296//296
f 295//297 293//297 303//297
f 318//298 294//298 304//298
f 303//299 293//299 317//299
f 308//300 318//300 304//300
f 303//301 317//301 307//301
f 306//302 308//302 304//302
f 303//303 307//303 305//303
f 316//304 308//304 310//304
f 309//305 307//305 315//305
f 312//306 316//306 310//306
f 309//307 315//307 311//307
f 314//308 316//308 312//308
f 311//309 315//309 313//309
f 284//310 318//310 320//310
f 319//311 317//311 283//311
f 338//312 284//312 320//312
f 319//313 283//313 337//313
f 336//314 338//314 320//314
f 319//315 337//315 335//315
f 328//316 336//316 320//316
f 319//317 335//317 327//317
f 322//318 328//318 320//318
f 319//319 327//319 321//319
f 330//320 336//320 328//320
f 327//321 335//321 329//321
f 3//322 342//322 344//322
f 343//323 341//323 2//323
f 340//324 342//324 3//324
f 2//325 341//325 339//325
f 330//326 334//326 336//326
f 335//327 333//327 329//327
f 332//328 334//328 330//328
f 329//329 333//329 331//329
f 292//330 318//330 284//330
f 283//331 317//331 291//331
f 286//332 292//332 284//332
f 283//333 291//333 285//333
f 280//334 282//334 284//334
f 283//335 281//335 279//335
f 290//336 286//336 288//336
f 287//337 285//337 289//337
f 292//338 286//338 290//338
f 289//339 285//339 291//339
f 318//340 292//340 294//340
f 293//341 291//341 317//341
f 308//342 316//342 318//342
f 317//343 315//343 307//343
f 240//344 262//344 264//344
f 263//345 261//345 239//345
f 238//346 240//346 264//346
f 263//347 239//347 237//347
f 152//348 234//348 236//348
f 235//349 233//349 151//349
f 166//350 234//350 152//350
f 151//351 233//351 165//351
f 164//352 166//352 152//352
f 151//353 165//353 163//353
f 154//354 164//354 152//354
f 151//355 163//355 153//355
f 148//356 150//356 152//356
f 151//357 149//357 147//357
f 146//358 148//358 152//358
f 151//359 147//359 145//359
f 136//360 138//360 140//360
f 139//361 137//361 135//361
f 132//362 136//362 140//362
f 139//363 135//363 131//363
f 134//364 136//364 132//364
f 131//365 135//365 133//365
f 70//366 126//366 128//366
f 127//367 125//367 69//367
f 68//368 70//368 128//368
f 127//369 69//369 67//369
f 82//370 74//370 76//370
f 75//371 73//371 81//371
f 80//372 82//372 76//372
f 75//373 81//373 79//373
f 78//374 80//374 76//374
f 75//375 79//375 77//375
f 94//376 90//376 92//376
f 91//377 89//377 93//377
f 106//378 90//378 94//378
f 93//379 89//379 105//379
f 96//380 106//380 94//380
f 93//381 105//381 95//381
f 100//382 96//382 98//382
f 97//383 95//383 99//383
f 204//384 190//384 192//384
f 191//385 189//385 203//385
f 202//386 204//386 192//386
f 191//387 203//387 201//387
f 256//388 252//388 254//388
f 253//389 251//389 255//389
f 246//390 252//390 256//390
f 255//391 251//391 245//391
f 244//392 246//392 256//392
f 255//393 245//393 243//393
f 258//394 244//394 256//394
f 255//395 243//395 257//395
f 262//396 258//396 260//396
f 259//397 257//397 261//397
f 242//398 258//398 262//398
f 261//399 257//399 241//399
f 240//400 242//400 262//400
f 261//401 241//401 239//401
f 258//402 242//402 244//402
f 243//403 241//403 257//403
f 252//404 246//404 248//404
f 247//405 245//405 251//405
f 250//406 252//406 248//406
f 247//407 251//407 249//407
f 224//408 226//408 228//408
f 227//409 225//409 223//409
f 230//410 224//410 228//410
f 227//411 223//411 229//411
f 166//412 232//412 234//412
f 233//413 231//413 165//413
f 172//414 232//414 166//414
f 165//415 231//415 171//415
f 168//416 172//416 166//416
f 165//417 171//417 167//417
f 154//418 162//418 164//418
f 163//419 161//419 153//419
f 156//420 162//420 154//420
f 153//421 161//421 155//421
f 70//422 124//422 126//422
f 125//423 123//423 69//423
f 116//424 124//424 70//424
f 69//425 123//425 115//425
f 72//426 116//426 70//426
f 69//427 115//427 71//427
f 86//428 116//428 72//428
f 71//429 115//429 85//429
f 84//430 86//430 72//430
f 71//431 85//431 83//431
f 74//432 84//432 72//432
f 71//433 83//433 73//433
f 82//434 84//434 74//434
f 73//435 83//435 81//435
f 90//436 86//436 88//436
f 87//437 85//437 89//437
f 114//438 86//438 90//438
f 89//439 85//439 113//439
f 106//440 114//440 90//440
f 89//441 113//441 105//441
f 110//442 114//442 106//442
f 105//443 113//443 109//443
f 108//444 110//444 106//444
f 105//445 109//445 107//445
f 96//446 104//446 106//446
f 105//447 103//447 95//447
f 100//448 104//448 96//448
f 95//449 103//449 99//449
f 102//450 104//450 100//450
f 99//451 103//451 101//451
f 112//452 114//452 110//452
f 109//453 113//453 111//453
f 204//454 188//454 190//454
f 189//455 187//455 203//455
f 206//456 188//456 204//456
f 203//457 187//457 205//457
f 216//458 212//458 214//458
f 213//459 211//459 215//459
f 220//460 212//460 216//460
f 215//461 211//461 219//461
f 218//462 220//462 216//462
f 215//463 219//463 217//463
f 230//464 222//464 224//464
f 223//465 221//465 229//465
f 174//466 222//466 230//466
f 229//467 221//467 173//467
f 172//468 174//468 230//468
f 229//469 173//469 171//469
f 232//470 172//470 230//470
f 229//471 171//471 231//471
f 168//472 170//472 172//472
f 171//473 169//473 167//473
f 156//474 160//474 162//474
f 161//475 159//475 155//475
f 158//476 160//476 156//476
f 155//477 159//477 157//477
f 178//478 182//478 176//478
f 175//479 181//479 177//479
f 180//480 182//480 178//480
f 177//481 181//481 179//481
f 118//482 120//482 122//482
f 121//483 119//483 117//483
f 124//484 118//484 122//484
f 121//485 117//485 123//485
f 116//486 118//486 124//486
f 123//487 117//487 115//487
f 86//488 114//488 116//488
f 115//489 113//489 85//489
f 206//490 186//490 188//490
f 187//491 185//491 205//491
f 208//492 186//492 206//492
f 205//493 185//493 207//493
f 212//494 208//494 210//494
f 209//495 207//495 211//495
f 186//496 208//496 212//496
f 211//497 207//497 185//497
f 184//498 186//498 212//498
f 211//499 185//499 183//499
f 220//500 184//500 212//500
f 211//501 183//501 219//501
f 174//502 184//502 220//502
f 219//503 183//503 173//503
f 222//504 174//504 220//504
f 219//505 173//505 221//505
