# Generated from CN441122_filled_aids.yaml
mtllib chart_obstacle_088.mtl
o chart_obstacle_088
usemtl chart_land
v -1.455032 6.535478 -5.000000
v -6.040818 -0.878736 -5.000000
v -6.040818 -0.878736 3.000000
v -1.455032 6.535478 3.000000
v -4.040818 -5.464522 -5.000000
v -4.040818 -5.464522 3.000000
v 3.373395 -5.464522 -5.000000
v 3.373395 -5.464522 3.000000
v 5.959182 3.949691 -5.000000
v 5.959182 3.949691 3.000000
vn -0.850468659 0.526025722 0.000000000
vn -0.916617778 -0.399764742 0.000000000
vn 0.000000000 -1.000000000 0.000000000
vn 0.964287093 -0.264859211 0.000000000
vn 0.329307812 0.944222625 0.000000000
vn 0.000000000 0.000000000 1.000000000
vn 0.000000000 0.000000000 -1.000000000
vn 0.000000000 0.000000000 1.000000000
vn 0.000000000 0.000000000 -1.000000000
vn 0.000000000 0.000000000 1.000000000
vn 0.000000000 0.000000000 -1.000000000
f 1//1 2//1 3//1 4//1
f 2//2 5//2 6//2 3//2
f 5//3 7//3 8//3 6//3
f 7//4 9//4 10//4 8//4
f 9//5 1//5 4//5 10//5
f 8//6 3//6 6//6
f 5//7 2//7 7//7
f 4//8 3//8 8//8
f 7//9 2//9 1//9
f 10//10 4//10 8//10
f 7//11 1//11 9//11
