# Generated from CN441122_filled_aids.yaml
mtllib chart_obstacle_020.mtl
o chart_obstacle_020
usemtl chart_land
v 81.788999 230.635371 -5.000000
v -28.211001 -129.950416 -5.000000
v -28.211001 -129.950416 3.000000
v 81.788999 230.635371 3.000000
v -33.625214 -135.364629 -5.000000
v -33.625214 -135.364629 3.000000
v -107.625214 -175.364629 -5.000000
v -107.625214 -175.364629 3.000000
v -132.796787 -177.364629 -5.000000
v -132.796787 -177.364629 3.000000
v -146.211001 -153.950416 -5.000000
v -146.211001 -153.950416 3.000000
v -146.211001 -162.778843 -5.000000
v -146.211001 -162.778843 3.000000
v -138.211001 -181.364629 -5.000000
v -138.211001 -181.364629 3.000000
v -104.796787 -179.364629 -5.000000
v -104.796787 -179.364629 3.000000
v -26.211001 -137.364629 -5.000000
v -26.211001 -137.364629 3.000000
v 85.788999 223.221157 -5.000000
v 85.788999 223.221157 3.000000
v 85.788999 230.635371 -5.000000
v 85.788999 230.635371 3.000000
vn -0.956484158 0.291784261 0.000000000
vn -0.707106781 0.707106781 0.000000000
vn -0.475517034 0.879706514 0.000000000
vn -0.079205089 0.996858342 0.000000000
vn 0.867689246 0.497107002 0.000000000
vn -1.000000000 0.000000000 0.000000000
vn -0.918523638 -0.395366066 0.000000000
vn 0.059747837 -0.998213502 0.000000000
vn 0.471353286 -0.881944488 0.000000000
vn 0.954993586 -0.296626450 0.000000000
vn 1.000000000 0.000000000 0.000000000
vn 0.000000000 1.000000000 0.000000000
vn 0.000000000 0.000000000 1.000000000
vn 0.000000000 0.000000000 -1.000000000
vn 0.000000000 0.000000000 1.000000000
vn 0.000000000 0.000000000 -1.000000000
vn 0.000000000 0.000000000 1.000000000
vn 0.000000000 0.000000000 -1.000000000
vn 0.000000000 0.000000000 1.000000000
vn 0.000000000 0.000000000 -1.000000000
vn 0.000000000 0.000000000 1.000000000
vn 0.000000000 0.000000000 -1.000000000
vn 0.000000000 0.000000000 1.000000000
vn 0.000000000 0.000000000 -1.000000000
vn 0.000000000 0.000000000 1.000000000
vn 0.000000000 0.000000000 -1.000000000
vn 0.000000000 0.000000000 1.000000000
vn 0.000000000 0.000000000 -1.000000000
vn -0.000000000 0.000000000 1.000000000
vn 0.000000000 0.000000000 -1.000000000
f 1//1 2//1 3//1 4//1
f 2//2 5//2 6//2 3//2
f 5//3 7//3 8//3 6//3
f 7//4 9//4 10//4 8//4
f 9//5 11//5 12//5 10//5
f 11//6 13//6 14//6 12//6
f 13//7 15//7 16//7 14//7
f 15//8 17//8 18//8 16//8
f 17//9 19//9 20//9 18//9
f 19//10 21//10 22//10 20//10
f 21//11 23//11 24//11 22//11
f 23//12 1//12 4//12 24//12
f 10//13 14//13 16//13
f 15//14 13//14 9//14
f 18//15 10//15 16//15
f 15//16 9//16 17//16
f 8//17 10//17 18//17
f 17//18 9//18 7//18
f 6//19 8//19 18//19
f 17//20 7//20 5//20
f 20//21 6//21 18//21
f 17//22 5//22 19//22
f 3//23 6//23 20//23
f 19//24 5//24 2//24
f 22//25 3//25 20//25
f 19//26 2//26 21//26
f 24//27 4//27 22//27
f 21//28 1//28 23//28
f 14//29 10//29 12//29
f 11//30 9//30 13//30
