# Generated from CN441122_filled_aids.yaml
mtllib chart_obstacle_033.mtl
o chart_obstacle_033
usemtl chart_land
v -41.784138 18.962124 -5.000000
v -41.784138 11.547910 -5.000000
v -41.784138 11.547910 3.000000
v -41.784138 18.962124 3.000000
v 50.215862 -20.452090 -5.000000
v 50.215862 -20.452090 3.000000
v 50.215862 -16.452090 -5.000000
v 50.215862 -16.452090 3.000000
v 45.630075 -14.452090 -5.000000
v 45.630075 -14.452090 3.000000
vn -1.000000000 0.000000000 0.000000000
vn -0.328520625 -0.944496797 0.000000000
vn 1.000000000 0.000000000 0.000000000
vn 0.399764669 0.916617810 0.000000000
vn 0.357054796 0.934083440 0.000000000
vn 0.000000000 0.000000000 1.000000000
vn 0.000000000 0.000000000 -1.000000000
vn 0.000000000 0.000000000 1.000000000
vn 0.000000000 0.000000000 -1.000000000
vn 0.000000000 0.000000000 1.000000000
vn 0.000000000 0.000000000 -1.000000000
f 1//1 2//1 3//1 4//1
f 2//2 5//2 6//2 3//2
f 5//3 7//3 8//3 6//3
f 7//4 9//4 10//4 8//4
f 9//5 1//5 4//5 10//5
f 10//6 4//6 3//6
f 2//7 1//7 9//7
f 6//8 10//8 3//8
f 2//9 9//9 5//9
f 8//10 10//10 6//10
f 5//11 9//11 7//11
