# Generated from CN441122_filled_aids.yaml
mtllib chart_obstacle_029.mtl
o chart_obstacle_029
usemtl chart_land
v -31.550599 93.337800 -5.000000
v -31.550599 89.337800 -5.000000
v -31.550599 89.337800 3.000000
v -31.550599 93.337800 3.000000
v -8.964812 85.337800 -5.000000
v -8.964812 85.337800 3.000000
v -3.550599 77.923587 -5.000000
v -3.550599 77.923587 3.000000
v -1.550599 21.923587 -5.000000
v -1.550599 21.923587 3.000000
v 2.449401 -4.076413 -5.000000
v 2.449401 -4.076413 3.000000
v 2.449401 -116.662200 -5.000000
v 2.449401 -116.662200 3.000000
v 6.449401 -116.662200 -5.000000
v 6.449401 -116.662200 3.000000
v 6.449401 0.752014 -5.000000
v 6.449401 0.752014 3.000000
v 2.449401 24.752014 -5.000000
v 2.449401 24.752014 3.000000
v 0.449401 80.752014 -5.000000
v 0.449401 80.752014 3.000000
v -1.550599 87.337800 -5.000000
v -1.550599 87.337800 3.000000
v -6.136385 89.337800 -5.000000
v -6.136385 89.337800 3.000000
vn -1.000000000 0.000000000 0.000000000
vn -0.174388766 -0.984676880 0.000000000
vn -0.807591664 -0.589742065 0.000000000
vn -0.999362854 -0.035691531 0.000000000
vn -0.988371698 -0.152057184 0.000000000
vn -1.000000000 0.000000000 0.000000000
vn 0.000000000 -1.000000000 0.000000000
vn 1.000000000 0.000000000 0.000000000
vn 0.986393924 0.164398987 0.000000000
vn 0.999362854 0.035691531 0.000000000
vn 0.956850544 0.290580515 0.000000000
vn 0.399764742 0.916617778 0.000000000
vn 0.155478240 0.987839317 0.000000000
vn 0.000000000 0.000000000 1.000000000
vn 0.000000000 0.000000000 -1.000000000
vn 0.000000000 0.000000000 1.000000000
vn 0.000000000 0.000000000 -1.000000000
vn 0.000000000 0.000000000 1.000000000
vn 0.000000000 -0.000000000 -1.000000000
vn -0.000000000 0.000000000 1.000000000
vn 0.000000000 0.000000000 -1.000000000
vn 0.000000000 0.000000000 1.000000000
vn -0.000000000 0.000000000 -1.000000000
vn 0.000000000 0.000000000 1.000000000
vn -0.000000000 0.000000000 -1.000000000
vn -0.000000000 0.000000000 1.000000000
vn 0.000000000 0.000000000 -1.000000000
vn 0.000000000 0.000000000 1.000000000
vn 0.000000000 0.000000000 -1.000000000
vn 0.000000000 0.000000000 1.000000000
vn 0.000000000 0.000000000 -1.000000000
vn -0.000000000 0.000000000 1.000000000
vn 0.000000000 -0.000000000 -1.000000000
vn 0.000000000 -0.000000000 1.000000000
vn 0.000000000 0.000000000 -1.000000000
f 1//1 2//1 3//1 4//1
f 2//2 5//2 6//2 3//2
f 5//3 7//3 8//3 6//3
f 7//4 9//4 10//4 8//4
f 9//5 11//5 12//5 10//5
f 11//6 13//6 14//6 12//6
f 13//7 15//7 16//7 14//7
f 15//8 17//8 18//8 16//8
f 17//9 19//9 20//9 18//9
f 19//10 21//10 22//10 20//10
f 21//11 23//11 24//11 22//11
f 23//12 25//12 26//12 24//12
f 25//13 1//13 4//13 26//13
f 16//14 12//14 14//14
f 13//15 11//15 15//15
f 18//16 12//16 16//16
f 15//17 11//17 17//17
f 8//18 22//18 24//18
f 23//19 21//19 7//19
f 6//20 8//20 24//20
f 23//21 7//21 5//21
f 26//22 6//22 24//22
f 23//23 5//23 25//23
f 4//24 6//24 26//24
f 25//25 5//25 1//25
f 3//26 6//26 4//26
f 1//27 5//27 2//27
f 18//28 10//28 12//28
f 11//29 9//29 17//29
f 20//30 10//30 18//30
f 17//31 9//31 19//31
f 8//32 20//32 22//32
f 21//33 19//33 7//33
f 10//34 20//34 8//34
f 7//35 19//35 9//35
