# Generated from CN441122_filled_aids.yaml
mtllib chart_obstacle_006.mtl
o chart_obstacle_006
usemtl chart_land
v -41.428312 179.739750 -5.000000
v -74.014098 125.153964 -5.000000
v -74.014098 125.153964 3.000000
v -41.428312 179.739750 3.000000
v -64.014098 -258.260250 -5.000000
v -64.014098 -258.260250 3.000000
v -58.014098 -255.674464 -5.000000
v -58.014098 -255.674464 3.000000
v 131.985902 74.325536 -5.000000
v 131.985902 74.325536 3.000000
v 131.985902 79.153964 -5.000000
v 131.985902 79.153964 3.000000
v 123.400115 85.739750 -5.000000
v 123.400115 85.739750 3.000000
vn -0.858640602 0.512578108 0.000000000
vn -0.999660052 -0.026072587 0.000000000
vn 0.395775019 -0.918347502 0.000000000
vn 0.866622457 -0.498964445 0.000000000
vn 1.000000000 0.000000000 0.000000000
vn 0.608626468 0.793456881 0.000000000
vn 0.495393156 0.868668879 0.000000000
vn 0.000000000 0.000000000 1.000000000
vn 0.000000000 0.000000000 -1.000000000
vn 0.000000000 0.000000000 1.000000000
vn 0.000000000 0.000000000 -1.000000000
vn 0.000000000 0.000000000 1.000000000
vn 0.000000000 0.000000000 -1.000000000
vn 0.000000000 0.000000000 1.000000000
vn 0.000000000 0.000000000 -1.000000000
vn 0.000000000 0.000000000 1.000000000
vn 0.000000000 0.000000000 -1.000000000
f 1//1 2//1 3//1 4//1
f 2//2 5//2 6//2 3//2
f 5//3 7//3 8//3 6//3
f 7//4 9//4 10//4 8//4
f 9//5 11//5 12//5 10//5
f 11//6 13//6 14//6 12//6
f 13//7 1//7 4//7 14//7
f 8//8 3//8 6//8
f 5//9 2//9 7//9
f 10//10 3//10 8//10
f 7//11 2//11 9//11
f 14//12 3//12 10//12
f 9//13 2//13 13//13
f 12//14 14//14 10//14
f 9//15 13//15 11//15
f 4//16 3//16 14//16
f 13//17 2//17 1//17
